<?xml version="1.0" encoding="us-ascii" standalone="no"?><svg xmlns="http://www.w3.org/2000/svg" xmlns:xlink="http://www.w3.org/1999/xlink" contentStyleType="text/css" height="711px" preserveAspectRatio="none" style="width:556px;height:711px;background:#FFFFFF;" version="1.1" viewBox="0 0 556 711" width="556px" zoomAndPan="magnify"><defs/><g><text fill="#000000" font-family="sans-serif" font-size="14" font-weight="bold" lengthAdjust="spacing" textLength="431" x="55.75" y="24.5332">Diagrama de Classes Conceitual - Gest&#227;o de Monitoria IBMEC</text><!--class Usuario--><g id="elem_Usuario"><rect codeLine="11" fill="#F1F1F1" height="106.0469" id="Usuario" rx="2.5" ry="2.5" style="stroke:#181818;stroke-width:0.5;" width="59" x="282.5" y="45.6094"/><text fill="#000000" font-family="sans-serif" font-size="14" lengthAdjust="spacing" textLength="48" x="288" y="65.1426">Usuario</text><line style="stroke:#181818;stroke-width:0.5;" x1="283.5" x2="340.5" y1="73.2188" y2="73.2188"/><text fill="#000000" font-family="sans-serif" font-size="14" lengthAdjust="spacing" textLength="19" x="288.5" y="91.752">+id</text><text fill="#000000" font-family="sans-serif" font-size="14" lengthAdjust="spacing" textLength="43" x="288.5" y="109.3613">+nome</text><text fill="#000000" font-family="sans-serif" font-size="14" lengthAdjust="spacing" textLength="41" x="288.5" y="126.9707">+email</text><text fill="#000000" font-family="sans-serif" font-size="14" lengthAdjust="spacing" textLength="47" x="288.5" y="144.5801">+senha</text></g><!--class Aluno--><g id="elem_Aluno"><rect codeLine="18" fill="#F1F1F1" height="88.4375" id="Aluno" rx="2.5" ry="2.5" style="stroke:#181818;stroke-width:0.5;" width="142" x="7" y="431.6094"/><text fill="#000000" font-family="sans-serif" font-size="14" lengthAdjust="spacing" textLength="36" x="60" y="451.1426">Aluno</text><line style="stroke:#181818;stroke-width:0.5;" x1="8" x2="148" y1="459.2188" y2="459.2188"/><text fill="#000000" font-family="sans-serif" font-size="14" lengthAdjust="spacing" textLength="65" x="13" y="477.752">+matricula</text><text fill="#000000" font-family="sans-serif" font-size="14" lengthAdjust="spacing" textLength="43" x="13" y="495.3613">+curso</text><text fill="#000000" font-family="sans-serif" font-size="14" lengthAdjust="spacing" textLength="130" x="13" y="512.9707">+historicoAcademico</text></g><!--class Coordenador--><g id="elem_Coordenador"><rect codeLine="24" fill="#F1F1F1" height="53.2188" id="Coordenador" rx="2.5" ry="2.5" style="stroke:#181818;stroke-width:0.5;" width="108" x="317" y="256.1094"/><text fill="#000000" font-family="sans-serif" font-size="14" lengthAdjust="spacing" textLength="84" x="329" y="275.6426">Coordenador</text><line style="stroke:#181818;stroke-width:0.5;" x1="318" x2="424" y1="283.7188" y2="283.7188"/><text fill="#000000" font-family="sans-serif" font-size="14" lengthAdjust="spacing" textLength="96" x="323" y="302.252">+departamento</text></g><!--class Professor--><g id="elem_Professor"><rect codeLine="28" fill="#F1F1F1" height="88.4375" id="Professor" rx="2.5" ry="2.5" style="stroke:#181818;stroke-width:0.5;" width="108" x="165" y="238.6094"/><text fill="#000000" font-family="sans-serif" font-size="14" lengthAdjust="spacing" textLength="61" x="188.5" y="258.1426">Professor</text><line style="stroke:#181818;stroke-width:0.5;" x1="166" x2="272" y1="266.2188" y2="266.2188"/><text fill="#000000" font-family="sans-serif" font-size="14" lengthAdjust="spacing" textLength="61" x="171" y="284.752">+titulacao</text><text fill="#000000" font-family="sans-serif" font-size="14" lengthAdjust="spacing" textLength="96" x="171" y="302.3613">+departamento</text><text fill="#000000" font-family="sans-serif" font-size="14" lengthAdjust="spacing" textLength="73" x="171" y="319.9707">+disciplinas</text></g><!--class Vaga--><g id="elem_Vaga"><rect codeLine="34" fill="#F1F1F1" height="123.6563" id="Vaga" rx="2.5" ry="2.5" style="stroke:#181818;stroke-width:0.5;" width="81" x="339.5" y="413.6094"/><text fill="#000000" font-family="sans-serif" font-size="14" lengthAdjust="spacing" textLength="33" x="363.5" y="433.1426">Vaga</text><line style="stroke:#181818;stroke-width:0.5;" x1="340.5" x2="419.5" y1="441.2188" y2="441.2188"/><text fill="#000000" font-family="sans-serif" font-size="14" lengthAdjust="spacing" textLength="19" x="345.5" y="459.752">+id</text><text fill="#000000" font-family="sans-serif" font-size="14" lengthAdjust="spacing" textLength="38" x="345.5" y="477.3613">+titulo</text><text fill="#000000" font-family="sans-serif" font-size="14" lengthAdjust="spacing" textLength="69" x="345.5" y="494.9707">+descricao</text><text fill="#000000" font-family="sans-serif" font-size="14" lengthAdjust="spacing" textLength="69" x="345.5" y="512.5801">+requisitos</text><text fill="#000000" font-family="sans-serif" font-size="14" lengthAdjust="spacing" textLength="46" x="345.5" y="530.1895">+status</text></g><!--class Candidatura--><g id="elem_Candidatura"><rect codeLine="42" fill="#F1F1F1" height="88.4375" id="Candidatura" rx="2.5" ry="2.5" style="stroke:#181818;stroke-width:0.5;" width="117" x="240.5" y="615.6094"/><text fill="#000000" font-family="sans-serif" font-size="14" lengthAdjust="spacing" textLength="78" x="260" y="635.1426">Candidatura</text><line style="stroke:#181818;stroke-width:0.5;" x1="241.5" x2="356.5" y1="643.2188" y2="643.2188"/><text fill="#000000" font-family="sans-serif" font-size="14" lengthAdjust="spacing" textLength="19" x="246.5" y="661.752">+id</text><text fill="#000000" font-family="sans-serif" font-size="14" lengthAdjust="spacing" textLength="105" x="246.5" y="679.3613">+dataSubmissao</text><text fill="#000000" font-family="sans-serif" font-size="14" lengthAdjust="spacing" textLength="46" x="246.5" y="696.9707">+status</text></g><!--class Notificacao--><g id="elem_Notificacao"><rect codeLine="48" fill="#F1F1F1" height="106.0469" id="Notificacao" rx="2.5" ry="2.5" style="stroke:#181818;stroke-width:0.5;" width="89" x="460.5" y="229.6094"/><text fill="#000000" font-family="sans-serif" font-size="14" lengthAdjust="spacing" textLength="69" x="470.5" y="249.1426">Notificacao</text><line style="stroke:#181818;stroke-width:0.5;" x1="461.5" x2="548.5" y1="257.2188" y2="257.2188"/><text fill="#000000" font-family="sans-serif" font-size="14" lengthAdjust="spacing" textLength="19" x="466.5" y="275.752">+id</text><text fill="#000000" font-family="sans-serif" font-size="14" lengthAdjust="spacing" textLength="77" x="466.5" y="293.3613">+mensagem</text><text fill="#000000" font-family="sans-serif" font-size="14" lengthAdjust="spacing" textLength="71" x="466.5" y="310.9707">+dataEnvio</text><text fill="#000000" font-family="sans-serif" font-size="14" lengthAdjust="spacing" textLength="46" x="466.5" y="328.5801">+status</text></g><!--reverse link Usuario to Aluno--><g id="link_Usuario_Aluno"><path d="M266.5998,124.0563 C229.4098,145.0763 182.05,177.1494 147,229.6094 C105.27,292.0694 88.53,379.6194 82,431.3894 " fill="none" id="Usuario-backto-Aluno" style="stroke:#181818;stroke-width:1.0;"/><polygon fill="none" points="282.27,115.1994,263.6475,118.8329,269.5521,129.2797,282.27,115.1994" style="stroke:#181818;stroke-width:1.0;"/></g><!--reverse link Usuario to Coordenador--><g id="link_Usuario_Coordenador"><path d="M334.4585,168.8829 C345.4885,202.9229 353.87,228.7494 362.6,255.7094 " fill="none" id="Usuario-backto-Coordenador" style="stroke:#181818;stroke-width:1.0;"/><polygon fill="none" points="328.91,151.7594,328.7507,170.7324,340.1664,167.0334,328.91,151.7594" style="stroke:#181818;stroke-width:1.0;"/></g><!--reverse link Usuario to Professor--><g id="link_Usuario_Professor"><path d="M277.1602,167.7883 C263.1502,195.2083 254.37,212.3894 241.1,238.3594 " fill="none" id="Usuario-backto-Professor" style="stroke:#181818;stroke-width:1.0;"/><polygon fill="none" points="285.35,151.7594,271.8172,165.0584,282.5031,170.5182,285.35,151.7594" style="stroke:#181818;stroke-width:1.0;"/></g><!--link Coordenador to Vaga--><g id="link_Coordenador_Vaga"><path codeLine="57" d="M372.21,309.3694 C373.47,335.9494 375.46,378.3694 377.12,413.5694 " fill="none" id="Coordenador-Vaga" style="stroke:#181818;stroke-width:1.0;"/><polygon fill="#000000" points="381.2353,379.7796,383.7453,370.6062,377.8739,370.8829,381.2353,379.7796" style="stroke:#000000;stroke-width:1.0;"/><text fill="#000000" font-family="sans-serif" font-size="13" lengthAdjust="spacing" textLength="49" x="390" y="380.1045">gerencia</text><text fill="#000000" font-family="sans-serif" font-size="13" lengthAdjust="spacing" textLength="7" x="364.6804" y="330.9181">1</text><text fill="#000000" font-family="sans-serif" font-size="13" lengthAdjust="spacing" textLength="20" x="355.5503" y="402.5707">0..*</text></g><!--link Vaga to Candidatura--><g id="link_Vaga_Candidatura"><path codeLine="58" d="M352.8,537.7194 C341.45,563.2294 328.53,592.2594 318.2,615.4794 " fill="none" id="Vaga-Candidatura" style="stroke:#181818;stroke-width:1.0;"/><polygon fill="#000000" points="347.0327,572.217,340.6704,579.2861,346.0407,581.6757,347.0327,572.217" style="stroke:#000000;stroke-width:1.0;"/><text fill="#000000" font-family="sans-serif" font-size="13" lengthAdjust="spacing" textLength="39" x="354" y="582.1045">recebe</text><text fill="#000000" font-family="sans-serif" font-size="13" lengthAdjust="spacing" textLength="7" x="342.4422" y="558.9208">1</text><text fill="#000000" font-family="sans-serif" font-size="13" lengthAdjust="spacing" textLength="20" x="299.6663" y="604.6594">0..*</text></g><!--link Aluno to Candidatura--><g id="link_Aluno_Candidatura"><path codeLine="59" d="M89.61,519.8394 C97.39,541.8794 109.65,567.7394 128,585.6094 C158.87,615.6694 204.05,634.2294 240.22,645.1094 " fill="none" id="Aluno-Candidatura" style="stroke:#181818;stroke-width:1.0;"/><polygon fill="#000000" points="136.8441,579.9825,131.7694,571.939,128.0107,576.458,136.8441,579.9825" style="stroke:#000000;stroke-width:1.0;"/><text fill="#000000" font-family="sans-serif" font-size="13" lengthAdjust="spacing" textLength="50" x="142" y="582.1045">submete</text><text fill="#000000" font-family="sans-serif" font-size="13" lengthAdjust="spacing" textLength="7" x="83.9025" y="541.6518">1</text><text fill="#000000" font-family="sans-serif" font-size="13" lengthAdjust="spacing" textLength="20" x="212.6972" y="640.1389">0..*</text></g><!--link Coordenador to Candidatura--><g id="link_Coordenador_Candidatura"><path codeLine="60" d="M405,309.2794 C421.33,323.7994 439.23,343.4594 448,365.6094 C461.78,400.4194 542.3,255.5394 438,537.6094 C423.8,576.0194 389.05,606.2694 357.85,626.9194 " fill="none" id="Coordenador-Candidatura" style="stroke:#181818;stroke-width:1.0;"/><polygon fill="#000000" points="484.2659,480.731,488.501,472.2154,482.6869,471.3524,484.2659,480.731" style="stroke:#000000;stroke-width:1.0;"/><text fill="#000000" font-family="sans-serif" font-size="13" lengthAdjust="spacing" textLength="41" x="494" y="481.1045">analisa</text><text fill="#000000" font-family="sans-serif" font-size="13" lengthAdjust="spacing" textLength="7" x="405.0531" y="330.8073">1</text><text fill="#000000" font-family="sans-serif" font-size="13" lengthAdjust="spacing" textLength="20" x="365.3805" y="619.9593">0..*</text></g><!--link Usuario to Notificacao--><g id="link_Usuario_Notificacao"><path codeLine="61" d="M341.73,127.6494 C373.35,157.4594 423.72,204.9594 460.16,239.3194 " fill="none" id="Usuario-Notificacao" style="stroke:#181818;stroke-width:1.0;"/><polygon fill="#000000" points="422.6378,194.2153,418.0731,185.8718,414.0407,190.1483,422.6378,194.2153" style="stroke:#000000;stroke-width:1.0;"/><text fill="#000000" font-family="sans-serif" font-size="13" lengthAdjust="spacing" textLength="39" x="428" y="196.1045">recebe</text><text fill="#000000" font-family="sans-serif" font-size="13" lengthAdjust="spacing" textLength="7" x="349.4144" y="130.0452">1</text><text fill="#000000" font-family="sans-serif" font-size="13" lengthAdjust="spacing" textLength="20" x="432.4481" y="229.6233">0..*</text></g><!--link Professor to Aluno--><g id="link_Professor_Aluno"><path codeLine="62" d="M172.73,326.7894 C161.05,338.7994 149,352.2294 139,365.6094 C123.69,386.1094 109.53,410.8694 98.72,431.6094 " fill="none" id="Professor-Aluno" style="stroke:#181818;stroke-width:1.0;"/><polygon fill="#000000" points="141.1161,378.8696,148.7339,373.1759,143.9323,369.7856,141.1161,378.8696" style="stroke:#000000;stroke-width:1.0;"/><text fill="#000000" font-family="sans-serif" font-size="13" lengthAdjust="spacing" textLength="39" x="153" y="380.1045">orienta</text><text fill="#000000" font-family="sans-serif" font-size="13" lengthAdjust="spacing" textLength="20" x="143.762" y="348.5938">0..*</text><text fill="#000000" font-family="sans-serif" font-size="13" lengthAdjust="spacing" textLength="20" x="80.4285" y="420.8101">0..*</text></g><!--link Professor to Candidatura--><g id="link_Professor_Candidatura"><path codeLine="63" d="M216.87,326.7394 C215.51,377.9994 216.92,465.6494 237,537.6094 C244.61,564.8894 258.71,593.1794 271.54,615.5494 " fill="none" id="Professor-Candidatura" style="stroke:#181818;stroke-width:1.0;"/><polygon fill="#000000" points="242.93,480.6979,244.1353,471.264,238.36,472.3573,242.93,480.6979" style="stroke:#000000;stroke-width:1.0;"/><text fill="#000000" font-family="sans-serif" font-size="13" lengthAdjust="spacing" textLength="70" x="251" y="481.1045">orientaEnvia</text><text fill="#000000" font-family="sans-serif" font-size="13" lengthAdjust="spacing" textLength="7" x="208.9727" y="348.5359">1</text><text fill="#000000" font-family="sans-serif" font-size="13" lengthAdjust="spacing" textLength="20" x="245.5698" y="604.7406">0..*</text></g><!--SRC=[VLBBRXin3BphAmXV0gHma5wD8e2x2OeSKWHDspkjfMqYUhYYL3Gj-ZKzzDIly8-LygxZNUTnaIY2CnmETGANjEJ0sx_RFn5Q0fBCBXgvvx31X1wiGv5vpeaN9TErZU6EVnAS3qeaFpZICx7DnJkpvahaD_a1FFa59J7c13vl_-NYj4c4IyQL0j5apehSFsl_fhOZWIO6IvmBEfZ21rNLwxk9WNDCZ73z_kQggSJJwVGHfh4nEydmHGecZl3B0BpXjfuXUgetUMHN0w6mHlDx3vcx4YBGZqoXFIBmMCSh3kl3bYIn1ckMAiR6kSMMl0O7iYR6r5B0DgRdALjI-p9w2da0kqrnII8lWTGn5M4nFc6eRnRB6yS1vK3u5LSuD677qCF5glYEAz6tmgBUoiwOZBaCI1eCBRUQIoCkpU1TMNWMwLYESHzZvgMsq2P3d2eMN97VSro5xto4x_RwYNHOZg6RiT_lqDd9suacON9-TdOwwMQTmOeI1Qj_vCBiCkEYuImpI6HfGV3ETCj_hLHqKigah2yh62Cme6EfElPB75SFxNcKSc4EVw2lEo0wbJFGNwUEuBZu5ILzVJMwWlu3]--></g></svg>