<?xml version="1.0" encoding="us-ascii" standalone="no"?><svg xmlns="http://www.w3.org/2000/svg" xmlns:xlink="http://www.w3.org/1999/xlink" contentStyleType="text/css" height="711px" preserveAspectRatio="none" style="width:460px;height:711px;background:#FFFFFF;" version="1.1" viewBox="0 0 460 711" width="460px" zoomAndPan="magnify"><defs/><g><text fill="#000000" font-family="sans-serif" font-size="14" font-weight="bold" lengthAdjust="spacing" textLength="431" x="10" y="24.5332">Diagrama de Classes Conceitual - Gest&#227;o de Monitoria IBMEC</text><!--class Usuario--><g id="elem_Usuario"><rect codeLine="11" fill="#F1F1F1" height="106.0469" id="Usuario" rx="2.5" ry="2.5" style="stroke:#181818;stroke-width:0.5;" width="59" x="191.25" y="45.6094"/><text fill="#000000" font-family="sans-serif" font-size="14" lengthAdjust="spacing" textLength="48" x="196.75" y="65.1426">Usuario</text><line style="stroke:#181818;stroke-width:0.5;" x1="192.25" x2="249.25" y1="73.2188" y2="73.2188"/><text fill="#000000" font-family="sans-serif" font-size="14" lengthAdjust="spacing" textLength="19" x="197.25" y="91.752">+id</text><text fill="#000000" font-family="sans-serif" font-size="14" lengthAdjust="spacing" textLength="43" x="197.25" y="109.3613">+nome</text><text fill="#000000" font-family="sans-serif" font-size="14" lengthAdjust="spacing" textLength="41" x="197.25" y="126.9707">+email</text><text fill="#000000" font-family="sans-serif" font-size="14" lengthAdjust="spacing" textLength="47" x="197.25" y="144.5801">+senha</text></g><!--class Aluno--><g id="elem_Aluno"><rect codeLine="18" fill="#F1F1F1" height="88.4375" id="Aluno" rx="2.5" ry="2.5" style="stroke:#181818;stroke-width:0.5;" width="142" x="11.75" y="431.6094"/><text fill="#000000" font-family="sans-serif" font-size="14" lengthAdjust="spacing" textLength="36" x="64.75" y="451.1426">Aluno</text><line style="stroke:#181818;stroke-width:0.5;" x1="12.75" x2="152.75" y1="459.2188" y2="459.2188"/><text fill="#000000" font-family="sans-serif" font-size="14" lengthAdjust="spacing" textLength="65" x="17.75" y="477.752">+matricula</text><text fill="#000000" font-family="sans-serif" font-size="14" lengthAdjust="spacing" textLength="43" x="17.75" y="495.3613">+curso</text><text fill="#000000" font-family="sans-serif" font-size="14" lengthAdjust="spacing" textLength="130" x="17.75" y="512.9707">+historicoAcademico</text></g><!--class Coordenador--><g id="elem_Coordenador"><rect codeLine="24" fill="#F1F1F1" height="53.2188" id="Coordenador" rx="2.5" ry="2.5" style="stroke:#181818;stroke-width:0.5;" width="108" x="220.75" y="256.1094"/><text fill="#000000" font-family="sans-serif" font-size="14" lengthAdjust="spacing" textLength="84" x="232.75" y="275.6426">Coordenador</text><line style="stroke:#181818;stroke-width:0.5;" x1="221.75" x2="327.75" y1="283.7188" y2="283.7188"/><text fill="#000000" font-family="sans-serif" font-size="14" lengthAdjust="spacing" textLength="96" x="226.75" y="302.252">+departamento</text></g><!--class Professor--><g id="elem_Professor"><rect codeLine="28" fill="#F1F1F1" height="88.4375" id="Professor" rx="2.5" ry="2.5" style="stroke:#181818;stroke-width:0.5;" width="108" x="77.75" y="238.6094"/><text fill="#000000" font-family="sans-serif" font-size="14" lengthAdjust="spacing" textLength="61" x="101.25" y="258.1426">Professor</text><line style="stroke:#181818;stroke-width:0.5;" x1="78.75" x2="184.75" y1="266.2188" y2="266.2188"/><text fill="#000000" font-family="sans-serif" font-size="14" lengthAdjust="spacing" textLength="61" x="83.75" y="284.752">+titulacao</text><text fill="#000000" font-family="sans-serif" font-size="14" lengthAdjust="spacing" textLength="96" x="83.75" y="302.3613">+departamento</text><text fill="#000000" font-family="sans-serif" font-size="14" lengthAdjust="spacing" textLength="73" x="83.75" y="319.9707">+disciplinas</text></g><!--class Vaga--><g id="elem_Vaga"><rect codeLine="34" fill="#F1F1F1" height="123.6563" id="Vaga" rx="2.5" ry="2.5" style="stroke:#181818;stroke-width:0.5;" width="81" x="199.25" y="413.6094"/><text fill="#000000" font-family="sans-serif" font-size="14" lengthAdjust="spacing" textLength="33" x="223.25" y="433.1426">Vaga</text><line style="stroke:#181818;stroke-width:0.5;" x1="200.25" x2="279.25" y1="441.2188" y2="441.2188"/><text fill="#000000" font-family="sans-serif" font-size="14" lengthAdjust="spacing" textLength="19" x="205.25" y="459.752">+id</text><text fill="#000000" font-family="sans-serif" font-size="14" lengthAdjust="spacing" textLength="38" x="205.25" y="477.3613">+titulo</text><text fill="#000000" font-family="sans-serif" font-size="14" lengthAdjust="spacing" textLength="69" x="205.25" y="494.9707">+descricao</text><text fill="#000000" font-family="sans-serif" font-size="14" lengthAdjust="spacing" textLength="69" x="205.25" y="512.5801">+requisitos</text><text fill="#000000" font-family="sans-serif" font-size="14" lengthAdjust="spacing" textLength="46" x="205.25" y="530.1895">+status</text></g><!--class Candidatura--><g id="elem_Candidatura"><rect codeLine="42" fill="#F1F1F1" height="88.4375" id="Candidatura" rx="2.5" ry="2.5" style="stroke:#181818;stroke-width:0.5;" width="117" x="181.25" y="615.6094"/><text fill="#000000" font-family="sans-serif" font-size="14" lengthAdjust="spacing" textLength="78" x="200.75" y="635.1426">Candidatura</text><line style="stroke:#181818;stroke-width:0.5;" x1="182.25" x2="297.25" y1="643.2188" y2="643.2188"/><text fill="#000000" font-family="sans-serif" font-size="14" lengthAdjust="spacing" textLength="19" x="187.25" y="661.752">+id</text><text fill="#000000" font-family="sans-serif" font-size="14" lengthAdjust="spacing" textLength="105" x="187.25" y="679.3613">+dataSubmissao</text><text fill="#000000" font-family="sans-serif" font-size="14" lengthAdjust="spacing" textLength="46" x="187.25" y="696.9707">+status</text></g><!--class Notificacao--><g id="elem_Notificacao"><rect codeLine="48" fill="#F1F1F1" height="106.0469" id="Notificacao" rx="2.5" ry="2.5" style="stroke:#181818;stroke-width:0.5;" width="89" x="364.25" y="229.6094"/><text fill="#000000" font-family="sans-serif" font-size="14" lengthAdjust="spacing" textLength="69" x="374.25" y="249.1426">Notificacao</text><line style="stroke:#181818;stroke-width:0.5;" x1="365.25" x2="452.25" y1="257.2188" y2="257.2188"/><text fill="#000000" font-family="sans-serif" font-size="14" lengthAdjust="spacing" textLength="19" x="370.25" y="275.752">+id</text><text fill="#000000" font-family="sans-serif" font-size="14" lengthAdjust="spacing" textLength="77" x="370.25" y="293.3613">+mensagem</text><text fill="#000000" font-family="sans-serif" font-size="14" lengthAdjust="spacing" textLength="71" x="370.25" y="310.9707">+dataEnvio</text><text fill="#000000" font-family="sans-serif" font-size="14" lengthAdjust="spacing" textLength="46" x="370.25" y="328.5801">+status</text></g><!--reverse link Usuario to Aluno--><g id="link_Usuario_Aluno"><path d="M175.0122,121.3424 C136.4522,140.8724 86.93,172.7194 59.75,229.6094 C28.62,294.7494 48.62,380.6594 65.8,431.5294 " fill="none" id="Usuario-backto-Aluno" style="stroke:#181818;stroke-width:1.0;"/><polygon fill="none" points="191.07,113.2094,172.3012,115.9898,177.7232,126.695,191.07,113.2094" style="stroke:#181818;stroke-width:1.0;"/></g><!--reverse link Usuario to Coordenador--><g id="link_Usuario_Coordenador"><path d="M241.3401,169.0158 C251.4401,203.0558 259.07,228.7494 267.07,255.7094 " fill="none" id="Usuario-backto-Coordenador" style="stroke:#181818;stroke-width:1.0;"/><polygon fill="none" points="236.22,151.7594,235.588,170.7225,247.0923,167.3091,236.22,151.7594" style="stroke:#181818;stroke-width:1.0;"/></g><!--reverse link Usuario to Professor--><g id="link_Usuario_Professor"><path d="M187.342,167.9292 C173.932,195.3492 165.6,212.3894 152.9,238.3594 " fill="none" id="Usuario-backto-Professor" style="stroke:#181818;stroke-width:1.0;"/><polygon fill="none" points="195.25,151.7594,181.9521,165.2932,192.7319,170.5652,195.25,151.7594" style="stroke:#181818;stroke-width:1.0;"/></g><!--link Coordenador to Vaga--><g id="link_Coordenador_Vaga"><path codeLine="57" d="M270.03,309.3694 C265.16,335.9494 257.39,378.3694 250.94,413.5694 " fill="none" id="Coordenador-Vaga" style="stroke:#181818;stroke-width:1.0;"/><polygon fill="#000000" points="263.849,379.7033,268.3698,371.3359,262.5881,370.2767,263.849,379.7033" style="stroke:#000000;stroke-width:1.0;"/><text fill="#000000" font-family="sans-serif" font-size="13" lengthAdjust="spacing" textLength="49" x="273.75" y="380.1045">gerencia</text><text fill="#000000" font-family="sans-serif" font-size="13" lengthAdjust="spacing" textLength="7" x="261.1291" y="330.9181">1</text><text fill="#000000" font-family="sans-serif" font-size="13" lengthAdjust="spacing" textLength="20" x="231.085" y="402.5707">0..*</text></g><!--link Vaga to Candidatura--><g id="link_Vaga_Candidatura"><path codeLine="58" d="M239.75,537.7194 C239.75,563.2294 239.75,592.2594 239.75,615.4794 " fill="none" id="Vaga-Candidatura" style="stroke:#181818;stroke-width:1.0;"/><polygon fill="#000000" points="244.75,571.7852,241.8111,580.8302,247.6889,580.8302,244.75,571.7852" style="stroke:#000000;stroke-width:1.0;"/><text fill="#000000" font-family="sans-serif" font-size="13" lengthAdjust="spacing" textLength="39" x="253.75" y="582.1045">recebe</text><text fill="#000000" font-family="sans-serif" font-size="13" lengthAdjust="spacing" textLength="7" x="232.3672" y="558.9208">1</text><text fill="#000000" font-family="sans-serif" font-size="13" lengthAdjust="spacing" textLength="20" x="218.1563" y="604.6594">0..*</text></g><!--link Aluno to Candidatura--><g id="link_Aluno_Candidatura"><path codeLine="59" d="M114.03,519.8094 C129.33,540.2494 148.38,564.6994 166.75,585.6094 C175.51,595.5694 185.3,605.8794 194.8,615.4894 " fill="none" id="Aluno-Candidatura" style="stroke:#181818;stroke-width:1.0;"/><polygon fill="#000000" points="174.9753,580.6058,171.3864,571.7984,166.895,575.5899,174.9753,580.6058" style="stroke:#000000;stroke-width:1.0;"/><text fill="#000000" font-family="sans-serif" font-size="13" lengthAdjust="spacing" textLength="50" x="180.75" y="582.1045">submete</text><text fill="#000000" font-family="sans-serif" font-size="13" lengthAdjust="spacing" textLength="7" x="111.4574" y="541.617">1</text><text fill="#000000" font-family="sans-serif" font-size="13" lengthAdjust="spacing" textLength="20" x="166.0423" y="604.671">0..*</text></g><!--link Coordenador to Candidatura--><g id="link_Coordenador_Candidatura"><path codeLine="60" d="M298.86,309.4394 C311.31,324.5694 325.22,344.7594 331.75,365.6094 C334.14,373.2394 332.34,375.6294 331.75,383.6094 C325.07,474.1294 339.24,502.9494 301.75,585.6094 C297.01,596.0594 290.32,606.1794 283.08,615.3894 " fill="none" id="Coordenador-Candidatura" style="stroke:#181818;stroke-width:1.0;"/><polygon fill="#000000" points="335.4925,480.7785,338.8934,471.8968,333.0233,471.5941,335.4925,480.7785" style="stroke:#000000;stroke-width:1.0;"/><text fill="#000000" font-family="sans-serif" font-size="13" lengthAdjust="spacing" textLength="41" x="344.75" y="481.1045">analisa</text><text fill="#000000" font-family="sans-serif" font-size="13" lengthAdjust="spacing" textLength="7" x="296.6261" y="331.0043">1</text><text fill="#000000" font-family="sans-serif" font-size="13" lengthAdjust="spacing" textLength="20" x="268.1837" y="604.8817">0..*</text></g><!--link Usuario to Notificacao--><g id="link_Usuario_Notificacao"><path codeLine="61" d="M250.54,128.4494 C281.08,158.0194 328.95,204.3594 364.04,238.3294 " fill="none" id="Usuario-Notificacao" style="stroke:#181818;stroke-width:1.0;"/><polygon fill="#000000" points="329.3424,194.2629,324.8879,185.86,320.7995,190.0831,329.3424,194.2629" style="stroke:#000000;stroke-width:1.0;"/><text fill="#000000" font-family="sans-serif" font-size="13" lengthAdjust="spacing" textLength="39" x="334.75" y="196.1045">recebe</text><text fill="#000000" font-family="sans-serif" font-size="13" lengthAdjust="spacing" textLength="7" x="258.2383" y="131.0302">1</text><text fill="#000000" font-family="sans-serif" font-size="13" lengthAdjust="spacing" textLength="20" x="336.3464" y="228.494">0..*</text></g><!--link Professor to Vaga--><g id="link_Professor_Vaga"><path codeLine="62" d="M156.26,326.9494 C170.7,352.4894 189.19,385.1994 205.1,413.3394 " fill="none" id="Professor-Vaga" style="stroke:#181818;stroke-width:1.0;"/><polygon fill="#000000" points="193.2107,379.1377,191.3176,369.8175,186.2009,372.7102,193.2107,379.1377" style="stroke:#000000;stroke-width:1.0;"/><text fill="#000000" font-family="sans-serif" font-size="13" lengthAdjust="spacing" textLength="41" x="199.75" y="380.1045">publica</text><text fill="#000000" font-family="sans-serif" font-size="13" lengthAdjust="spacing" textLength="7" x="152.4772" y="348.4525">1</text><text fill="#000000" font-family="sans-serif" font-size="13" lengthAdjust="spacing" textLength="20" x="179.9373" y="402.7497">0..*</text></g><!--link Professor to Aluno--><g id="link_Professor_Aluno"><path codeLine="63" d="M97.95,326.9294 C90.49,338.8294 83.65,352.1694 79.75,365.6094 C73.63,386.6994 73.67,411.0594 75.55,431.3894 " fill="none" id="Professor-Aluno" style="stroke:#181818;stroke-width:1.0;"/><polygon fill="#000000" points="83.7017,379.674,88.4717,371.4462,82.7245,370.2138,83.7017,379.674" style="stroke:#000000;stroke-width:1.0;"/><text fill="#000000" font-family="sans-serif" font-size="13" lengthAdjust="spacing" textLength="39" x="93.75" y="380.1045">orienta</text><text fill="#000000" font-family="sans-serif" font-size="13" lengthAdjust="spacing" textLength="20" x="71.2431" y="348.4294">0..*</text><text fill="#000000" font-family="sans-serif" font-size="13" lengthAdjust="spacing" textLength="20" x="52.9163" y="420.8817">0..*</text></g><!--SRC=[VLBBRXin3BphAmXV0gHma5wD8e2x2OeSKWHDspjNIzj4z715gMXQz6jwwAbVuHyhvRNZNUTnsPM8cU4CgHEuf0K7tlpT_8dG4P1aTj78FOSr9lHW7OhCSqxSbapNDeOx_abmFe18Vd2atyGs5-_CYgkGN-S7yEHRIcBC2NpU_Cl5QPC8bunB9QB9d9MvlzR-JMr70aqCbZWNT3253-fgv-yc1iunCSBr-vkhfWfFfzD7cfwDsLg6Br8mSOHV1k0DT_KRegVw9u_iwa4ehD3ytbFcheG8z2DJw8u4FDPunM6zs98ariEAfPgnSMwn8w-7WrWJO-eeO1VJyv8TwVWoUWfvGBjDSK4YBv5qOch2OdoYKEyibjUE0yf1y2ikSJY4hSAEBbRDzrg9lXKMdQri1vCnbu58Ww7ZJcjffAKLl2kjPv5UvPZtCMPUQ0jjCkIfOy4b-Rt6LVZEH_n-hvz8mt8CVSRTVeUJdRoTQ14cvsTdfvC-wmoMb2XOVICNPbiPWuPPPf38KalmplJBVmqgcfGogUhB3iOC3EXOge_z4iVeuNWUhLoOmnjuDjwwj4v9Os2FE63xE3FGvwcZg-3_]--></g></svg>