<?xml version="1.0" encoding="us-ascii" standalone="no"?><svg xmlns="http://www.w3.org/2000/svg" xmlns:xlink="http://www.w3.org/1999/xlink" contentStyleType="text/css" height="1324px" preserveAspectRatio="none" style="width:723px;height:1324px;background:#FFFFFF;" version="1.1" viewBox="0 0 723 1324" width="723px" zoomAndPan="magnify"><defs/><g><text fill="#000000" font-family="sans-serif" font-size="14" font-weight="bold" lengthAdjust="spacing" textLength="392" x="158.5" y="22.9951">Diagrama de Casos de Uso - Sistema de Monitoria</text><!--cluster Sistema de Monitoria--><g id="cluster_Sistema de Monitoria"><rect fill="none" height="880" rx="2.5" ry="2.5" style="stroke:#181818;stroke-width:1.0;" width="573" x="144" y="199.3569"/><text fill="#000000" font-family="sans-serif" font-size="14" font-weight="bold" lengthAdjust="spacing" textLength="165" x="348" y="214.352">Sistema de Monitoria</text></g><g id="elem_UC01"><ellipse cx="263.24" cy="479.4049" fill="#F1F1F1" rx="68.24" ry="16.048" style="stroke:#181818;stroke-width:0.5;"/><text fill="#000000" font-family="sans-serif" font-size="14" lengthAdjust="spacing" textLength="88" x="216.24" y="483.1524">Cadastrar-se</text></g><g id="elem_UC02"><ellipse cx="595.0766" cy="619.2722" fill="#F1F1F1" rx="65.0766" ry="15.4153" style="stroke:#181818;stroke-width:0.5;"/><text fill="#000000" font-family="sans-serif" font-size="14" lengthAdjust="spacing" textLength="79" x="552.5766" y="623.0198">Fazer Login</text></g><g id="elem_UC03"><ellipse cx="262.964" cy="546.5497" fill="#F1F1F1" rx="68.964" ry="16.1928" style="stroke:#181818;stroke-width:0.5;"/><text fill="#000000" font-family="sans-serif" font-size="14" lengthAdjust="spacing" textLength="90" x="214.964" y="550.2972">Fazer Logout</text></g><g id="elem_UC04"><ellipse cx="263.0612" cy="410.5691" fill="#F1F1F1" rx="76.5612" ry="17.7122" style="stroke:#181818;stroke-width:0.5;"/><text fill="#000000" font-family="sans-serif" font-size="14" lengthAdjust="spacing" textLength="110" x="205.0612" y="414.3167">Visualizar Vagas</text></g><g id="elem_UC05"><ellipse cx="594.9626" cy="264.5494" fill="#F1F1F1" rx="66.4626" ry="15.6925" style="stroke:#181818;stroke-width:0.5;"/><text fill="#000000" font-family="sans-serif" font-size="14" lengthAdjust="spacing" textLength="83" x="550.4626" y="268.297">Filtrar Vagas</text></g><g id="elem_UC06"><ellipse cx="594.7771" cy="380.3123" fill="#F1F1F1" rx="92.7771" ry="20.9554" style="stroke:#181818;stroke-width:0.5;"/><text fill="#000000" font-family="sans-serif" font-size="14" lengthAdjust="spacing" textLength="148" x="520.7771" y="383.159">Ver Detalhes da Vaga</text></g><g id="elem_UC07"><ellipse cx="262.8872" cy="255.1343" fill="#F1F1F1" rx="91.8872" ry="20.7774" style="stroke:#181818;stroke-width:0.5;"/><text fill="#000000" font-family="sans-serif" font-size="14" lengthAdjust="spacing" textLength="146" x="189.8872" y="257.981">Candidatar-se &#224; Vaga</text></g><g id="elem_UC08"><ellipse cx="263.1608" cy="334.389" fill="#F1F1F1" rx="103.1608" ry="23.0322" style="stroke:#181818;stroke-width:0.5;"/><text fill="#000000" font-family="sans-serif" font-size="14" lengthAdjust="spacing" textLength="171" x="177.6608" y="337.2357">Ver Minhas Candidaturas</text></g><g id="elem_UC09"><ellipse cx="262.7599" cy="619.2089" fill="#F1F1F1" rx="97.2599" ry="21.852" style="stroke:#181818;stroke-width:0.5;"/><text fill="#000000" font-family="sans-serif" font-size="14" lengthAdjust="spacing" textLength="158" x="183.7599" y="622.0555">Criar Vaga de Monitoria</text></g><g id="elem_UC10"><ellipse cx="262.8963" cy="692.1361" fill="#F1F1F1" rx="64.3963" ry="15.2793" style="stroke:#181818;stroke-width:0.5;"/><text fill="#000000" font-family="sans-serif" font-size="14" lengthAdjust="spacing" textLength="77" x="221.3963" y="695.8837">Editar Vaga</text></g><g id="elem_UC11"><ellipse cx="263.113" cy="758.4795" fill="#F1F1F1" rx="66.113" ry="15.6226" style="stroke:#181818;stroke-width:0.5;"/><text fill="#000000" font-family="sans-serif" font-size="14" lengthAdjust="spacing" textLength="82" x="219.113" y="762.227">Excluir Vaga</text></g><g id="elem_UC12"><ellipse cx="594.9086" cy="983.4386" fill="#F1F1F1" rx="105.9086" ry="23.5817" style="stroke:#181818;stroke-width:0.5;"/><text fill="#000000" font-family="sans-serif" font-size="14" lengthAdjust="spacing" textLength="177" x="506.4086" y="986.2853">Ver Candidaturas da Vaga</text></g><g id="elem_UC13"><ellipse cx="262.7839" cy="827.2136" fill="#F1F1F1" rx="79.7839" ry="18.3568" style="stroke:#181818;stroke-width:0.5;"/><text fill="#000000" font-family="sans-serif" font-size="14" lengthAdjust="spacing" textLength="118" x="202.0356" y="830.6182">Marcar Entrevista</text></g><g id="elem_UC14"><ellipse cx="263.1107" cy="899.379" fill="#F1F1F1" rx="80.6107" ry="18.5221" style="stroke:#181818;stroke-width:0.5;"/><text fill="#000000" font-family="sans-serif" font-size="14" lengthAdjust="spacing" textLength="120" x="201.6726" y="902.6916">Gerenciar Cursos</text></g><g id="elem_UC15"><ellipse cx="262.9996" cy="973.4568" fill="#F1F1F1" rx="90.9996" ry="20.5999" style="stroke:#181818;stroke-width:0.5;"/><text fill="#000000" font-family="sans-serif" font-size="14" lengthAdjust="spacing" textLength="144" x="190.9996" y="976.3035">Gerenciar Disciplinas</text></g><g id="elem_UC16"><ellipse cx="262.9293" cy="1046.1427" fill="#F1F1F1" rx="71.9293" ry="16.7859" style="stroke:#181818;stroke-width:0.5;"/><text fill="#000000" font-family="sans-serif" font-size="14" lengthAdjust="spacing" textLength="98" x="210.9293" y="1049.8903">Aprovar Vagas</text></g><!--entity aluno--><g id="elem_aluno"><ellipse cx="51.5" cy="278.3569" fill="#F1F1F1" rx="16" ry="16" style="stroke:#181818;stroke-width:0.5;"/><path d="M51.5,298.3569 C55.5,298.3569 58.5,298.3569 62.5,294.3569 C70.5,294.3569 78.5,302.3569 78.5,310.3569 L78.5,314.3569 C78.5,318.3569 74.5,322.3569 70.5,322.3569 L32.5,322.3569 C28.5,322.3569 24.5,318.3569 24.5,314.3569 L24.5,310.3569 C24.5,302.3569 32.5,294.3569 40.5,294.3569 C44.5,298.3569 47.5,298.3569 51.5,298.3569 " fill="#F1F1F1" style="stroke:#181818;stroke-width:0.5;"/><text fill="#000000" font-family="sans-serif" font-size="14" lengthAdjust="spacing" textLength="39" x="32" y="335.852">Aluno</text></g><!--entity professor--><g id="elem_professor"><ellipse cx="51.5" cy="703.3569" fill="#F1F1F1" rx="16" ry="16" style="stroke:#181818;stroke-width:0.5;"/><path d="M51.5,723.3569 C55.5,723.3569 58.5,723.3569 62.5,719.3569 C70.5,719.3569 78.5,727.3569 78.5,735.3569 L78.5,739.3569 C78.5,743.3569 74.5,747.3569 70.5,747.3569 L32.5,747.3569 C28.5,747.3569 24.5,743.3569 24.5,739.3569 L24.5,735.3569 C24.5,727.3569 32.5,719.3569 40.5,719.3569 C44.5,723.3569 47.5,723.3569 51.5,723.3569 " fill="#F1F1F1" style="stroke:#181818;stroke-width:0.5;"/><text fill="#000000" font-family="sans-serif" font-size="14" lengthAdjust="spacing" textLength="66" x="18.5" y="760.852">Professor</text></g><!--entity coordenador--><g id="elem_coordenador"><ellipse cx="51.5" cy="1258.3569" fill="#F1F1F1" rx="16" ry="16" style="stroke:#181818;stroke-width:0.5;"/><path d="M51.5,1278.3569 C55.5,1278.3569 58.5,1278.3569 62.5,1274.3569 C70.5,1274.3569 78.5,1282.3569 78.5,1290.3569 L78.5,1294.3569 C78.5,1298.3569 74.5,1302.3569 70.5,1302.3569 L32.5,1302.3569 C28.5,1302.3569 24.5,1298.3569 24.5,1294.3569 L24.5,1290.3569 C24.5,1282.3569 32.5,1274.3569 40.5,1274.3569 C44.5,1278.3569 47.5,1278.3569 51.5,1278.3569 " fill="#F1F1F1" style="stroke:#181818;stroke-width:0.5;"/><text fill="#000000" font-family="sans-serif" font-size="14" lengthAdjust="spacing" textLength="91" x="6" y="1315.852">Coordenador</text></g><!--link aluno to UC01--><g id="link_aluno_UC01"><path d="M65.19,339.0469 C77.98,372.0569 100.89,418.3369 136,445.3569 C154.58,459.6569 172.8758,466.6878 195.0558,471.4878 " fill="none" id="aluno-to-UC01" style="stroke:#181818;stroke-width:1.0;"/><polygon fill="#181818" points="200.92,472.7569,192.9697,466.9437,196.0331,471.6993,191.2776,474.7627,200.92,472.7569" style="stroke:#181818;stroke-width:1.0;"/></g><!--link aluno to UC02--><g id="link_aluno_UC02"><path d="M57.17,261.6269 C64.39,220.8269 82.44,158.5469 127,129.3569 C258.37,43.2969 358.01,130.0869 459,250.3569 C507.78,308.4369 464.49,346.5769 489,418.3569 C514.06,491.7569 559.479,566.174 580.579,598.904 " fill="none" id="aluno-to-UC02" style="stroke:#181818;stroke-width:1.0;"/><polygon fill="#181818" points="583.83,603.9469,582.3154,594.2152,581.1208,599.7444,575.5915,598.5498,583.83,603.9469" style="stroke:#181818;stroke-width:1.0;"/></g><!--link aluno to UC03--><g id="link_aluno_UC03"><path d="M57.19,339.2069 C65.02,386.8969 85.28,467.0069 136,512.3569 C153.06,527.6069 170.4053,534.85 192.2553,539.57 " fill="none" id="aluno-to-UC03" style="stroke:#181818;stroke-width:1.0;"/><polygon fill="#181818" points="198.12,540.8369,190.1675,535.0267,193.2327,539.7811,188.4783,542.8464,198.12,540.8369" style="stroke:#181818;stroke-width:1.0;"/></g><!--link professor to UC01--><g id="link_professor_UC01"><path d="M57.01,686.6869 C64.68,638.7669 84.79,557.8769 136,512.3569 C153.07,497.1869 170.4049,490.0649 192.2549,485.5349 " fill="none" id="professor-to-UC01" style="stroke:#181818;stroke-width:1.0;"/><polygon fill="#181818" points="198.13,484.3169,188.5054,482.2272,193.2341,485.3319,190.1294,490.0606,198.13,484.3169" style="stroke:#181818;stroke-width:1.0;"/></g><!--link professor to UC02--><g id="link_professor_UC02"><path d="M55.67,763.8669 C63.44,847.4569 86.49,1041.1469 136,1080.3569 C216.13,1143.8269 277.81,1132.0369 366,1080.3569 C452.95,1029.3969 561.9492,715.5178 586.9392,640.6978 " fill="none" id="professor-to-UC02" style="stroke:#181818;stroke-width:1.0;"/><polygon fill="#181818" points="588.84,635.0069,582.1948,642.2761,587.256,639.7493,589.7828,644.8105,588.84,635.0069" style="stroke:#181818;stroke-width:1.0;"/></g><!--link professor to UC03--><g id="link_professor_UC03"><path d="M64.95,686.6669 C77.64,653.3669 100.54,606.5269 136,579.3569 C154.13,565.4669 171.7039,558.6576 193.4339,553.9876 " fill="none" id="professor-to-UC03" style="stroke:#181818;stroke-width:1.0;"/><polygon fill="#181818" points="199.3,552.7269,189.6605,550.7072,194.4116,553.7774,191.3414,558.5286,199.3,552.7269" style="stroke:#181818;stroke-width:1.0;"/></g><!--link coordenador to UC02--><g id="link_coordenador_UC02"><path d="M97.08,1306.5269 C107.21,1309.6169 117.95,1310.6569 128,1307.3569 C301.91,1250.3069 357.89,1214.9169 459,1062.3569 C489.37,1016.5369 473.83,995.1969 489,942.3569 C523.26,823.0569 570.1852,687.2291 586.4952,640.6991 " fill="none" id="coordenador-to-UC02" style="stroke:#181818;stroke-width:1.0;"/><polygon fill="#181818" points="588.48,635.0369,581.728,642.207,586.826,639.7554,589.2777,644.8534,588.48,635.0369" style="stroke:#181818;stroke-width:1.0;"/></g><!--link coordenador to UC03--><g id="link_coordenador_UC03"><path d="M55.89,1241.7569 C68.63,1098.5469 113.99,604.6269 136,579.3569 C150.78,562.3869 167.2172,554.8072 188.9972,550.4372 " fill="none" id="coordenador-to-UC03" style="stroke:#181818;stroke-width:1.0;"/><polygon fill="#181818" points="194.88,549.2569,185.269,547.1055,189.9777,550.2405,186.8428,554.9492,194.88,549.2569" style="stroke:#181818;stroke-width:1.0;"/></g><!--link aluno to UC04--><g id="link_aluno_UC04"><path d="M79.04,329.5069 C94.37,344.7969 114.77,362.7169 136,374.3569 C156.64,385.6769 175.3748,392.2592 197.2948,397.8292 " fill="none" id="aluno-to-UC04" style="stroke:#181818;stroke-width:1.0;"/><polygon fill="#181818" points="203.11,399.3069,195.3723,393.2136,198.264,398.0755,193.4021,400.9672,203.11,399.3069" style="stroke:#181818;stroke-width:1.0;"/></g><!--link aluno to UC05--><g id="link_aluno_UC05"><path d="M60.47,261.7969 C69.89,227.1769 89.32,178.3669 127,155.3569 C252.94,78.4769 319.87,106.1969 459,155.3569 C512.11,174.1269 555.7583,219.0873 577.5283,244.4073 " fill="none" id="aluno-to-UC05" style="stroke:#181818;stroke-width:1.0;"/><polygon fill="#181818" points="581.44,248.9569,578.6055,239.5247,578.1803,245.1656,572.5394,244.7403,581.44,248.9569" style="stroke:#181818;stroke-width:1.0;"/></g><!--link aluno to UC06--><g id="link_aluno_UC06"><path d="M79.23,262.0069 C93.78,244.5669 113.41,225.7569 136,216.3569 C230.38,177.0969 265.34,198.5369 366,216.3569 C409.33,224.0269 424.69,222.7969 459,250.3569 C478.32,265.8769 472.38,278.9769 489,297.3569 C511.28,322.0069 536.5057,341.5889 558.7857,357.0989 " fill="none" id="aluno-to-UC06" style="stroke:#181818;stroke-width:1.0;"/><polygon fill="#181818" points="563.71,360.5269,558.6089,352.102,559.6064,357.6702,554.0382,358.6677,563.71,360.5269" style="stroke:#181818;stroke-width:1.0;"/></g><!--link aluno to UC07--><g id="link_aluno_UC07"><path d="M79.03,294.6569 C108.1,288.4169 149.9739,279.4173 189.3939,270.9473 " fill="none" id="aluno-to-UC07" style="stroke:#181818;stroke-width:1.0;"/><polygon fill="#181818" points="195.26,269.6869,185.6205,267.6668,190.3716,270.7372,187.3011,275.4883,195.26,269.6869" style="stroke:#181818;stroke-width:1.0;"/></g><!--link aluno to UC08--><g id="link_aluno_UC08"><path d="M79.03,304.6669 C104.25,308.7569 137.5874,314.1663 173.2874,319.9563 " fill="none" id="aluno-to-UC08" style="stroke:#181818;stroke-width:1.0;"/><polygon fill="#181818" points="179.21,320.9169,170.9665,315.5276,174.2745,320.1164,169.6857,323.4244,179.21,320.9169" style="stroke:#181818;stroke-width:1.0;"/></g><!--link professor to UC09--><g id="link_professor_UC09"><path d="M84.69,695.4169 C99.45,682.9069 117.72,669.0669 136,659.3569 C154.65,649.4569 170.4356,643.2724 190.3456,637.1424 " fill="none" id="professor-to-UC09" style="stroke:#181818;stroke-width:1.0;"/><polygon fill="#181818" points="196.08,635.3769,186.3014,634.2023,191.3014,636.8481,188.6555,641.8481,196.08,635.3769" style="stroke:#181818;stroke-width:1.0;"/></g><!--link professor to UC10--><g id="link_professor_UC10"><path d="M84.78,720.2769 C117.72,715.0869 163.4829,707.8696 202.5629,701.7196 " fill="none" id="professor-to-UC10" style="stroke:#181818;stroke-width:1.0;"/><polygon fill="#181818" points="208.49,700.7869,198.9776,698.2346,203.5508,701.5642,200.2212,706.1374,208.49,700.7869" style="stroke:#181818;stroke-width:1.0;"/></g><!--link professor to UC11--><g id="link_professor_UC11"><path d="M84.78,730.4369 C117.49,735.5969 162.7631,742.7233 201.7431,748.8633 " fill="none" id="professor-to-UC11" style="stroke:#181818;stroke-width:1.0;"/><polygon fill="#181818" points="207.67,749.7969,199.402,744.4452,202.7309,749.0189,198.1572,752.3478,207.67,749.7969" style="stroke:#181818;stroke-width:1.0;"/></g><!--link professor to UC12--><g id="link_professor_UC12"><path d="M54.44,764.1769 C59.96,856.7069 79.2,1086.0269 136,1132.3569 C272.39,1243.6069 489.6229,1075.0946 564.1329,1010.2846 " fill="none" id="professor-to-UC12" style="stroke:#181818;stroke-width:1.0;"/><polygon fill="#181818" points="568.66,1006.3469,559.2442,1009.2354,564.8874,1009.6283,564.4945,1015.2715,568.66,1006.3469" style="stroke:#181818;stroke-width:1.0;"/></g><!--link professor to UC13--><g id="link_professor_UC13"><path d="M84.55,755.5569 C99.3,768.1069 117.58,781.9169 136,791.3569 C156.45,801.8369 174.5654,808.1282 196.0454,813.7482 " fill="none" id="professor-to-UC13" style="stroke:#181818;stroke-width:1.0;"/><polygon fill="#181818" points="201.85,815.2669,194.1556,809.1191,197.0128,814.0013,192.1306,816.8585,201.85,815.2669" style="stroke:#181818;stroke-width:1.0;"/></g><!--link coordenador to UC14--><g id="link_coordenador_UC14"><path d="M97.31,1253.3169 C109.46,1243.5969 121.14,1231.4869 128,1217.3569 C141.69,1189.1569 116.77,960.1069 136,935.3569 C148.28,919.5469 161.2206,911.9225 180.5106,906.6725 " fill="none" id="coordenador-to-UC14" style="stroke:#181818;stroke-width:1.0;"/><polygon fill="#181818" points="186.3,905.0969,176.5654,903.6008,181.4755,906.4099,178.6663,911.32,186.3,905.0969" style="stroke:#181818;stroke-width:1.0;"/></g><!--link coordenador to UC15--><g id="link_coordenador_UC15"><path d="M97.07,1276.8469 C108.9,1273.6669 120.47,1268.0669 128,1258.3569 C144.83,1236.6569 119.27,1033.1269 136,1011.3569 C147,997.0469 157.5202,989.8512 174.6702,984.1112 " fill="none" id="coordenador-to-UC15" style="stroke:#181818;stroke-width:1.0;"/><polygon fill="#181818" points="180.36,982.2069,170.5558,981.2702,175.6185,983.7938,173.0949,988.8566,180.36,982.2069" style="stroke:#181818;stroke-width:1.0;"/></g><!--link coordenador to UC16--><g id="link_coordenador_UC16"><path d="M97.35,1302.8569 C107.89,1305.1669 118.74,1304.9369 128,1299.3569 C217,1245.7869 248.8626,1116.95 257.9826,1069.28 " fill="none" id="coordenador-to-UC16" style="stroke:#181818;stroke-width:1.0;"/><polygon fill="#181818" points="259.11,1063.3869,253.4901,1071.4749,258.1705,1068.2978,261.3476,1072.9782,259.11,1063.3869" style="stroke:#181818;stroke-width:1.0;"/></g><!--link UC04 to UC05--><g id="link_UC04_UC05"><path d="M307.23,396.0069 C325.5,389.7069 346.92,382.0169 366,374.3569 C440.84,344.3169 520.2378,303.6352 562.2078,281.4052 " fill="none" id="UC04-to-UC05" style="stroke:#181818;stroke-width:1.0;stroke-dasharray:7.0,7.0;"/><polygon fill="#181818" points="567.51,278.5969,557.6845,279.2746,563.0915,280.9372,561.429,286.3442,567.51,278.5969" style="stroke:#181818;stroke-width:1.0;"/><text fill="#000000" font-family="sans-serif" font-size="13" lengthAdjust="spacing" textLength="60" x="397.5" y="331.4238">&#171;extend&#187;</text></g><!--link UC04 to UC06--><g id="link_UC04_UC06"><path d="M338.18,407.0369 C374.62,405.0869 419.16,402.2369 459,398.3569 C477.59,396.5469 491.611,394.9178 510.351,392.4578 " fill="none" id="UC04-to-UC06" style="stroke:#181818;stroke-width:1.0;stroke-dasharray:7.0,7.0;"/><polygon fill="#181818" points="516.3,391.6769,506.8559,388.8823,511.3425,392.3276,507.8972,396.8142,516.3,391.6769" style="stroke:#181818;stroke-width:1.0;"/><text fill="#000000" font-family="sans-serif" font-size="13" lengthAdjust="spacing" textLength="60" x="397.5" y="394.4238">&#171;extend&#187;</text></g><!--link UC07 to UC02--><g id="link_UC07_UC02"><path d="M351.31,261.6469 C388.93,268.6569 430.7,282.8769 459,311.3569 C493.81,346.3869 470.8,372.4469 489,418.3569 C517.65,490.6469 561.482,565.8946 581.442,598.8546 " fill="none" id="UC07-to-UC02" style="stroke:#181818;stroke-width:1.0;stroke-dasharray:7.0,7.0;"/><polygon fill="#181818" points="584.55,603.9869,583.3095,594.2165,581.96,599.71,576.4665,598.3605,584.55,603.9869" style="stroke:#181818;stroke-width:1.0;"/><text fill="#000000" font-family="sans-serif" font-size="13" lengthAdjust="spacing" textLength="61" x="397" y="271.4238">&#171;include&#187;</text></g><!--link UC09 to UC02--><g id="link_UC09_UC02"><path d="M360.78,619.3569 C415.27,619.3569 475.8,619.3569 523.84,619.3569 " fill="none" id="UC09-to-UC02" style="stroke:#181818;stroke-width:1.0;stroke-dasharray:7.0,7.0;"/><polygon fill="#181818" points="529.84,619.3569,520.84,615.3569,524.84,619.3569,520.84,623.3569,529.84,619.3569" style="stroke:#181818;stroke-width:1.0;"/><text fill="#000000" font-family="sans-serif" font-size="13" lengthAdjust="spacing" textLength="61" x="397" y="615.4238">&#171;include&#187;</text></g><!--link UC13 to UC12--><g id="link_UC13_UC12"><path d="M310.76,842.2669 C328.3,848.2769 348.28,855.6169 366,863.3569 C435.07,893.5269 506.7831,932.9856 551.3031,958.4756 " fill="none" id="UC13-to-UC12" style="stroke:#181818;stroke-width:1.0;stroke-dasharray:7.0,7.0;"/><polygon fill="#181818" points="556.51,961.4569,550.6871,953.5137,552.1709,958.9725,546.7121,960.4563,556.51,961.4569" style="stroke:#181818;stroke-width:1.0;"/><text fill="#000000" font-family="sans-serif" font-size="13" lengthAdjust="spacing" textLength="61" x="397" y="874.4238">&#171;include&#187;</text></g><!--SRC=[TLHBRjim4Dtp50DlsYuSHFx6HM30iDrkQg1eaEm7qiGcgf06IQLfYjwbG1SzGK_WYsL4MROeoe0NcdblPjvyQFjTgZqQV09CdJPtxcTEW3_8wYSIEJqwS1gCtEuSPD9GwgHMGZZfcBQIkEL8X8nWYLRRykFUQkZ3dRIEAcIZbUJC4eLu1ml-8YjyBUWjyaBf7g05BBzgzrUZ7ybQRJoqhwqQNcfjCbAO7GdfsIvBd9GKNicYSAISJF7mx_1NYx85L5jMt-lIs8DV0ZYIKhHCMMA6rXaqVKk-rltoEcaIFk4h6VYYjrBL-A0JruMh2KCcy2zMwcVG27wGji1SlgA11zoYhHECWWeoBmM6Z76GXXMio66-8ww6dbaJ9s6tAfCPEjyk7Fu4p6axvKQg7KDrK67EvMykT7XQR52Lnrx9RssYoZLhSjUPT4Vo4K-k0_mbpGiP4fAsyARYrZoIO7aRD2bNMojdw9cFvSIwjC76PJRpV2P3AYsxN1Q60-eqesxIIjfKxdEfJWDDWdqk-4KyjpQUJCJlylY_KLuU-d_UTFlquRtJ6Qlb7_fN-47uLmVz_howwy0SXEPGYDD3F4T4ha7iuiZ62pqJEvp3k8NgVw6fP1IQuz2SXEOqD6-Y0kUJZ8JF8XSVM-IAXv34GqZYpfgt4e-2RwF3EUvoJihKwnTUjVMf2QJYL-0DKSuBhgwgIS57kBsbafdDvm4qYQ1f3Gqyv5DcL66porWoF6996ti3]--></g></svg>