<?xml version="1.0" encoding="us-ascii" standalone="no"?><svg xmlns="http://www.w3.org/2000/svg" xmlns:xlink="http://www.w3.org/1999/xlink" contentStyleType="text/css" height="1717px" preserveAspectRatio="none" style="width:820px;height:1717px;background:#FFFFFF;" version="1.1" viewBox="0 0 820 1717" width="820px" zoomAndPan="magnify"><defs/><g><text fill="#000000" font-family="sans-serif" font-size="14" font-weight="bold" lengthAdjust="spacing" textLength="335" x="238.5" y="27.9951">Diagrama de Sequ&#234;ncia - Cadastro e Login</text><rect fill="none" height="325.5313" style="stroke:#000000;stroke-width:1.5;" width="783" x="20" y="546.9844"/><rect fill="none" height="485.6719" style="stroke:#000000;stroke-width:1.5;" width="793" x="10" y="1133.7109"/><rect fill="none" height="134.1406" style="stroke:#000000;stroke-width:1.5;" width="292" x="20" y="1390.0391"/><line style="stroke:#181818;stroke-width:0.5;stroke-dasharray:5.0,5.0;" x1="52" x2="52" y1="118.5938" y2="1636.3828"/><line style="stroke:#181818;stroke-width:0.5;stroke-dasharray:5.0,5.0;" x1="263" x2="263" y1="118.5938" y2="1636.3828"/><line style="stroke:#181818;stroke-width:0.5;stroke-dasharray:5.0,5.0;" x1="496.5" x2="496.5" y1="118.5938" y2="1636.3828"/><line style="stroke:#181818;stroke-width:0.5;stroke-dasharray:5.0,5.0;" x1="732" x2="732" y1="118.5938" y2="1636.3828"/><text fill="#000000" font-family="sans-serif" font-size="14" lengthAdjust="spacing" textLength="39" x="30" y="115.292">Aluno</text><ellipse cx="52.5" cy="50.7969" fill="#E2E2F0" rx="8" ry="8" style="stroke:#181818;stroke-width:0.5;"/><path d="M52.5,58.7969 L52.5,85.7969 M39.5,66.7969 L65.5,66.7969 M52.5,85.7969 L39.5,100.7969 M52.5,85.7969 L65.5,100.7969 " fill="none" style="stroke:#181818;stroke-width:0.5;"/><text fill="#000000" font-family="sans-serif" font-size="14" lengthAdjust="spacing" textLength="39" x="30" y="1648.3779">Aluno</text><ellipse cx="52.5" cy="1660.1797" fill="#E2E2F0" rx="8" ry="8" style="stroke:#181818;stroke-width:0.5;"/><path d="M52.5,1668.1797 L52.5,1695.1797 M39.5,1676.1797 L65.5,1676.1797 M52.5,1695.1797 L39.5,1710.1797 M52.5,1695.1797 L65.5,1710.1797 " fill="none" style="stroke:#181818;stroke-width:0.5;"/><rect fill="#E2E2F0" height="46.5938" rx="2.5" ry="2.5" style="stroke:#181818;stroke-width:0.5;" width="77" x="225" y="71"/><text fill="#000000" font-family="sans-serif" font-size="14" lengthAdjust="spacing" textLength="63" x="232" y="90.9951">Frontend</text><text fill="#000000" font-family="sans-serif" font-size="14" lengthAdjust="spacing" textLength="50" x="238.5" y="107.292">(React)</text><rect fill="#E2E2F0" height="46.5938" rx="2.5" ry="2.5" style="stroke:#181818;stroke-width:0.5;" width="77" x="225" y="1635.3828"/><text fill="#000000" font-family="sans-serif" font-size="14" lengthAdjust="spacing" textLength="63" x="232" y="1655.3779">Frontend</text><text fill="#000000" font-family="sans-serif" font-size="14" lengthAdjust="spacing" textLength="50" x="238.5" y="1671.6748">(React)</text><rect fill="#E2E2F0" height="46.5938" rx="2.5" ry="2.5" style="stroke:#181818;stroke-width:0.5;" width="98" x="447.5" y="71"/><text fill="#000000" font-family="sans-serif" font-size="14" lengthAdjust="spacing" textLength="61" x="466" y="90.9951">Backend</text><text fill="#000000" font-family="sans-serif" font-size="14" lengthAdjust="spacing" textLength="84" x="454.5" y="107.292">(Django API)</text><rect fill="#E2E2F0" height="46.5938" rx="2.5" ry="2.5" style="stroke:#181818;stroke-width:0.5;" width="98" x="447.5" y="1635.3828"/><text fill="#000000" font-family="sans-serif" font-size="14" lengthAdjust="spacing" textLength="61" x="466" y="1655.3779">Backend</text><text fill="#000000" font-family="sans-serif" font-size="14" lengthAdjust="spacing" textLength="84" x="454.5" y="1671.6748">(Django API)</text><text fill="#000000" font-family="sans-serif" font-size="14" lengthAdjust="spacing" textLength="115" x="672" y="115.292">Banco de Dados</text><path d="M714.5,66.2969 C714.5,56.2969 732.5,56.2969 732.5,56.2969 C732.5,56.2969 750.5,56.2969 750.5,66.2969 L750.5,92.2969 C750.5,102.2969 732.5,102.2969 732.5,102.2969 C732.5,102.2969 714.5,102.2969 714.5,92.2969 L714.5,66.2969 " fill="#E2E2F0" style="stroke:#181818;stroke-width:1.5;"/><path d="M714.5,66.2969 C714.5,76.2969 732.5,76.2969 732.5,76.2969 C732.5,76.2969 750.5,76.2969 750.5,66.2969 " fill="none" style="stroke:#181818;stroke-width:1.5;"/><text fill="#000000" font-family="sans-serif" font-size="14" lengthAdjust="spacing" textLength="115" x="672" y="1648.3779">Banco de Dados</text><path d="M714.5,1661.6797 C714.5,1651.6797 732.5,1651.6797 732.5,1651.6797 C732.5,1651.6797 750.5,1651.6797 750.5,1661.6797 L750.5,1687.6797 C750.5,1697.6797 732.5,1697.6797 732.5,1697.6797 C732.5,1697.6797 714.5,1697.6797 714.5,1687.6797 L714.5,1661.6797 " fill="#E2E2F0" style="stroke:#181818;stroke-width:1.5;"/><path d="M714.5,1661.6797 C714.5,1671.6797 732.5,1671.6797 732.5,1671.6797 C732.5,1671.6797 750.5,1671.6797 750.5,1661.6797 " fill="none" style="stroke:#181818;stroke-width:1.5;"/><rect fill="#EEEEEE" height="3" style="stroke:#EEEEEE;stroke-width:1.0;" width="813" x="0" y="149.1602"/><line style="stroke:#000000;stroke-width:1.0;" x1="0" x2="813" y1="149.1602" y2="149.1602"/><line style="stroke:#000000;stroke-width:1.0;" x1="0" x2="813" y1="152.1602" y2="152.1602"/><rect fill="#EEEEEE" height="23.1328" style="stroke:#000000;stroke-width:2.0;" width="154" x="329.5" y="138.5938"/><text fill="#000000" font-family="sans-serif" font-size="13" font-weight="bold" lengthAdjust="spacing" textLength="135" x="335.5" y="154.6606">Fluxo de Cadastro</text><polygon fill="#181818" points="251.5,188.8594,261.5,192.8594,251.5,196.8594,255.5,192.8594" style="stroke:#181818;stroke-width:1.0;"/><line style="stroke:#181818;stroke-width:1.0;" x1="52.5" x2="257.5" y1="192.8594" y2="192.8594"/><text fill="#000000" font-family="sans-serif" font-size="13" lengthAdjust="spacing" textLength="84" x="59.5" y="187.7935">Acessa /login</text><polygon fill="#181818" points="63.5,233.125,53.5,237.125,63.5,241.125,59.5,237.125" style="stroke:#181818;stroke-width:1.0;"/><line style="stroke:#181818;stroke-width:1.0;" x1="57.5" x2="262.5" y1="237.125" y2="237.125"/><text fill="#000000" font-family="sans-serif" font-size="13" lengthAdjust="spacing" textLength="88" x="69.5" y="216.9263">Exibe op&#231;&#245;es:</text><text fill="#000000" font-family="sans-serif" font-size="13" lengthAdjust="spacing" textLength="104" x="69.5" y="232.0591">Login | Cadastro</text><polygon fill="#181818" points="251.5,262.2578,261.5,266.2578,251.5,270.2578,255.5,266.2578" style="stroke:#181818;stroke-width:1.0;"/><line style="stroke:#181818;stroke-width:1.0;" x1="52.5" x2="257.5" y1="266.2578" y2="266.2578"/><text fill="#000000" font-family="sans-serif" font-size="13" lengthAdjust="spacing" textLength="132" x="59.5" y="261.1919">Clica em "Cadastrar"</text><polygon fill="#181818" points="63.5,291.3906,53.5,295.3906,63.5,299.3906,59.5,295.3906" style="stroke:#181818;stroke-width:1.0;"/><line style="stroke:#181818;stroke-width:1.0;" x1="57.5" x2="262.5" y1="295.3906" y2="295.3906"/><text fill="#000000" font-family="sans-serif" font-size="13" lengthAdjust="spacing" textLength="103" x="69.5" y="290.3247">Exibe formul&#225;rio</text><polygon fill="#181818" points="251.5,411.3203,261.5,415.3203,251.5,419.3203,255.5,415.3203" style="stroke:#181818;stroke-width:1.0;"/><line style="stroke:#181818;stroke-width:1.0;" x1="52.5" x2="257.5" y1="415.3203" y2="415.3203"/><text fill="#000000" font-family="sans-serif" font-size="13" lengthAdjust="spacing" textLength="107" x="59.5" y="319.4575">Preenche dados:</text><text fill="#000000" font-family="sans-serif" font-size="13" lengthAdjust="spacing" textLength="48" x="59.5" y="334.5903">- Nome</text><text fill="#000000" font-family="sans-serif" font-size="13" lengthAdjust="spacing" textLength="124" x="59.5" y="349.7231">- Email institucional</text><text fill="#000000" font-family="sans-serif" font-size="13" lengthAdjust="spacing" textLength="50" x="59.5" y="364.856">- Senha</text><text fill="#000000" font-family="sans-serif" font-size="13" lengthAdjust="spacing" textLength="149" x="59.5" y="379.9888">- Tipo (Aluno/Professor)</text><text fill="#000000" font-family="sans-serif" font-size="13" lengthAdjust="spacing" textLength="165" x="59.5" y="395.1216">- Matr&#237;cula/Departamento</text><text fill="#000000" font-family="sans-serif" font-size="13" lengthAdjust="spacing" textLength="46" x="59.5" y="410.2544">- Curso</text><polygon fill="#181818" points="484.5,470.7188,494.5,474.7188,484.5,478.7188,488.5,474.7188" style="stroke:#181818;stroke-width:1.0;"/><line style="stroke:#181818;stroke-width:1.0;" x1="263.5" x2="490.5" y1="474.7188" y2="474.7188"/><text fill="#000000" font-family="sans-serif" font-size="13" lengthAdjust="spacing" textLength="158" x="270.5" y="439.3872">POST /api/auth/cadastro/</text><text fill="#000000" font-family="sans-serif" font-size="13" lengthAdjust="spacing" textLength="139" x="270.5" y="454.52">{nome, email, senha,</text><text fill="#000000" font-family="sans-serif" font-size="13" lengthAdjust="spacing" textLength="197" x="270.5" y="469.6528">tipo_usuario, matricula, curso}</text><line style="stroke:#181818;stroke-width:1.0;" x1="496.5" x2="538.5" y1="518.9844" y2="518.9844"/><line style="stroke:#181818;stroke-width:1.0;" x1="538.5" x2="538.5" y1="518.9844" y2="531.9844"/><line style="stroke:#181818;stroke-width:1.0;" x1="497.5" x2="538.5" y1="531.9844" y2="531.9844"/><polygon fill="#181818" points="507.5,527.9844,497.5,531.9844,507.5,535.9844,503.5,531.9844" style="stroke:#181818;stroke-width:1.0;"/><text fill="#000000" font-family="sans-serif" font-size="13" lengthAdjust="spacing" textLength="82" x="503.5" y="498.7856">Valida dados</text><text fill="#000000" font-family="sans-serif" font-size="13" lengthAdjust="spacing" textLength="222" x="503.5" y="513.9185">(email &#250;nico, campos obrigat&#243;rios)</text><path d="M20,546.9844 L84,546.9844 L84,554.1172 L74,564.1172 L20,564.1172 L20,546.9844 " fill="#EEEEEE" style="stroke:#000000;stroke-width:1.5;"/><rect fill="none" height="325.5313" style="stroke:#000000;stroke-width:1.5;" width="783" x="20" y="546.9844"/><text fill="#000000" font-family="sans-serif" font-size="13" font-weight="bold" lengthAdjust="spacing" textLength="19" x="35" y="560.0513">alt</text><text fill="#000000" font-family="sans-serif" font-size="11" font-weight="bold" lengthAdjust="spacing" textLength="100" x="99" y="559.1948">[Dados v&#225;lidos]</text><polygon fill="#181818" points="720.5,581.25,730.5,585.25,720.5,589.25,724.5,585.25" style="stroke:#181818;stroke-width:1.0;"/><line style="stroke:#181818;stroke-width:1.0;" x1="496.5" x2="726.5" y1="585.25" y2="585.25"/><text fill="#000000" font-family="sans-serif" font-size="13" lengthAdjust="spacing" textLength="78" x="503.5" y="580.1841">Cria Usuario</text><polygon fill="#181818" points="507.5,610.3828,497.5,614.3828,507.5,618.3828,503.5,614.3828" style="stroke:#181818;stroke-width:1.0;"/><line style="stroke:#181818;stroke-width:1.0;stroke-dasharray:2.0,2.0;" x1="501.5" x2="731.5" y1="614.3828" y2="614.3828"/><text fill="#000000" font-family="sans-serif" font-size="13" lengthAdjust="spacing" textLength="92" x="513.5" y="609.3169">Usuario criado</text><polygon fill="#181818" points="720.5,654.6484,730.5,658.6484,720.5,662.6484,724.5,658.6484" style="stroke:#181818;stroke-width:1.0;"/><line style="stroke:#181818;stroke-width:1.0;" x1="496.5" x2="726.5" y1="658.6484" y2="658.6484"/><text fill="#000000" font-family="sans-serif" font-size="13" lengthAdjust="spacing" textLength="60" x="503.5" y="638.4497">Cria perfil</text><text fill="#000000" font-family="sans-serif" font-size="13" lengthAdjust="spacing" textLength="130" x="503.5" y="653.5825">(Aluno ou Professor)</text><polygon fill="#181818" points="507.5,683.7813,497.5,687.7813,507.5,691.7813,503.5,687.7813" style="stroke:#181818;stroke-width:1.0;"/><line style="stroke:#181818;stroke-width:1.0;stroke-dasharray:2.0,2.0;" x1="501.5" x2="731.5" y1="687.7813" y2="687.7813"/><text fill="#000000" font-family="sans-serif" font-size="13" lengthAdjust="spacing" textLength="74" x="513.5" y="682.7153">Perfil criado</text><polygon fill="#181818" points="274.5,728.0469,264.5,732.0469,274.5,736.0469,270.5,732.0469" style="stroke:#181818;stroke-width:1.0;"/><line style="stroke:#181818;stroke-width:1.0;stroke-dasharray:2.0,2.0;" x1="268.5" x2="495.5" y1="732.0469" y2="732.0469"/><text fill="#000000" font-family="sans-serif" font-size="13" lengthAdjust="spacing" textLength="79" x="280.5" y="711.8481">201 Created</text><text fill="#000000" font-family="sans-serif" font-size="13" lengthAdjust="spacing" textLength="209" x="280.5" y="726.981">{sucesso, tipo_usuario, usuario}</text><polygon fill="#181818" points="63.5,772.3125,53.5,776.3125,63.5,780.3125,59.5,776.3125" style="stroke:#181818;stroke-width:1.0;"/><line style="stroke:#181818;stroke-width:1.0;" x1="57.5" x2="262.5" y1="776.3125" y2="776.3125"/><text fill="#000000" font-family="sans-serif" font-size="13" lengthAdjust="spacing" textLength="187" x="69.5" y="756.1138">Exibe mensagem de sucesso</text><text fill="#000000" font-family="sans-serif" font-size="13" lengthAdjust="spacing" textLength="150" x="69.5" y="771.2466">e redireciona para login</text><line style="stroke:#000000;stroke-width:1.0;stroke-dasharray:2.0,2.0;" x1="20" x2="803" y1="785.3125" y2="785.3125"/><text fill="#000000" font-family="sans-serif" font-size="11" font-weight="bold" lengthAdjust="spacing" textLength="104" x="25" y="795.5229">[Email j&#225; existe]</text><polygon fill="#181818" points="274.5,831.3828,264.5,835.3828,274.5,839.3828,270.5,835.3828" style="stroke:#181818;stroke-width:1.0;"/><line style="stroke:#181818;stroke-width:1.0;stroke-dasharray:2.0,2.0;" x1="268.5" x2="495.5" y1="835.3828" y2="835.3828"/><text fill="#000000" font-family="sans-serif" font-size="13" lengthAdjust="spacing" textLength="109" x="280.5" y="815.1841">400 Bad Request</text><text fill="#000000" font-family="sans-serif" font-size="13" lengthAdjust="spacing" textLength="186" x="280.5" y="830.3169">{erro: "Email j&#225; cadastrado"}</text><polygon fill="#181818" points="63.5,860.5156,53.5,864.5156,63.5,868.5156,59.5,864.5156" style="stroke:#181818;stroke-width:1.0;"/><line style="stroke:#181818;stroke-width:1.0;" x1="57.5" x2="262.5" y1="864.5156" y2="864.5156"/><text fill="#000000" font-family="sans-serif" font-size="13" lengthAdjust="spacing" textLength="64" x="69.5" y="859.4497">Exibe erro</text><rect fill="#EEEEEE" height="3" style="stroke:#EEEEEE;stroke-width:1.0;" width="813" x="0" y="900.082"/><line style="stroke:#000000;stroke-width:1.0;" x1="0" x2="813" y1="900.082" y2="900.082"/><line style="stroke:#000000;stroke-width:1.0;" x1="0" x2="813" y1="903.082" y2="903.082"/><rect fill="#EEEEEE" height="23.1328" style="stroke:#000000;stroke-width:2.0;" width="127" x="343" y="889.5156"/><text fill="#000000" font-family="sans-serif" font-size="13" font-weight="bold" lengthAdjust="spacing" textLength="108" x="349" y="905.5825">Fluxo de Login</text><polygon fill="#181818" points="251.5,954.9141,261.5,958.9141,251.5,962.9141,255.5,958.9141" style="stroke:#181818;stroke-width:1.0;"/><line style="stroke:#181818;stroke-width:1.0;" x1="52.5" x2="257.5" y1="958.9141" y2="958.9141"/><text fill="#000000" font-family="sans-serif" font-size="13" lengthAdjust="spacing" textLength="136" x="59.5" y="938.7153">Preenche credenciais</text><text fill="#000000" font-family="sans-serif" font-size="13" lengthAdjust="spacing" textLength="100" x="59.5" y="953.8481">(email e senha)</text><polygon fill="#181818" points="484.5,999.1797,494.5,1003.1797,484.5,1007.1797,488.5,1003.1797" style="stroke:#181818;stroke-width:1.0;"/><line style="stroke:#181818;stroke-width:1.0;" x1="263.5" x2="490.5" y1="1003.1797" y2="1003.1797"/><text fill="#000000" font-family="sans-serif" font-size="13" lengthAdjust="spacing" textLength="132" x="270.5" y="982.981">POST /api/auth/login/</text><text fill="#000000" font-family="sans-serif" font-size="13" lengthAdjust="spacing" textLength="98" x="270.5" y="998.1138">{email, senha}</text><polygon fill="#181818" points="720.5,1028.3125,730.5,1032.3125,720.5,1036.3125,724.5,1032.3125" style="stroke:#181818;stroke-width:1.0;"/><line style="stroke:#181818;stroke-width:1.0;" x1="496.5" x2="726.5" y1="1032.3125" y2="1032.3125"/><text fill="#000000" font-family="sans-serif" font-size="13" lengthAdjust="spacing" textLength="154" x="503.5" y="1027.2466">Busca usu&#225;rio por email</text><polygon fill="#181818" points="507.5,1057.4453,497.5,1061.4453,507.5,1065.4453,503.5,1061.4453" style="stroke:#181818;stroke-width:1.0;"/><line style="stroke:#181818;stroke-width:1.0;stroke-dasharray:2.0,2.0;" x1="501.5" x2="731.5" y1="1061.4453" y2="1061.4453"/><text fill="#000000" font-family="sans-serif" font-size="13" lengthAdjust="spacing" textLength="126" x="513.5" y="1056.3794">Usuario encontrado</text><line style="stroke:#181818;stroke-width:1.0;" x1="496.5" x2="538.5" y1="1105.7109" y2="1105.7109"/><line style="stroke:#181818;stroke-width:1.0;" x1="538.5" x2="538.5" y1="1105.7109" y2="1118.7109"/><line style="stroke:#181818;stroke-width:1.0;" x1="497.5" x2="538.5" y1="1118.7109" y2="1118.7109"/><polygon fill="#181818" points="507.5,1114.7109,497.5,1118.7109,507.5,1122.7109,503.5,1118.7109" style="stroke:#181818;stroke-width:1.0;"/><text fill="#000000" font-family="sans-serif" font-size="13" lengthAdjust="spacing" textLength="82" x="503.5" y="1085.5122">Valida senha</text><text fill="#000000" font-family="sans-serif" font-size="13" lengthAdjust="spacing" textLength="91" x="503.5" y="1100.645">(authenticate)</text><path d="M10,1133.7109 L74,1133.7109 L74,1140.8438 L64,1150.8438 L10,1150.8438 L10,1133.7109 " fill="#EEEEEE" style="stroke:#000000;stroke-width:1.5;"/><rect fill="none" height="485.6719" style="stroke:#000000;stroke-width:1.5;" width="793" x="10" y="1133.7109"/><text fill="#000000" font-family="sans-serif" font-size="13" font-weight="bold" lengthAdjust="spacing" textLength="19" x="25" y="1146.7778">alt</text><text fill="#000000" font-family="sans-serif" font-size="11" font-weight="bold" lengthAdjust="spacing" textLength="136" x="89" y="1145.9214">[Credenciais v&#225;lidas]</text><line style="stroke:#181818;stroke-width:1.0;" x1="496.5" x2="538.5" y1="1171.9766" y2="1171.9766"/><line style="stroke:#181818;stroke-width:1.0;" x1="538.5" x2="538.5" y1="1171.9766" y2="1184.9766"/><line style="stroke:#181818;stroke-width:1.0;" x1="497.5" x2="538.5" y1="1184.9766" y2="1184.9766"/><polygon fill="#181818" points="507.5,1180.9766,497.5,1184.9766,507.5,1188.9766,503.5,1184.9766" style="stroke:#181818;stroke-width:1.0;"/><text fill="#000000" font-family="sans-serif" font-size="13" lengthAdjust="spacing" textLength="118" x="503.5" y="1166.9106">Cria sess&#227;o (login)</text><polygon fill="#181818" points="720.5,1225.2422,730.5,1229.2422,720.5,1233.2422,724.5,1229.2422" style="stroke:#181818;stroke-width:1.0;"/><line style="stroke:#181818;stroke-width:1.0;" x1="496.5" x2="726.5" y1="1229.2422" y2="1229.2422"/><text fill="#000000" font-family="sans-serif" font-size="13" lengthAdjust="spacing" textLength="74" x="503.5" y="1209.0435">Busca perfil</text><text fill="#000000" font-family="sans-serif" font-size="13" lengthAdjust="spacing" textLength="197" x="503.5" y="1224.1763">(Aluno/Professor/Coordenador)</text><polygon fill="#181818" points="507.5,1254.375,497.5,1258.375,507.5,1262.375,503.5,1258.375" style="stroke:#181818;stroke-width:1.0;"/><line style="stroke:#181818;stroke-width:1.0;stroke-dasharray:2.0,2.0;" x1="501.5" x2="731.5" y1="1258.375" y2="1258.375"/><text fill="#000000" font-family="sans-serif" font-size="13" lengthAdjust="spacing" textLength="108" x="513.5" y="1253.3091">Perfil encontrado</text><polygon fill="#181818" points="274.5,1313.7734,264.5,1317.7734,274.5,1321.7734,270.5,1317.7734" style="stroke:#181818;stroke-width:1.0;"/><line style="stroke:#181818;stroke-width:1.0;stroke-dasharray:2.0,2.0;" x1="268.5" x2="495.5" y1="1317.7734" y2="1317.7734"/><text fill="#000000" font-family="sans-serif" font-size="13" lengthAdjust="spacing" textLength="46" x="280.5" y="1282.4419">200 OK</text><text fill="#000000" font-family="sans-serif" font-size="13" lengthAdjust="spacing" textLength="150" x="280.5" y="1297.5747">{sucesso, tipo_usuario,</text><text fill="#000000" font-family="sans-serif" font-size="13" lengthAdjust="spacing" textLength="94" x="280.5" y="1312.7075">usuario, perfil}</text><line style="stroke:#181818;stroke-width:1.0;" x1="263.5" x2="305.5" y1="1362.0391" y2="1362.0391"/><line style="stroke:#181818;stroke-width:1.0;" x1="305.5" x2="305.5" y1="1362.0391" y2="1375.0391"/><line style="stroke:#181818;stroke-width:1.0;" x1="264.5" x2="305.5" y1="1375.0391" y2="1375.0391"/><polygon fill="#181818" points="274.5,1371.0391,264.5,1375.0391,274.5,1379.0391,270.5,1375.0391" style="stroke:#181818;stroke-width:1.0;"/><text fill="#000000" font-family="sans-serif" font-size="13" lengthAdjust="spacing" textLength="109" x="270.5" y="1341.8403">Armazena dados</text><text fill="#000000" font-family="sans-serif" font-size="13" lengthAdjust="spacing" textLength="67" x="270.5" y="1356.9731">do usu&#225;rio</text><path d="M20,1390.0391 L84,1390.0391 L84,1397.1719 L74,1407.1719 L20,1407.1719 L20,1390.0391 " fill="#EEEEEE" style="stroke:#000000;stroke-width:1.5;"/><rect fill="none" height="134.1406" style="stroke:#000000;stroke-width:1.5;" width="292" x="20" y="1390.0391"/><text fill="#000000" font-family="sans-serif" font-size="13" font-weight="bold" lengthAdjust="spacing" textLength="19" x="35" y="1403.106">alt</text><text fill="#000000" font-family="sans-serif" font-size="11" font-weight="bold" lengthAdjust="spacing" textLength="163" x="99" y="1402.2495">[tipo_usuario == "aluno"]</text><polygon fill="#181818" points="63.5,1424.3047,53.5,1428.3047,63.5,1432.3047,59.5,1428.3047" style="stroke:#181818;stroke-width:1.0;"/><line style="stroke:#181818;stroke-width:1.0;" x1="57.5" x2="262.5" y1="1428.3047" y2="1428.3047"/><text fill="#000000" font-family="sans-serif" font-size="13" lengthAdjust="spacing" textLength="150" x="69.5" y="1423.2388">Redireciona para /aluno</text><line style="stroke:#000000;stroke-width:1.0;stroke-dasharray:2.0,2.0;" x1="20" x2="312" y1="1437.3047" y2="1437.3047"/><text fill="#000000" font-family="sans-serif" font-size="11" font-weight="bold" lengthAdjust="spacing" textLength="188" x="25" y="1447.5151">[tipo_usuario == "professor"]</text><polygon fill="#181818" points="63.5,1468.2422,53.5,1472.2422,63.5,1476.2422,59.5,1472.2422" style="stroke:#181818;stroke-width:1.0;"/><line style="stroke:#181818;stroke-width:1.0;" x1="57.5" x2="262.5" y1="1472.2422" y2="1472.2422"/><text fill="#000000" font-family="sans-serif" font-size="13" lengthAdjust="spacing" textLength="175" x="69.5" y="1467.1763">Redireciona para /professor</text><line style="stroke:#000000;stroke-width:1.0;stroke-dasharray:2.0,2.0;" x1="20" x2="312" y1="1481.2422" y2="1481.2422"/><text fill="#000000" font-family="sans-serif" font-size="11" font-weight="bold" lengthAdjust="spacing" textLength="208" x="25" y="1491.4526">[tipo_usuario == "coordenador"]</text><polygon fill="#181818" points="63.5,1512.1797,53.5,1516.1797,63.5,1520.1797,59.5,1516.1797" style="stroke:#181818;stroke-width:1.0;"/><line style="stroke:#181818;stroke-width:1.0;" x1="57.5" x2="262.5" y1="1516.1797" y2="1516.1797"/><text fill="#000000" font-family="sans-serif" font-size="13" lengthAdjust="spacing" textLength="155" x="69.5" y="1511.1138">Redireciona para /admin</text><line style="stroke:#000000;stroke-width:1.0;stroke-dasharray:2.0,2.0;" x1="10" x2="803" y1="1532.1797" y2="1532.1797"/><text fill="#000000" font-family="sans-serif" font-size="11" font-weight="bold" lengthAdjust="spacing" textLength="148" x="15" y="1542.3901">[Credenciais inv&#225;lidas]</text><polygon fill="#181818" points="274.5,1578.25,264.5,1582.25,274.5,1586.25,270.5,1582.25" style="stroke:#181818;stroke-width:1.0;"/><line style="stroke:#181818;stroke-width:1.0;stroke-dasharray:2.0,2.0;" x1="268.5" x2="495.5" y1="1582.25" y2="1582.25"/><text fill="#000000" font-family="sans-serif" font-size="13" lengthAdjust="spacing" textLength="114" x="280.5" y="1562.0513">401 Unauthorized</text><text fill="#000000" font-family="sans-serif" font-size="13" lengthAdjust="spacing" textLength="193" x="280.5" y="1577.1841">{erro: "Credenciais inv&#225;lidas"}</text><polygon fill="#181818" points="63.5,1607.3828,53.5,1611.3828,63.5,1615.3828,59.5,1611.3828" style="stroke:#181818;stroke-width:1.0;"/><line style="stroke:#181818;stroke-width:1.0;" x1="57.5" x2="262.5" y1="1611.3828" y2="1611.3828"/><text fill="#000000" font-family="sans-serif" font-size="13" lengthAdjust="spacing" textLength="64" x="69.5" y="1606.3169">Exibe erro</text><!--SRC=[bPNFQXin4CRl-nJ3dcAmMQVqP70XiHCe_HEJD3qPobWhEqftfQsaBI5f7YRqK2ZqL7hfTL-i8scpzhfhavooMADFtun-dsA5pJXC1QuqvWWfXml-fQn-IYOG1Z3158tL2ZYyLIiXemYPLHhYewoKAWOqWEuhAb1RmKI1qa9ygfMqNAPpUN3EQKFF5oxhNzkrnyW-XzBfDSgLWgFPwr2_22jHYXONQBYhbKmvZrDCbV55wIAAncCupSeRlz8O7eyZxmm6hvgJOGH7Z1k3a6I-csQ1YaBr24vkn8A3AgeVrHzkHdFf6uTlZNIdxYGJ387d4DTbgECzyakbypAh7hHGKQVUJ7CksHM7rBLABWRmNkNS_Jt9KMGWfB72bameYPdx-OBBAtGV7qIXuC1VK3BJQaaDAzrpA-_GwkeNApDCfjpT0kPSMkMM9gKsP6NJSJr_P-RiuWCaM8W4ItkLi7eGoLpUIJBLfxx9KX-Ciz2VIqiEFfMcH6gl3pcTAjoXVM3kbFieUfHkdV8HCv5YQ9Xmy9fG_PM2aGZ3l506r4AB5ThgDocRdXkT3J30r-g1jYiJ0MoefmjtDvfOlWnsQ9b-6xGEhfU0KLsgTWaKN2y5JJfC5bG9w-5sgSvyVOTe-w9V30z9dwFbb84xKpe-gT_s2EkFUvBPpHJTfS4L8KWng7NcaeFcgT3SSm9qvmW1VPvHeW9ArzK3y1jXBDzjy-Lm2CUOmZcz3jnOiigrLYE8rn8r5jHjlD-esncvPBUI6sAs8xPD71YrmztZ9DQCy01Uxsdq-lOTkflGjfdqbtvS6aeqJTwd50fwzVoEQ2S_v8lETmFOJxW9IJrmTYX_z71ONhCyMRTN4urRHA_LF9M6hhdwJddtRVKwu0rzjEbTlml9H2bDHvBflHXlzBO7vI6SlTb9yLmsF0StZf8jK3PVQftZBHbxV11IrLn6sEVcjNa0iGEnXoUcrMu0pxV3a8H_Nm0-3__95OzpUevaiscdB5iF_LbUqvoIIwAK7Hg1rzuaHiWkPhQ3V0YNqg6djBZrZqwTv6wbfsRv7m00]--></g></svg>