<?xml version="1.0" encoding="us-ascii" standalone="no"?><svg xmlns="http://www.w3.org/2000/svg" xmlns:xlink="http://www.w3.org/1999/xlink" contentStyleType="text/css" height="1986px" preserveAspectRatio="none" style="width:862px;height:1986px;background:#FFFFFF;" version="1.1" viewBox="0 0 862 1986" width="862px" zoomAndPan="magnify"><defs/><g><text fill="#000000" font-family="sans-serif" font-size="14" font-weight="bold" lengthAdjust="spacing" textLength="412" x="221" y="27.9951">Diagrama de Sequ&#234;ncia - Aluno Candidata-se a Vaga</text><rect fill="none" height="267.2656" style="stroke:#000000;stroke-width:1.5;" width="835" x="10" y="1321.9688"/><line style="stroke:#181818;stroke-width:0.5;stroke-dasharray:5.0,5.0;" x1="42" x2="42" y1="118.5938" y2="1905.8281"/><line style="stroke:#181818;stroke-width:0.5;stroke-dasharray:5.0,5.0;" x1="276" x2="276" y1="118.5938" y2="1905.8281"/><line style="stroke:#181818;stroke-width:0.5;stroke-dasharray:5.0,5.0;" x1="529.5" x2="529.5" y1="118.5938" y2="1905.8281"/><line style="stroke:#181818;stroke-width:0.5;stroke-dasharray:5.0,5.0;" x1="774" x2="774" y1="118.5938" y2="1905.8281"/><text fill="#000000" font-family="sans-serif" font-size="14" lengthAdjust="spacing" textLength="39" x="20" y="115.292">Aluno</text><ellipse cx="42.5" cy="50.7969" fill="#E2E2F0" rx="8" ry="8" style="stroke:#181818;stroke-width:0.5;"/><path d="M42.5,58.7969 L42.5,85.7969 M29.5,66.7969 L55.5,66.7969 M42.5,85.7969 L29.5,100.7969 M42.5,85.7969 L55.5,100.7969 " fill="none" style="stroke:#181818;stroke-width:0.5;"/><text fill="#000000" font-family="sans-serif" font-size="14" lengthAdjust="spacing" textLength="39" x="20" y="1917.8232">Aluno</text><ellipse cx="42.5" cy="1929.625" fill="#E2E2F0" rx="8" ry="8" style="stroke:#181818;stroke-width:0.5;"/><path d="M42.5,1937.625 L42.5,1964.625 M29.5,1945.625 L55.5,1945.625 M42.5,1964.625 L29.5,1979.625 M42.5,1964.625 L55.5,1979.625 " fill="none" style="stroke:#181818;stroke-width:0.5;"/><rect fill="#E2E2F0" height="46.5938" rx="2.5" ry="2.5" style="stroke:#181818;stroke-width:0.5;" width="77" x="238" y="71"/><text fill="#000000" font-family="sans-serif" font-size="14" lengthAdjust="spacing" textLength="63" x="245" y="90.9951">Frontend</text><text fill="#000000" font-family="sans-serif" font-size="14" lengthAdjust="spacing" textLength="50" x="251.5" y="107.292">(React)</text><rect fill="#E2E2F0" height="46.5938" rx="2.5" ry="2.5" style="stroke:#181818;stroke-width:0.5;" width="77" x="238" y="1904.8281"/><text fill="#000000" font-family="sans-serif" font-size="14" lengthAdjust="spacing" textLength="63" x="245" y="1924.8232">Frontend</text><text fill="#000000" font-family="sans-serif" font-size="14" lengthAdjust="spacing" textLength="50" x="251.5" y="1941.1201">(React)</text><rect fill="#E2E2F0" height="46.5938" rx="2.5" ry="2.5" style="stroke:#181818;stroke-width:0.5;" width="98" x="480.5" y="71"/><text fill="#000000" font-family="sans-serif" font-size="14" lengthAdjust="spacing" textLength="61" x="499" y="90.9951">Backend</text><text fill="#000000" font-family="sans-serif" font-size="14" lengthAdjust="spacing" textLength="84" x="487.5" y="107.292">(Django API)</text><rect fill="#E2E2F0" height="46.5938" rx="2.5" ry="2.5" style="stroke:#181818;stroke-width:0.5;" width="98" x="480.5" y="1904.8281"/><text fill="#000000" font-family="sans-serif" font-size="14" lengthAdjust="spacing" textLength="61" x="499" y="1924.8232">Backend</text><text fill="#000000" font-family="sans-serif" font-size="14" lengthAdjust="spacing" textLength="84" x="487.5" y="1941.1201">(Django API)</text><text fill="#000000" font-family="sans-serif" font-size="14" lengthAdjust="spacing" textLength="115" x="714" y="115.292">Banco de Dados</text><path d="M756.5,66.2969 C756.5,56.2969 774.5,56.2969 774.5,56.2969 C774.5,56.2969 792.5,56.2969 792.5,66.2969 L792.5,92.2969 C792.5,102.2969 774.5,102.2969 774.5,102.2969 C774.5,102.2969 756.5,102.2969 756.5,92.2969 L756.5,66.2969 " fill="#E2E2F0" style="stroke:#181818;stroke-width:1.5;"/><path d="M756.5,66.2969 C756.5,76.2969 774.5,76.2969 774.5,76.2969 C774.5,76.2969 792.5,76.2969 792.5,66.2969 " fill="none" style="stroke:#181818;stroke-width:1.5;"/><text fill="#000000" font-family="sans-serif" font-size="14" lengthAdjust="spacing" textLength="115" x="714" y="1917.8232">Banco de Dados</text><path d="M756.5,1931.125 C756.5,1921.125 774.5,1921.125 774.5,1921.125 C774.5,1921.125 792.5,1921.125 792.5,1931.125 L792.5,1957.125 C792.5,1967.125 774.5,1967.125 774.5,1967.125 C774.5,1967.125 756.5,1967.125 756.5,1957.125 L756.5,1931.125 " fill="#E2E2F0" style="stroke:#181818;stroke-width:1.5;"/><path d="M756.5,1931.125 C756.5,1941.125 774.5,1941.125 774.5,1941.125 C774.5,1941.125 792.5,1941.125 792.5,1931.125 " fill="none" style="stroke:#181818;stroke-width:1.5;"/><polygon fill="#181818" points="264.5,145.7266,274.5,149.7266,264.5,153.7266,268.5,149.7266" style="stroke:#181818;stroke-width:1.0;"/><line style="stroke:#181818;stroke-width:1.0;" x1="42.5" x2="270.5" y1="149.7266" y2="149.7266"/><text fill="#000000" font-family="sans-serif" font-size="13" lengthAdjust="spacing" textLength="89" x="49.5" y="144.6606">Acessa /aluno</text><polygon fill="#181818" points="517.5,174.8594,527.5,178.8594,517.5,182.8594,521.5,178.8594" style="stroke:#181818;stroke-width:1.0;"/><line style="stroke:#181818;stroke-width:1.0;" x1="276.5" x2="523.5" y1="178.8594" y2="178.8594"/><text fill="#000000" font-family="sans-serif" font-size="13" lengthAdjust="spacing" textLength="114" x="283.5" y="173.7935">GET /api/auth/me/</text><polygon fill="#181818" points="762.5,203.9922,772.5,207.9922,762.5,211.9922,766.5,207.9922" style="stroke:#181818;stroke-width:1.0;"/><line style="stroke:#181818;stroke-width:1.0;" x1="529.5" x2="768.5" y1="207.9922" y2="207.9922"/><text fill="#000000" font-family="sans-serif" font-size="13" lengthAdjust="spacing" textLength="170" x="536.5" y="202.9263">Busca usu&#225;rio autenticado</text><polygon fill="#181818" points="540.5,233.125,530.5,237.125,540.5,241.125,536.5,237.125" style="stroke:#181818;stroke-width:1.0;"/><line style="stroke:#181818;stroke-width:1.0;stroke-dasharray:2.0,2.0;" x1="534.5" x2="773.5" y1="237.125" y2="237.125"/><text fill="#000000" font-family="sans-serif" font-size="13" lengthAdjust="spacing" textLength="139" x="546.5" y="232.0591">Usuario + perfil Aluno</text><polygon fill="#181818" points="287.5,292.5234,277.5,296.5234,287.5,300.5234,283.5,296.5234" style="stroke:#181818;stroke-width:1.0;"/><line style="stroke:#181818;stroke-width:1.0;stroke-dasharray:2.0,2.0;" x1="281.5" x2="528.5" y1="296.5234" y2="296.5234"/><text fill="#000000" font-family="sans-serif" font-size="13" lengthAdjust="spacing" textLength="46" x="293.5" y="261.1919">200 OK</text><text fill="#000000" font-family="sans-serif" font-size="13" lengthAdjust="spacing" textLength="143" x="293.5" y="276.3247">{tipo_usuario: "aluno",</text><text fill="#000000" font-family="sans-serif" font-size="13" lengthAdjust="spacing" textLength="166" x="293.5" y="291.4575">perfil: {curso, matricula}}</text><polygon fill="#181818" points="517.5,339.7891,527.5,343.7891,517.5,347.7891,521.5,343.7891" style="stroke:#181818;stroke-width:1.0;"/><line style="stroke:#181818;stroke-width:1.0;" x1="276.5" x2="523.5" y1="343.7891" y2="343.7891"/><text fill="#000000" font-family="sans-serif" font-size="13" lengthAdjust="spacing" textLength="98" x="283.5" y="338.7231">GET /api/vagas/</text><path d="M534,309.5234 L534,364.5234 L765,364.5234 L765,319.5234 L755,309.5234 L534,309.5234 " fill="#FEFFDD" style="stroke:#181818;stroke-width:0.5;"/><path d="M755,309.5234 L755,319.5234 L765,319.5234 L755,309.5234 " fill="#FEFFDD" style="stroke:#181818;stroke-width:0.5;"/><text fill="#000000" font-family="sans-serif" font-size="13" lengthAdjust="spacing" textLength="210" x="540" y="326.5903">Backend filtra automaticamente:</text><text fill="#000000" font-family="sans-serif" font-size="13" lengthAdjust="spacing" textLength="117" x="540" y="341.7231">- status = 'Aberta'</text><text fill="#000000" font-family="sans-serif" font-size="13" lengthAdjust="spacing" textLength="157" x="540" y="356.856">- curso = curso do aluno</text><polygon fill="#181818" points="762.5,417.3203,772.5,421.3203,762.5,425.3203,766.5,421.3203" style="stroke:#181818;stroke-width:1.0;"/><line style="stroke:#181818;stroke-width:1.0;" x1="529.5" x2="768.5" y1="421.3203" y2="421.3203"/><text fill="#000000" font-family="sans-serif" font-size="13" lengthAdjust="spacing" textLength="139" x="536.5" y="385.9888">SELECT vagas WHERE</text><text fill="#000000" font-family="sans-serif" font-size="13" lengthAdjust="spacing" textLength="133" x="536.5" y="401.1216">status='Aberta' AND</text><text fill="#000000" font-family="sans-serif" font-size="13" lengthAdjust="spacing" textLength="190" x="536.5" y="416.2544">disciplina.curso = aluno.curso</text><polygon fill="#181818" points="540.5,446.4531,530.5,450.4531,540.5,454.4531,536.5,450.4531" style="stroke:#181818;stroke-width:1.0;"/><line style="stroke:#181818;stroke-width:1.0;stroke-dasharray:2.0,2.0;" x1="534.5" x2="773.5" y1="450.4531" y2="450.4531"/><text fill="#000000" font-family="sans-serif" font-size="13" lengthAdjust="spacing" textLength="92" x="546.5" y="445.3872">Lista de vagas</text><polygon fill="#181818" points="287.5,490.7188,277.5,494.7188,287.5,498.7188,283.5,494.7188" style="stroke:#181818;stroke-width:1.0;"/><line style="stroke:#181818;stroke-width:1.0;stroke-dasharray:2.0,2.0;" x1="281.5" x2="528.5" y1="494.7188" y2="494.7188"/><text fill="#000000" font-family="sans-serif" font-size="13" lengthAdjust="spacing" textLength="46" x="293.5" y="474.52">200 OK</text><text fill="#000000" font-family="sans-serif" font-size="13" lengthAdjust="spacing" textLength="148" x="293.5" y="489.6528">[{vaga1}, {vaga2}, ...]</text><polygon fill="#181818" points="53.5,534.9844,43.5,538.9844,53.5,542.9844,49.5,538.9844" style="stroke:#181818;stroke-width:1.0;"/><line style="stroke:#181818;stroke-width:1.0;" x1="47.5" x2="275.5" y1="538.9844" y2="538.9844"/><text fill="#000000" font-family="sans-serif" font-size="13" lengthAdjust="spacing" textLength="126" x="59.5" y="518.7856">Exibe lista de vagas</text><text fill="#000000" font-family="sans-serif" font-size="13" lengthAdjust="spacing" textLength="86" x="59.5" y="533.9185">do curso dele</text><rect fill="#EEEEEE" height="3" style="stroke:#EEEEEE;stroke-width:1.0;" width="855" x="0" y="567.5508"/><line style="stroke:#000000;stroke-width:1.0;" x1="0" x2="855" y1="567.5508" y2="567.5508"/><line style="stroke:#000000;stroke-width:1.0;" x1="0" x2="855" y1="570.5508" y2="570.5508"/><rect fill="#EEEEEE" height="23.1328" style="stroke:#000000;stroke-width:2.0;" width="154" x="350.5" y="556.9844"/><text fill="#000000" font-family="sans-serif" font-size="13" font-weight="bold" lengthAdjust="spacing" textLength="135" x="356.5" y="573.0513">Aluno Filtra Vagas</text><polygon fill="#181818" points="264.5,622.3828,274.5,626.3828,264.5,630.3828,268.5,626.3828" style="stroke:#181818;stroke-width:1.0;"/><line style="stroke:#181818;stroke-width:1.0;" x1="42.5" x2="270.5" y1="626.3828" y2="626.3828"/><text fill="#000000" font-family="sans-serif" font-size="13" lengthAdjust="spacing" textLength="77" x="49.5" y="606.1841">Aplica filtros</text><text fill="#000000" font-family="sans-serif" font-size="13" lengthAdjust="spacing" textLength="135" x="49.5" y="621.3169">(nome, per&#237;odo, tipo)</text><polygon fill="#181818" points="517.5,666.6484,527.5,670.6484,517.5,674.6484,521.5,670.6484" style="stroke:#181818;stroke-width:1.0;"/><line style="stroke:#181818;stroke-width:1.0;" x1="276.5" x2="523.5" y1="670.6484" y2="670.6484"/><text fill="#000000" font-family="sans-serif" font-size="13" lengthAdjust="spacing" textLength="98" x="283.5" y="650.4497">GET /api/vagas/</text><text fill="#000000" font-family="sans-serif" font-size="13" lengthAdjust="spacing" textLength="229" x="283.5" y="665.5825">?nome=Algoritmos&amp;tipo=Monitoria</text><polygon fill="#181818" points="762.5,695.7813,772.5,699.7813,762.5,703.7813,766.5,699.7813" style="stroke:#181818;stroke-width:1.0;"/><line style="stroke:#181818;stroke-width:1.0;" x1="529.5" x2="768.5" y1="699.7813" y2="699.7813"/><text fill="#000000" font-family="sans-serif" font-size="13" lengthAdjust="spacing" textLength="119" x="536.5" y="694.7153">SELECT com filtros</text><polygon fill="#181818" points="540.5,724.9141,530.5,728.9141,540.5,732.9141,536.5,728.9141" style="stroke:#181818;stroke-width:1.0;"/><line style="stroke:#181818;stroke-width:1.0;stroke-dasharray:2.0,2.0;" x1="534.5" x2="773.5" y1="728.9141" y2="728.9141"/><text fill="#000000" font-family="sans-serif" font-size="13" lengthAdjust="spacing" textLength="95" x="546.5" y="723.8481">Vagas filtradas</text><polygon fill="#181818" points="287.5,754.0469,277.5,758.0469,287.5,762.0469,283.5,758.0469" style="stroke:#181818;stroke-width:1.0;"/><line style="stroke:#181818;stroke-width:1.0;stroke-dasharray:2.0,2.0;" x1="281.5" x2="528.5" y1="758.0469" y2="758.0469"/><text fill="#000000" font-family="sans-serif" font-size="13" lengthAdjust="spacing" textLength="98" x="293.5" y="752.981">200 OK [vagas]</text><polygon fill="#181818" points="53.5,783.1797,43.5,787.1797,53.5,791.1797,49.5,787.1797" style="stroke:#181818;stroke-width:1.0;"/><line style="stroke:#181818;stroke-width:1.0;" x1="47.5" x2="275.5" y1="787.1797" y2="787.1797"/><text fill="#000000" font-family="sans-serif" font-size="13" lengthAdjust="spacing" textLength="131" x="59.5" y="782.1138">Exibe vagas filtradas</text><rect fill="#EEEEEE" height="3" style="stroke:#EEEEEE;stroke-width:1.0;" width="855" x="0" y="815.7461"/><line style="stroke:#000000;stroke-width:1.0;" x1="0" x2="855" y1="815.7461" y2="815.7461"/><line style="stroke:#000000;stroke-width:1.0;" x1="0" x2="855" y1="818.7461" y2="818.7461"/><rect fill="#EEEEEE" height="23.1328" style="stroke:#000000;stroke-width:2.0;" width="154" x="350.5" y="805.1797"/><text fill="#000000" font-family="sans-serif" font-size="13" font-weight="bold" lengthAdjust="spacing" textLength="135" x="356.5" y="821.2466">Aluno V&#234; Detalhes</text><polygon fill="#181818" points="264.5,855.4453,274.5,859.4453,264.5,863.4453,268.5,859.4453" style="stroke:#181818;stroke-width:1.0;"/><line style="stroke:#181818;stroke-width:1.0;" x1="42.5" x2="270.5" y1="859.4453" y2="859.4453"/><text fill="#000000" font-family="sans-serif" font-size="13" lengthAdjust="spacing" textLength="152" x="49.5" y="854.3794">Clica em "Ver Detalhes"</text><polygon fill="#181818" points="517.5,884.5781,527.5,888.5781,517.5,892.5781,521.5,888.5781" style="stroke:#181818;stroke-width:1.0;"/><line style="stroke:#181818;stroke-width:1.0;" x1="276.5" x2="523.5" y1="888.5781" y2="888.5781"/><text fill="#000000" font-family="sans-serif" font-size="13" lengthAdjust="spacing" textLength="129" x="283.5" y="883.5122">GET /api/vagas/{id}/</text><polygon fill="#181818" points="762.5,913.7109,772.5,917.7109,762.5,921.7109,766.5,917.7109" style="stroke:#181818;stroke-width:1.0;"/><line style="stroke:#181818;stroke-width:1.0;" x1="529.5" x2="768.5" y1="917.7109" y2="917.7109"/><text fill="#000000" font-family="sans-serif" font-size="13" lengthAdjust="spacing" textLength="185" x="536.5" y="912.645">SELECT vaga WHERE id={id}</text><polygon fill="#181818" points="540.5,942.8438,530.5,946.8438,540.5,950.8438,536.5,946.8438" style="stroke:#181818;stroke-width:1.0;"/><line style="stroke:#181818;stroke-width:1.0;stroke-dasharray:2.0,2.0;" x1="534.5" x2="773.5" y1="946.8438" y2="946.8438"/><text fill="#000000" font-family="sans-serif" font-size="13" lengthAdjust="spacing" textLength="183" x="546.5" y="941.7778">Detalhes completos da vaga</text><polygon fill="#181818" points="287.5,971.9766,277.5,975.9766,287.5,979.9766,283.5,975.9766" style="stroke:#181818;stroke-width:1.0;"/><line style="stroke:#181818;stroke-width:1.0;stroke-dasharray:2.0,2.0;" x1="281.5" x2="528.5" y1="975.9766" y2="975.9766"/><text fill="#000000" font-family="sans-serif" font-size="13" lengthAdjust="spacing" textLength="97" x="293.5" y="970.9106">200 OK {vaga}</text><polygon fill="#181818" points="53.5,1076.7734,43.5,1080.7734,53.5,1084.7734,49.5,1080.7734" style="stroke:#181818;stroke-width:1.0;"/><line style="stroke:#181818;stroke-width:1.0;" x1="47.5" x2="275.5" y1="1080.7734" y2="1080.7734"/><text fill="#000000" font-family="sans-serif" font-size="13" lengthAdjust="spacing" textLength="114" x="59.5" y="1000.0435">Exibe modal com:</text><text fill="#000000" font-family="sans-serif" font-size="13" lengthAdjust="spacing" textLength="69" x="59.5" y="1015.1763">- Disciplina</text><text fill="#000000" font-family="sans-serif" font-size="13" lengthAdjust="spacing" textLength="69" x="59.5" y="1030.3091">- Professor</text><text fill="#000000" font-family="sans-serif" font-size="13" lengthAdjust="spacing" textLength="78" x="59.5" y="1045.4419">- CR m&#237;nimo</text><text fill="#000000" font-family="sans-serif" font-size="13" lengthAdjust="spacing" textLength="47" x="59.5" y="1060.5747">- Horas</text><text fill="#000000" font-family="sans-serif" font-size="13" lengthAdjust="spacing" textLength="72" x="59.5" y="1075.7075">- Descri&#231;&#227;o</text><rect fill="#EEEEEE" height="3" style="stroke:#EEEEEE;stroke-width:1.0;" width="855" x="0" y="1109.3398"/><line style="stroke:#000000;stroke-width:1.0;" x1="0" x2="855" y1="1109.3398" y2="1109.3398"/><line style="stroke:#000000;stroke-width:1.0;" x1="0" x2="855" y1="1112.3398" y2="1112.3398"/><rect fill="#EEEEEE" height="23.1328" style="stroke:#000000;stroke-width:2.0;" width="163" x="346" y="1098.7734"/><text fill="#000000" font-family="sans-serif" font-size="13" font-weight="bold" lengthAdjust="spacing" textLength="144" x="352" y="1114.8403">Aluno Candidata-se</text><polygon fill="#181818" points="264.5,1149.0391,274.5,1153.0391,264.5,1157.0391,268.5,1153.0391" style="stroke:#181818;stroke-width:1.0;"/><line style="stroke:#181818;stroke-width:1.0;" x1="42.5" x2="270.5" y1="1153.0391" y2="1153.0391"/><text fill="#000000" font-family="sans-serif" font-size="13" lengthAdjust="spacing" textLength="159" x="49.5" y="1147.9731">Clica em "Candidatar-se"</text><polygon fill="#181818" points="517.5,1193.3047,527.5,1197.3047,517.5,1201.3047,521.5,1197.3047" style="stroke:#181818;stroke-width:1.0;"/><line style="stroke:#181818;stroke-width:1.0;" x1="276.5" x2="523.5" y1="1197.3047" y2="1197.3047"/><text fill="#000000" font-family="sans-serif" font-size="13" lengthAdjust="spacing" textLength="152" x="283.5" y="1177.106">POST /api/candidaturas/</text><text fill="#000000" font-family="sans-serif" font-size="13" lengthAdjust="spacing" textLength="81" x="283.5" y="1192.2388">{vaga_id: X}</text><path d="M534,1210.3047 L534,1265.3047 L690,1265.3047 L690,1220.3047 L680,1210.3047 L534,1210.3047 " fill="#FEFFDD" style="stroke:#181818;stroke-width:0.5;"/><path d="M680,1210.3047 L680,1220.3047 L690,1220.3047 L680,1210.3047 " fill="#FEFFDD" style="stroke:#181818;stroke-width:0.5;"/><text fill="#000000" font-family="sans-serif" font-size="13" lengthAdjust="spacing" textLength="116" x="540" y="1227.3716">aluno_id &#233; inferido</text><text fill="#000000" font-family="sans-serif" font-size="13" lengthAdjust="spacing" textLength="135" x="540" y="1242.5044">automaticamente do</text><text fill="#000000" font-family="sans-serif" font-size="13" lengthAdjust="spacing" textLength="127" x="540" y="1257.6372">usu&#225;rio autenticado</text><polygon fill="#181818" points="762.5,1302.9688,772.5,1306.9688,762.5,1310.9688,766.5,1306.9688" style="stroke:#181818;stroke-width:1.0;"/><line style="stroke:#181818;stroke-width:1.0;" x1="529.5" x2="768.5" y1="1306.9688" y2="1306.9688"/><text fill="#000000" font-family="sans-serif" font-size="13" lengthAdjust="spacing" textLength="123" x="536.5" y="1286.77">Verifica se j&#225; existe</text><text fill="#000000" font-family="sans-serif" font-size="13" lengthAdjust="spacing" textLength="175" x="536.5" y="1301.9028">candidatura (aluno + vaga)</text><path d="M10,1321.9688 L74,1321.9688 L74,1329.1016 L64,1339.1016 L10,1339.1016 L10,1321.9688 " fill="#EEEEEE" style="stroke:#000000;stroke-width:1.5;"/><rect fill="none" height="267.2656" style="stroke:#000000;stroke-width:1.5;" width="835" x="10" y="1321.9688"/><text fill="#000000" font-family="sans-serif" font-size="13" font-weight="bold" lengthAdjust="spacing" textLength="19" x="25" y="1335.0356">alt</text><text fill="#000000" font-family="sans-serif" font-size="11" font-weight="bold" lengthAdjust="spacing" textLength="160" x="89" y="1334.1792">[Candidatura n&#227;o existe]</text><polygon fill="#181818" points="762.5,1371.3672,772.5,1375.3672,762.5,1379.3672,766.5,1375.3672" style="stroke:#181818;stroke-width:1.0;"/><line style="stroke:#181818;stroke-width:1.0;" x1="529.5" x2="768.5" y1="1375.3672" y2="1375.3672"/><text fill="#000000" font-family="sans-serif" font-size="13" lengthAdjust="spacing" textLength="125" x="536.5" y="1355.1685">INSERT candidatura</text><text fill="#000000" font-family="sans-serif" font-size="13" lengthAdjust="spacing" textLength="210" x="536.5" y="1370.3013">(aluno, vaga, status='Pendente')</text><polygon fill="#181818" points="540.5,1400.5,530.5,1404.5,540.5,1408.5,536.5,1404.5" style="stroke:#181818;stroke-width:1.0;"/><line style="stroke:#181818;stroke-width:1.0;stroke-dasharray:2.0,2.0;" x1="534.5" x2="773.5" y1="1404.5" y2="1404.5"/><text fill="#000000" font-family="sans-serif" font-size="13" lengthAdjust="spacing" textLength="121" x="546.5" y="1399.4341">Candidatura criada</text><polygon fill="#181818" points="287.5,1444.7656,277.5,1448.7656,287.5,1452.7656,283.5,1448.7656" style="stroke:#181818;stroke-width:1.0;"/><line style="stroke:#181818;stroke-width:1.0;stroke-dasharray:2.0,2.0;" x1="281.5" x2="528.5" y1="1448.7656" y2="1448.7656"/><text fill="#000000" font-family="sans-serif" font-size="13" lengthAdjust="spacing" textLength="79" x="293.5" y="1428.5669">201 Created</text><text fill="#000000" font-family="sans-serif" font-size="13" lengthAdjust="spacing" textLength="92" x="293.5" y="1443.6997">{candidatura}</text><polygon fill="#181818" points="53.5,1489.0313,43.5,1493.0313,53.5,1497.0313,49.5,1493.0313" style="stroke:#181818;stroke-width:1.0;"/><line style="stroke:#181818;stroke-width:1.0;" x1="47.5" x2="275.5" y1="1493.0313" y2="1493.0313"/><text fill="#000000" font-family="sans-serif" font-size="13" lengthAdjust="spacing" textLength="115" x="59.5" y="1472.8325">Exibe mensagem:</text><text fill="#000000" font-family="sans-serif" font-size="13" lengthAdjust="spacing" textLength="147" x="59.5" y="1487.9653">"Candidatura enviada!"</text><line style="stroke:#000000;stroke-width:1.0;stroke-dasharray:2.0,2.0;" x1="10" x2="845" y1="1502.0313" y2="1502.0313"/><text fill="#000000" font-family="sans-serif" font-size="11" font-weight="bold" lengthAdjust="spacing" textLength="148" x="15" y="1512.2417">[Candidatura j&#225; existe]</text><polygon fill="#181818" points="287.5,1548.1016,277.5,1552.1016,287.5,1556.1016,283.5,1552.1016" style="stroke:#181818;stroke-width:1.0;"/><line style="stroke:#181818;stroke-width:1.0;stroke-dasharray:2.0,2.0;" x1="281.5" x2="528.5" y1="1552.1016" y2="1552.1016"/><text fill="#000000" font-family="sans-serif" font-size="13" lengthAdjust="spacing" textLength="109" x="293.5" y="1531.9028">400 Bad Request</text><text fill="#000000" font-family="sans-serif" font-size="13" lengthAdjust="spacing" textLength="154" x="293.5" y="1547.0356">{erro: "J&#225; candidatado"}</text><polygon fill="#181818" points="53.5,1577.2344,43.5,1581.2344,53.5,1585.2344,49.5,1581.2344" style="stroke:#181818;stroke-width:1.0;"/><line style="stroke:#181818;stroke-width:1.0;" x1="47.5" x2="275.5" y1="1581.2344" y2="1581.2344"/><text fill="#000000" font-family="sans-serif" font-size="13" lengthAdjust="spacing" textLength="64" x="59.5" y="1576.1685">Exibe erro</text><rect fill="#EEEEEE" height="3" style="stroke:#EEEEEE;stroke-width:1.0;" width="855" x="0" y="1616.8008"/><line style="stroke:#000000;stroke-width:1.0;" x1="0" x2="855" y1="1616.8008" y2="1616.8008"/><line style="stroke:#000000;stroke-width:1.0;" x1="0" x2="855" y1="1619.8008" y2="1619.8008"/><rect fill="#EEEEEE" height="23.1328" style="stroke:#000000;stroke-width:2.0;" width="228" x="313.5" y="1606.2344"/><text fill="#000000" font-family="sans-serif" font-size="13" font-weight="bold" lengthAdjust="spacing" textLength="209" x="319.5" y="1622.3013">Aluno V&#234; Suas Candidaturas</text><polygon fill="#181818" points="264.5,1656.5,274.5,1660.5,264.5,1664.5,268.5,1660.5" style="stroke:#181818;stroke-width:1.0;"/><line style="stroke:#181818;stroke-width:1.0;" x1="42.5" x2="270.5" y1="1660.5" y2="1660.5"/><text fill="#000000" font-family="sans-serif" font-size="13" lengthAdjust="spacing" textLength="194" x="49.5" y="1655.4341">Acessa "Minhas Candidaturas"</text><polygon fill="#181818" points="517.5,1696.1992,527.5,1700.1992,517.5,1704.1992,521.5,1700.1992" style="stroke:#181818;stroke-width:1.0;"/><line style="stroke:#181818;stroke-width:1.0;" x1="276.5" x2="523.5" y1="1700.1992" y2="1700.1992"/><text fill="#000000" font-family="sans-serif" font-size="13" lengthAdjust="spacing" textLength="143" x="283.5" y="1695.1333">GET /api/candidaturas/</text><path d="M534,1673.5 L534,1713.5 L761,1713.5 L761,1683.5 L751,1673.5 L534,1673.5 " fill="#FEFFDD" style="stroke:#181818;stroke-width:0.5;"/><path d="M751,1673.5 L751,1683.5 L761,1683.5 L751,1673.5 " fill="#FEFFDD" style="stroke:#181818;stroke-width:0.5;"/><text fill="#000000" font-family="sans-serif" font-size="13" lengthAdjust="spacing" textLength="206" x="540" y="1690.5669">Backend filtra automaticamente</text><text fill="#000000" font-family="sans-serif" font-size="13" lengthAdjust="spacing" textLength="140" x="540" y="1705.6997">por aluno autenticado</text><polygon fill="#181818" points="762.5,1751.0313,772.5,1755.0313,762.5,1759.0313,766.5,1755.0313" style="stroke:#181818;stroke-width:1.0;"/><line style="stroke:#181818;stroke-width:1.0;" x1="529.5" x2="768.5" y1="1755.0313" y2="1755.0313"/><text fill="#000000" font-family="sans-serif" font-size="13" lengthAdjust="spacing" textLength="135" x="536.5" y="1734.8325">SELECT candidaturas</text><text fill="#000000" font-family="sans-serif" font-size="13" lengthAdjust="spacing" textLength="221" x="536.5" y="1749.9653">WHERE aluno = aluno_autenticado</text><polygon fill="#181818" points="540.5,1780.1641,530.5,1784.1641,540.5,1788.1641,536.5,1784.1641" style="stroke:#181818;stroke-width:1.0;"/><line style="stroke:#181818;stroke-width:1.0;stroke-dasharray:2.0,2.0;" x1="534.5" x2="773.5" y1="1784.1641" y2="1784.1641"/><text fill="#000000" font-family="sans-serif" font-size="13" lengthAdjust="spacing" textLength="137" x="546.5" y="1779.0981">Lista de candidaturas</text><polygon fill="#181818" points="287.5,1809.2969,277.5,1813.2969,287.5,1817.2969,283.5,1813.2969" style="stroke:#181818;stroke-width:1.0;"/><line style="stroke:#181818;stroke-width:1.0;stroke-dasharray:2.0,2.0;" x1="281.5" x2="528.5" y1="1813.2969" y2="1813.2969"/><text fill="#000000" font-family="sans-serif" font-size="13" lengthAdjust="spacing" textLength="180" x="293.5" y="1808.231">200 OK [{candidatura1}, ...]</text><polygon fill="#181818" points="53.5,1883.8281,43.5,1887.8281,53.5,1891.8281,49.5,1887.8281" style="stroke:#181818;stroke-width:1.0;"/><line style="stroke:#181818;stroke-width:1.0;" x1="47.5" x2="275.5" y1="1887.8281" y2="1887.8281"/><text fill="#000000" font-family="sans-serif" font-size="13" lengthAdjust="spacing" textLength="157" x="59.5" y="1837.3638">Exibe candidaturas com:</text><text fill="#000000" font-family="sans-serif" font-size="13" lengthAdjust="spacing" textLength="69" x="59.5" y="1852.4966">- Disciplina</text><text fill="#000000" font-family="sans-serif" font-size="13" lengthAdjust="spacing" textLength="210" x="59.5" y="1867.6294">- Status (Pendente/Entrevista/...)</text><text fill="#000000" font-family="sans-serif" font-size="13" lengthAdjust="spacing" textLength="40" x="59.5" y="1882.7622">- Data</text><!--SRC=[bLRRZjis47tNLqpra5qZzZeRzCc06dXjfqcRoy9EDmMYOZ6MQ2zJYNH8QX70yCS4VIWQ85-X7-kGb6pPNjl9aotnpCoPmyEX33SPWo77kS8S8MKmOP-Aygj8E487-baX90nGf3n5WntD0E46vnW4c1Yf87I84503sd_10fNX2L-WC10-Lr8O9j9Od8yP1RGSS5QztSPUOVAtXmu_efXBw5-_zFYfNmaiWoaI1SAAH5goGqobTg1qIfGSsyulwmhGWtx2j4ReUdR1UeLGLLu2_JfwHuW5xs9XxhevwmRr6i7IAI6k2fqW5BeeloWkWN1C47Sg7z1wPolR7xf02teC2wPcFFCgRb9k4tpwv0cy_JqMIyCNyhRmiJq87U6m7GkVf0VBf51QjY57etXIPBXQdUpddhPATmCX3GF5vtSc0AY41afg5DfM9AMaNd9gYVK8qG5jq1GQ8ZZhJvaoUERUEWBqql-cijfocynM2FPKcunUZGRlmB60zoz6ur4iVEgeJWpzDyEOxAN91naNU54NSRdzqxx4hpYbiGPmgODJsdvOMjpbgWtkprFwSt5nyTUMUjuyFHXzvbC6sLO18YZhhbb6ZKPHTJIUUn5lN8THzB05gJ4oZzDRKgvp8NFMjkOelycKTjJkVElxjZ8MpsnqrC_cKd6JI_t8HaUlfU1q7ZaUseD4vZM3VJazVM-8bFGyAYTyS5IEgNU_as-Zrqtv5ORCO7R73kerS7An7C8RfjReyFi4Ml9qrJrcHEz3u6baeVjQhDcHOekC6Kcp1Lta2LcSjLP7LCbbYfbDsuj5XsPkRNdxTAtaZ0QLLFPXC8Qy_2PuBktJ2wci0oc2wKJnyj_o7zbGT6iudrHqZLO4FoJfzTj9fMbImGlblETQlELf3_wasREPAY1dwoaDlcj2GVaVS35ZYjEKXDr10-xbWnFry40XG_2PxOLw_LX-0VQPpYcBHOCdd7i57hizQzbRmQn5ikk2zAi2YS1kXPTl9gCn7PTD01rObx7j4hQX7c3N56OREMjHcZqRDIlIhj4nQ1RRDT0b31H3m-ZwMpPAhoZcY9-Oq3XdravXinmJzxRUJs70CjAfkRJHx32RdydELvZ2c3u4c3R4Y2bbRwJVABWcHziK7cTdW-nExXp-IK6JeK7fyDJq5tVucekxdP2Jes3BjZzo-n5WGLyrdi-3bZmqNXiLO-57ZCzItMItHpyPrlTPCy-fCTnqokNfAwsP-i0KclXh_xosTdSaZ6BtbboNihTS16r-y3y0]--></g></svg>