<?xml version="1.0" encoding="us-ascii" standalone="no"?><svg xmlns="http://www.w3.org/2000/svg" xmlns:xlink="http://www.w3.org/1999/xlink" contentStyleType="text/css" height="2902px" preserveAspectRatio="none" style="width:885px;height:2902px;background:#FFFFFF;" version="1.1" viewBox="0 0 885 2902" width="885px" zoomAndPan="magnify"><defs/><g><text fill="#000000" font-family="sans-serif" font-size="14" font-weight="bold" lengthAdjust="spacing" textLength="408" x="234.5" y="27.9951">Diagrama de Sequ&#234;ncia - Professor Gerencia Vagas</text><rect fill="none" height="221.8672" style="stroke:#000000;stroke-width:1.5;" width="820.5" x="10" y="863.8438"/><rect fill="none" height="206.7344" style="stroke:#000000;stroke-width:1.5;" width="820.5" x="10" y="1333.9063"/><rect fill="none" height="237" style="stroke:#000000;stroke-width:1.5;" width="820.5" x="10" y="2142.9609"/><rect fill="none" height="206.7344" style="stroke:#000000;stroke-width:1.5;" width="820.5" x="10" y="2597.8906"/><line style="stroke:#181818;stroke-width:0.5;stroke-dasharray:5.0,5.0;" x1="56" x2="56" y1="118.5938" y2="2821.625"/><line style="stroke:#181818;stroke-width:0.5;stroke-dasharray:5.0,5.0;" x1="266.5" x2="266.5" y1="118.5938" y2="2821.625"/><line style="stroke:#181818;stroke-width:0.5;stroke-dasharray:5.0,5.0;" x1="542" x2="542" y1="118.5938" y2="2821.625"/><line style="stroke:#181818;stroke-width:0.5;stroke-dasharray:5.0,5.0;" x1="759.5" x2="759.5" y1="118.5938" y2="2821.625"/><text fill="#000000" font-family="sans-serif" font-size="14" lengthAdjust="spacing" textLength="66" x="20" y="115.292">Professor</text><ellipse cx="56" cy="50.7969" fill="#E2E2F0" rx="8" ry="8" style="stroke:#181818;stroke-width:0.5;"/><path d="M56,58.7969 L56,85.7969 M43,66.7969 L69,66.7969 M56,85.7969 L43,100.7969 M56,85.7969 L69,100.7969 " fill="none" style="stroke:#181818;stroke-width:0.5;"/><text fill="#000000" font-family="sans-serif" font-size="14" lengthAdjust="spacing" textLength="66" x="20" y="2833.6201">Professor</text><ellipse cx="56" cy="2845.4219" fill="#E2E2F0" rx="8" ry="8" style="stroke:#181818;stroke-width:0.5;"/><path d="M56,2853.4219 L56,2880.4219 M43,2861.4219 L69,2861.4219 M56,2880.4219 L43,2895.4219 M56,2880.4219 L69,2895.4219 " fill="none" style="stroke:#181818;stroke-width:0.5;"/><rect fill="#E2E2F0" height="46.5938" rx="2.5" ry="2.5" style="stroke:#181818;stroke-width:0.5;" width="77" x="228.5" y="71"/><text fill="#000000" font-family="sans-serif" font-size="14" lengthAdjust="spacing" textLength="63" x="235.5" y="90.9951">Frontend</text><text fill="#000000" font-family="sans-serif" font-size="14" lengthAdjust="spacing" textLength="50" x="242" y="107.292">(React)</text><rect fill="#E2E2F0" height="46.5938" rx="2.5" ry="2.5" style="stroke:#181818;stroke-width:0.5;" width="77" x="228.5" y="2820.625"/><text fill="#000000" font-family="sans-serif" font-size="14" lengthAdjust="spacing" textLength="63" x="235.5" y="2840.6201">Frontend</text><text fill="#000000" font-family="sans-serif" font-size="14" lengthAdjust="spacing" textLength="50" x="242" y="2856.917">(React)</text><rect fill="#E2E2F0" height="46.5938" rx="2.5" ry="2.5" style="stroke:#181818;stroke-width:0.5;" width="98" x="493" y="71"/><text fill="#000000" font-family="sans-serif" font-size="14" lengthAdjust="spacing" textLength="61" x="511.5" y="90.9951">Backend</text><text fill="#000000" font-family="sans-serif" font-size="14" lengthAdjust="spacing" textLength="84" x="500" y="107.292">(Django API)</text><rect fill="#E2E2F0" height="46.5938" rx="2.5" ry="2.5" style="stroke:#181818;stroke-width:0.5;" width="98" x="493" y="2820.625"/><text fill="#000000" font-family="sans-serif" font-size="14" lengthAdjust="spacing" textLength="61" x="511.5" y="2840.6201">Backend</text><text fill="#000000" font-family="sans-serif" font-size="14" lengthAdjust="spacing" textLength="84" x="500" y="2856.917">(Django API)</text><text fill="#000000" font-family="sans-serif" font-size="14" lengthAdjust="spacing" textLength="115" x="699.5" y="115.292">Banco de Dados</text><path d="M742,66.2969 C742,56.2969 760,56.2969 760,56.2969 C760,56.2969 778,56.2969 778,66.2969 L778,92.2969 C778,102.2969 760,102.2969 760,102.2969 C760,102.2969 742,102.2969 742,92.2969 L742,66.2969 " fill="#E2E2F0" style="stroke:#181818;stroke-width:1.5;"/><path d="M742,66.2969 C742,76.2969 760,76.2969 760,76.2969 C760,76.2969 778,76.2969 778,66.2969 " fill="none" style="stroke:#181818;stroke-width:1.5;"/><text fill="#000000" font-family="sans-serif" font-size="14" lengthAdjust="spacing" textLength="115" x="699.5" y="2833.6201">Banco de Dados</text><path d="M742,2846.9219 C742,2836.9219 760,2836.9219 760,2836.9219 C760,2836.9219 778,2836.9219 778,2846.9219 L778,2872.9219 C778,2882.9219 760,2882.9219 760,2882.9219 C760,2882.9219 742,2882.9219 742,2872.9219 L742,2846.9219 " fill="#E2E2F0" style="stroke:#181818;stroke-width:1.5;"/><path d="M742,2846.9219 C742,2856.9219 760,2856.9219 760,2856.9219 C760,2856.9219 778,2856.9219 778,2846.9219 " fill="none" style="stroke:#181818;stroke-width:1.5;"/><polygon fill="#181818" points="255,145.7266,265,149.7266,255,153.7266,259,149.7266" style="stroke:#181818;stroke-width:1.0;"/><line style="stroke:#181818;stroke-width:1.0;" x1="56" x2="261" y1="149.7266" y2="149.7266"/><text fill="#000000" font-family="sans-serif" font-size="13" lengthAdjust="spacing" textLength="114" x="63" y="144.6606">Acessa /professor</text><polygon fill="#181818" points="530,174.8594,540,178.8594,530,182.8594,534,178.8594" style="stroke:#181818;stroke-width:1.0;"/><line style="stroke:#181818;stroke-width:1.0;" x1="267" x2="536" y1="178.8594" y2="178.8594"/><text fill="#000000" font-family="sans-serif" font-size="13" lengthAdjust="spacing" textLength="114" x="274" y="173.7935">GET /api/auth/me/</text><polygon fill="#181818" points="748,203.9922,758,207.9922,748,211.9922,752,207.9922" style="stroke:#181818;stroke-width:1.0;"/><line style="stroke:#181818;stroke-width:1.0;" x1="542" x2="754" y1="207.9922" y2="207.9922"/><text fill="#000000" font-family="sans-serif" font-size="13" lengthAdjust="spacing" textLength="170" x="549" y="202.9263">Busca usu&#225;rio autenticado</text><polygon fill="#181818" points="553,233.125,543,237.125,553,241.125,549,237.125" style="stroke:#181818;stroke-width:1.0;"/><line style="stroke:#181818;stroke-width:1.0;stroke-dasharray:2.0,2.0;" x1="547" x2="759" y1="237.125" y2="237.125"/><text fill="#000000" font-family="sans-serif" font-size="13" lengthAdjust="spacing" textLength="163" x="559" y="232.0591">Usuario + perfil Professor</text><polygon fill="#181818" points="278,292.5234,268,296.5234,278,300.5234,274,296.5234" style="stroke:#181818;stroke-width:1.0;"/><line style="stroke:#181818;stroke-width:1.0;stroke-dasharray:2.0,2.0;" x1="272" x2="541" y1="296.5234" y2="296.5234"/><text fill="#000000" font-family="sans-serif" font-size="13" lengthAdjust="spacing" textLength="46" x="284" y="261.1919">200 OK</text><text fill="#000000" font-family="sans-serif" font-size="13" lengthAdjust="spacing" textLength="168" x="284" y="276.3247">{tipo_usuario: "professor",</text><text fill="#000000" font-family="sans-serif" font-size="13" lengthAdjust="spacing" textLength="155" x="284" y="291.4575">perfil: {departamento}}</text><polygon fill="#181818" points="530,332.2227,540,336.2227,530,340.2227,534,336.2227" style="stroke:#181818;stroke-width:1.0;"/><line style="stroke:#181818;stroke-width:1.0;" x1="267" x2="536" y1="336.2227" y2="336.2227"/><text fill="#000000" font-family="sans-serif" font-size="13" lengthAdjust="spacing" textLength="98" x="274" y="331.1567">GET /api/vagas/</text><path d="M547,309.5234 L547,349.5234 L868,349.5234 L868,319.5234 L858,309.5234 L547,309.5234 " fill="#FEFFDD" style="stroke:#181818;stroke-width:0.5;"/><path d="M858,309.5234 L858,319.5234 L868,319.5234 L858,309.5234 " fill="#FEFFDD" style="stroke:#181818;stroke-width:0.5;"/><text fill="#000000" font-family="sans-serif" font-size="13" lengthAdjust="spacing" textLength="210" x="553" y="326.5903">Backend filtra automaticamente:</text><text fill="#000000" font-family="sans-serif" font-size="13" lengthAdjust="spacing" textLength="300" x="553" y="341.7231">vagas onde professor = professor_autenticado</text><polygon fill="#181818" points="748,387.0547,758,391.0547,748,395.0547,752,391.0547" style="stroke:#181818;stroke-width:1.0;"/><line style="stroke:#181818;stroke-width:1.0;" x1="542" x2="754" y1="391.0547" y2="391.0547"/><text fill="#000000" font-family="sans-serif" font-size="13" lengthAdjust="spacing" textLength="139" x="549" y="370.856">SELECT vagas WHERE</text><text fill="#000000" font-family="sans-serif" font-size="13" lengthAdjust="spacing" textLength="172" x="549" y="385.9888">professor_id = professor.id</text><polygon fill="#181818" points="553,416.1875,543,420.1875,553,424.1875,549,420.1875" style="stroke:#181818;stroke-width:1.0;"/><line style="stroke:#181818;stroke-width:1.0;stroke-dasharray:2.0,2.0;" x1="547" x2="759" y1="420.1875" y2="420.1875"/><text fill="#000000" font-family="sans-serif" font-size="13" lengthAdjust="spacing" textLength="124" x="559" y="415.1216">Vagas do professor</text><polygon fill="#181818" points="278,460.4531,268,464.4531,278,468.4531,274,464.4531" style="stroke:#181818;stroke-width:1.0;"/><line style="stroke:#181818;stroke-width:1.0;stroke-dasharray:2.0,2.0;" x1="272" x2="541" y1="464.4531" y2="464.4531"/><text fill="#000000" font-family="sans-serif" font-size="13" lengthAdjust="spacing" textLength="46" x="284" y="444.2544">200 OK</text><text fill="#000000" font-family="sans-serif" font-size="13" lengthAdjust="spacing" textLength="148" x="284" y="459.3872">[{vaga1}, {vaga2}, ...]</text><polygon fill="#181818" points="67,489.5859,57,493.5859,67,497.5859,63,493.5859" style="stroke:#181818;stroke-width:1.0;"/><line style="stroke:#181818;stroke-width:1.0;" x1="61" x2="266" y1="493.5859" y2="493.5859"/><text fill="#000000" font-family="sans-serif" font-size="13" lengthAdjust="spacing" textLength="110" x="73" y="488.52">Exibe suas vagas</text><rect fill="#EEEEEE" height="3" style="stroke:#EEEEEE;stroke-width:1.0;" width="878" x="0" y="522.1523"/><line style="stroke:#000000;stroke-width:1.0;" x1="0" x2="878" y1="522.1523" y2="522.1523"/><line style="stroke:#000000;stroke-width:1.0;" x1="0" x2="878" y1="525.1523" y2="525.1523"/><rect fill="#EEEEEE" height="23.1328" style="stroke:#000000;stroke-width:2.0;" width="209" x="334.5" y="511.5859"/><text fill="#000000" font-family="sans-serif" font-size="13" font-weight="bold" lengthAdjust="spacing" textLength="190" x="340.5" y="527.6528">Professor Cria Nova Vaga</text><polygon fill="#181818" points="255,561.8516,265,565.8516,255,569.8516,259,565.8516" style="stroke:#181818;stroke-width:1.0;"/><line style="stroke:#181818;stroke-width:1.0;" x1="56" x2="261" y1="565.8516" y2="565.8516"/><text fill="#000000" font-family="sans-serif" font-size="13" lengthAdjust="spacing" textLength="136" x="63" y="560.7856">Clica em "Criar Vaga"</text><polygon fill="#181818" points="67,590.9844,57,594.9844,67,598.9844,63,594.9844" style="stroke:#181818;stroke-width:1.0;"/><line style="stroke:#181818;stroke-width:1.0;" x1="61" x2="266" y1="594.9844" y2="594.9844"/><text fill="#000000" font-family="sans-serif" font-size="13" lengthAdjust="spacing" textLength="103" x="73" y="589.9185">Exibe formul&#225;rio</text><polygon fill="#181818" points="255,710.9141,265,714.9141,255,718.9141,259,714.9141" style="stroke:#181818;stroke-width:1.0;"/><line style="stroke:#181818;stroke-width:1.0;" x1="56" x2="261" y1="714.9141" y2="714.9141"/><text fill="#000000" font-family="sans-serif" font-size="13" lengthAdjust="spacing" textLength="64" x="63" y="619.0513">Preenche:</text><text fill="#000000" font-family="sans-serif" font-size="13" lengthAdjust="spacing" textLength="69" x="63" y="634.1841">- Disciplina</text><text fill="#000000" font-family="sans-serif" font-size="13" lengthAdjust="spacing" textLength="128" x="63" y="649.3169">- Tipo (Monitoria/TA)</text><text fill="#000000" font-family="sans-serif" font-size="13" lengthAdjust="spacing" textLength="72" x="63" y="664.4497">- Descri&#231;&#227;o</text><text fill="#000000" font-family="sans-serif" font-size="13" lengthAdjust="spacing" textLength="78" x="63" y="679.5825">- CR m&#237;nimo</text><text fill="#000000" font-family="sans-serif" font-size="13" lengthAdjust="spacing" textLength="47" x="63" y="694.7153">- Horas</text><text fill="#000000" font-family="sans-serif" font-size="13" lengthAdjust="spacing" textLength="98" x="63" y="709.8481">- Remunera&#231;&#227;o</text><polygon fill="#181818" points="530,785.4453,540,789.4453,530,793.4453,534,789.4453" style="stroke:#181818;stroke-width:1.0;"/><line style="stroke:#181818;stroke-width:1.0;" x1="267" x2="536" y1="789.4453" y2="789.4453"/><text fill="#000000" font-family="sans-serif" font-size="13" lengthAdjust="spacing" textLength="107" x="274" y="738.981">POST /api/vagas/</text><text fill="#000000" font-family="sans-serif" font-size="13" lengthAdjust="spacing" textLength="174" x="274" y="754.1138">{disciplina_id, professor_id,</text><text fill="#000000" font-family="sans-serif" font-size="13" lengthAdjust="spacing" textLength="172" x="274" y="769.2466">tipo, descricao, cr_minimo,</text><text fill="#000000" font-family="sans-serif" font-size="13" lengthAdjust="spacing" textLength="186" x="274" y="784.3794">horas, remuneracao, status}</text><polygon fill="#181818" points="748,844.8438,758,848.8438,748,852.8438,752,848.8438" style="stroke:#181818;stroke-width:1.0;"/><line style="stroke:#181818;stroke-width:1.0;" x1="542" x2="754" y1="848.8438" y2="848.8438"/><text fill="#000000" font-family="sans-serif" font-size="13" lengthAdjust="spacing" textLength="43" x="549" y="813.5122">Valida:</text><text fill="#000000" font-family="sans-serif" font-size="13" lengthAdjust="spacing" textLength="118" x="549" y="828.645">- Disciplina existe?</text><text fill="#000000" font-family="sans-serif" font-size="13" lengthAdjust="spacing" textLength="194" x="549" y="843.7778">- Professor ministra disciplina?</text><path d="M10,863.8438 L74,863.8438 L74,870.9766 L64,880.9766 L10,880.9766 L10,863.8438 " fill="#EEEEEE" style="stroke:#000000;stroke-width:1.5;"/><rect fill="none" height="221.8672" style="stroke:#000000;stroke-width:1.5;" width="820.5" x="10" y="863.8438"/><text fill="#000000" font-family="sans-serif" font-size="13" font-weight="bold" lengthAdjust="spacing" textLength="19" x="25" y="876.9106">alt</text><text fill="#000000" font-family="sans-serif" font-size="11" font-weight="bold" lengthAdjust="spacing" textLength="100" x="89" y="876.0542">[Dados v&#225;lidos]</text><polygon fill="#181818" points="748,898.1094,758,902.1094,748,906.1094,752,902.1094" style="stroke:#181818;stroke-width:1.0;"/><line style="stroke:#181818;stroke-width:1.0;" x1="542" x2="754" y1="902.1094" y2="902.1094"/><text fill="#000000" font-family="sans-serif" font-size="13" lengthAdjust="spacing" textLength="80" x="549" y="897.0435">INSERT vaga</text><polygon fill="#181818" points="553,927.2422,543,931.2422,553,935.2422,549,931.2422" style="stroke:#181818;stroke-width:1.0;"/><line style="stroke:#181818;stroke-width:1.0;stroke-dasharray:2.0,2.0;" x1="547" x2="759" y1="931.2422" y2="931.2422"/><text fill="#000000" font-family="sans-serif" font-size="13" lengthAdjust="spacing" textLength="76" x="559" y="926.1763">Vaga criada</text><polygon fill="#181818" points="278,956.375,268,960.375,278,964.375,274,960.375" style="stroke:#181818;stroke-width:1.0;"/><line style="stroke:#181818;stroke-width:1.0;stroke-dasharray:2.0,2.0;" x1="272" x2="541" y1="960.375" y2="960.375"/><text fill="#000000" font-family="sans-serif" font-size="13" lengthAdjust="spacing" textLength="130" x="284" y="955.3091">201 Created {vaga}</text><polygon fill="#181818" points="67,1000.6406,57,1004.6406,67,1008.6406,63,1004.6406" style="stroke:#181818;stroke-width:1.0;"/><line style="stroke:#181818;stroke-width:1.0;" x1="61" x2="266" y1="1004.6406" y2="1004.6406"/><text fill="#000000" font-family="sans-serif" font-size="13" lengthAdjust="spacing" textLength="187" x="73" y="984.4419">Exibe mensagem de sucesso</text><text fill="#000000" font-family="sans-serif" font-size="13" lengthAdjust="spacing" textLength="92" x="73" y="999.5747">e atualiza lista</text><line style="stroke:#000000;stroke-width:1.0;stroke-dasharray:2.0,2.0;" x1="10" x2="830.5" y1="1013.6406" y2="1013.6406"/><text fill="#000000" font-family="sans-serif" font-size="11" font-weight="bold" lengthAdjust="spacing" textLength="122" x="15" y="1023.8511">[Erro de valida&#231;&#227;o]</text><polygon fill="#181818" points="278,1044.5781,268,1048.5781,278,1052.5781,274,1048.5781" style="stroke:#181818;stroke-width:1.0;"/><line style="stroke:#181818;stroke-width:1.0;stroke-dasharray:2.0,2.0;" x1="272" x2="541" y1="1048.5781" y2="1048.5781"/><text fill="#000000" font-family="sans-serif" font-size="13" lengthAdjust="spacing" textLength="155" x="284" y="1043.5122">400 Bad Request {erro}</text><polygon fill="#181818" points="67,1073.7109,57,1077.7109,67,1081.7109,63,1077.7109" style="stroke:#181818;stroke-width:1.0;"/><line style="stroke:#181818;stroke-width:1.0;" x1="61" x2="266" y1="1077.7109" y2="1077.7109"/><text fill="#000000" font-family="sans-serif" font-size="13" lengthAdjust="spacing" textLength="64" x="73" y="1072.645">Exibe erro</text><rect fill="#EEEEEE" height="3" style="stroke:#EEEEEE;stroke-width:1.0;" width="878" x="0" y="1113.2773"/><line style="stroke:#000000;stroke-width:1.0;" x1="0" x2="878" y1="1113.2773" y2="1113.2773"/><line style="stroke:#000000;stroke-width:1.0;" x1="0" x2="878" y1="1116.2773" y2="1116.2773"/><rect fill="#EEEEEE" height="23.1328" style="stroke:#000000;stroke-width:2.0;" width="176" x="351" y="1102.7109"/><text fill="#000000" font-family="sans-serif" font-size="13" font-weight="bold" lengthAdjust="spacing" textLength="157" x="357" y="1118.7778">Professor Edita Vaga</text><polygon fill="#181818" points="255,1152.9766,265,1156.9766,255,1160.9766,259,1156.9766" style="stroke:#181818;stroke-width:1.0;"/><line style="stroke:#181818;stroke-width:1.0;" x1="56" x2="261" y1="1156.9766" y2="1156.9766"/><text fill="#000000" font-family="sans-serif" font-size="13" lengthAdjust="spacing" textLength="161" x="63" y="1151.9106">Clica em "Editar" na vaga</text><polygon fill="#181818" points="67,1182.1094,57,1186.1094,67,1190.1094,63,1186.1094" style="stroke:#181818;stroke-width:1.0;"/><line style="stroke:#181818;stroke-width:1.0;" x1="61" x2="266" y1="1186.1094" y2="1186.1094"/><text fill="#000000" font-family="sans-serif" font-size="13" lengthAdjust="spacing" textLength="178" x="73" y="1181.0435">Exibe formul&#225;rio preenchido</text><polygon fill="#181818" points="255,1226.375,265,1230.375,255,1234.375,259,1230.375" style="stroke:#181818;stroke-width:1.0;"/><line style="stroke:#181818;stroke-width:1.0;" x1="56" x2="261" y1="1230.375" y2="1230.375"/><text fill="#000000" font-family="sans-serif" font-size="13" lengthAdjust="spacing" textLength="81" x="63" y="1210.1763">Altera dados</text><text fill="#000000" font-family="sans-serif" font-size="13" lengthAdjust="spacing" textLength="146" x="63" y="1225.3091">(ex.: status, descri&#231;&#227;o)</text><polygon fill="#181818" points="530,1270.6406,540,1274.6406,530,1278.6406,534,1274.6406" style="stroke:#181818;stroke-width:1.0;"/><line style="stroke:#181818;stroke-width:1.0;" x1="267" x2="536" y1="1274.6406" y2="1274.6406"/><text fill="#000000" font-family="sans-serif" font-size="13" lengthAdjust="spacing" textLength="147" x="274" y="1254.4419">PATCH /api/vagas/{id}/</text><text fill="#000000" font-family="sans-serif" font-size="13" lengthAdjust="spacing" textLength="227" x="274" y="1269.5747">{status: "Fechada", descricao: "..."}</text><polygon fill="#181818" points="748,1314.9063,758,1318.9063,748,1322.9063,752,1318.9063" style="stroke:#181818;stroke-width:1.0;"/><line style="stroke:#181818;stroke-width:1.0;" x1="542" x2="754" y1="1318.9063" y2="1318.9063"/><text fill="#000000" font-family="sans-serif" font-size="13" lengthAdjust="spacing" textLength="162" x="549" y="1298.7075">Verifica se vaga pertence</text><text fill="#000000" font-family="sans-serif" font-size="13" lengthAdjust="spacing" textLength="80" x="549" y="1313.8403">ao professor</text><path d="M10,1333.9063 L74,1333.9063 L74,1341.0391 L64,1351.0391 L10,1351.0391 L10,1333.9063 " fill="#EEEEEE" style="stroke:#000000;stroke-width:1.5;"/><rect fill="none" height="206.7344" style="stroke:#000000;stroke-width:1.5;" width="820.5" x="10" y="1333.9063"/><text fill="#000000" font-family="sans-serif" font-size="13" font-weight="bold" lengthAdjust="spacing" textLength="19" x="25" y="1346.9731">alt</text><text fill="#000000" font-family="sans-serif" font-size="11" font-weight="bold" lengthAdjust="spacing" textLength="174" x="89" y="1346.1167">[Professor &#233; dono da vaga]</text><polygon fill="#181818" points="748,1368.1719,758,1372.1719,748,1376.1719,752,1372.1719" style="stroke:#181818;stroke-width:1.0;"/><line style="stroke:#181818;stroke-width:1.0;" x1="542" x2="754" y1="1372.1719" y2="1372.1719"/><text fill="#000000" font-family="sans-serif" font-size="13" lengthAdjust="spacing" textLength="87" x="549" y="1367.106">UPDATE vaga</text><polygon fill="#181818" points="553,1397.3047,543,1401.3047,553,1405.3047,549,1401.3047" style="stroke:#181818;stroke-width:1.0;"/><line style="stroke:#181818;stroke-width:1.0;stroke-dasharray:2.0,2.0;" x1="547" x2="759" y1="1401.3047" y2="1401.3047"/><text fill="#000000" font-family="sans-serif" font-size="13" lengthAdjust="spacing" textLength="103" x="559" y="1396.2388">Vaga atualizada</text><polygon fill="#181818" points="278,1426.4375,268,1430.4375,278,1434.4375,274,1430.4375" style="stroke:#181818;stroke-width:1.0;"/><line style="stroke:#181818;stroke-width:1.0;stroke-dasharray:2.0,2.0;" x1="272" x2="541" y1="1430.4375" y2="1430.4375"/><text fill="#000000" font-family="sans-serif" font-size="13" lengthAdjust="spacing" textLength="97" x="284" y="1425.3716">200 OK {vaga}</text><polygon fill="#181818" points="67,1455.5703,57,1459.5703,67,1463.5703,63,1459.5703" style="stroke:#181818;stroke-width:1.0;"/><line style="stroke:#181818;stroke-width:1.0;" x1="61" x2="266" y1="1459.5703" y2="1459.5703"/><text fill="#000000" font-family="sans-serif" font-size="13" lengthAdjust="spacing" textLength="81" x="73" y="1454.5044">Atualiza lista</text><line style="stroke:#000000;stroke-width:1.0;stroke-dasharray:2.0,2.0;" x1="10" x2="830.5" y1="1468.5703" y2="1468.5703"/><text fill="#000000" font-family="sans-serif" font-size="11" font-weight="bold" lengthAdjust="spacing" textLength="147" x="15" y="1478.7808">[Professor n&#227;o &#233; dono]</text><polygon fill="#181818" points="278,1499.5078,268,1503.5078,278,1507.5078,274,1503.5078" style="stroke:#181818;stroke-width:1.0;"/><line style="stroke:#181818;stroke-width:1.0;stroke-dasharray:2.0,2.0;" x1="272" x2="541" y1="1503.5078" y2="1503.5078"/><text fill="#000000" font-family="sans-serif" font-size="13" lengthAdjust="spacing" textLength="91" x="284" y="1498.4419">403 Forbidden</text><polygon fill="#181818" points="67,1528.6406,57,1532.6406,67,1536.6406,63,1532.6406" style="stroke:#181818;stroke-width:1.0;"/><line style="stroke:#181818;stroke-width:1.0;" x1="61" x2="266" y1="1532.6406" y2="1532.6406"/><text fill="#000000" font-family="sans-serif" font-size="13" lengthAdjust="spacing" textLength="64" x="73" y="1527.5747">Exibe erro</text><rect fill="#EEEEEE" height="3" style="stroke:#EEEEEE;stroke-width:1.0;" width="878" x="0" y="1568.207"/><line style="stroke:#000000;stroke-width:1.0;" x1="0" x2="878" y1="1568.207" y2="1568.207"/><line style="stroke:#000000;stroke-width:1.0;" x1="0" x2="878" y1="1571.207" y2="1571.207"/><rect fill="#EEEEEE" height="23.1328" style="stroke:#000000;stroke-width:2.0;" width="218" x="330" y="1557.6406"/><text fill="#000000" font-family="sans-serif" font-size="13" font-weight="bold" lengthAdjust="spacing" textLength="199" x="336" y="1573.7075">Professor V&#234; Candidaturas</text><polygon fill="#181818" points="255,1607.9063,265,1611.9063,255,1615.9063,259,1611.9063" style="stroke:#181818;stroke-width:1.0;"/><line style="stroke:#181818;stroke-width:1.0;" x1="56" x2="261" y1="1611.9063" y2="1611.9063"/><text fill="#000000" font-family="sans-serif" font-size="13" lengthAdjust="spacing" textLength="180" x="63" y="1606.8403">Clica em "Ver Candidaturas"</text><polygon fill="#181818" points="530,1637.0391,540,1641.0391,530,1645.0391,534,1641.0391" style="stroke:#181818;stroke-width:1.0;"/><line style="stroke:#181818;stroke-width:1.0;" x1="267" x2="536" y1="1641.0391" y2="1641.0391"/><text fill="#000000" font-family="sans-serif" font-size="13" lengthAdjust="spacing" textLength="216" x="274" y="1635.9731">GET /api/vagas/{id}/candidaturas/</text><polygon fill="#181818" points="748,1681.3047,758,1685.3047,748,1689.3047,752,1685.3047" style="stroke:#181818;stroke-width:1.0;"/><line style="stroke:#181818;stroke-width:1.0;" x1="542" x2="754" y1="1685.3047" y2="1685.3047"/><text fill="#000000" font-family="sans-serif" font-size="13" lengthAdjust="spacing" textLength="135" x="549" y="1665.106">SELECT candidaturas</text><text fill="#000000" font-family="sans-serif" font-size="13" lengthAdjust="spacing" textLength="144" x="549" y="1680.2388">WHERE vaga_id = {id}</text><polygon fill="#181818" points="553,1710.4375,543,1714.4375,553,1718.4375,549,1714.4375" style="stroke:#181818;stroke-width:1.0;"/><line style="stroke:#181818;stroke-width:1.0;stroke-dasharray:2.0,2.0;" x1="547" x2="759" y1="1714.4375" y2="1714.4375"/><text fill="#000000" font-family="sans-serif" font-size="13" lengthAdjust="spacing" textLength="124" x="559" y="1709.3716">Lista de candidatos</text><polygon fill="#181818" points="278,1784.9688,268,1788.9688,278,1792.9688,274,1788.9688" style="stroke:#181818;stroke-width:1.0;"/><line style="stroke:#181818;stroke-width:1.0;stroke-dasharray:2.0,2.0;" x1="272" x2="541" y1="1788.9688" y2="1788.9688"/><text fill="#000000" font-family="sans-serif" font-size="13" lengthAdjust="spacing" textLength="46" x="284" y="1738.5044">200 OK</text><text fill="#000000" font-family="sans-serif" font-size="13" lengthAdjust="spacing" textLength="101" x="284" y="1753.6372">[{candidatura1:</text><text fill="#000000" font-family="sans-serif" font-size="13" lengthAdjust="spacing" textLength="159" x="292" y="1768.77">{aluno_nome, matricula,</text><text fill="#000000" font-family="sans-serif" font-size="13" lengthAdjust="spacing" textLength="156" x="292" y="1783.9028">status, criado_em}}, ...]</text><polygon fill="#181818" points="67,1874.6328,57,1878.6328,67,1882.6328,63,1878.6328" style="stroke:#181818;stroke-width:1.0;"/><line style="stroke:#181818;stroke-width:1.0;" x1="61" x2="266" y1="1878.6328" y2="1878.6328"/><text fill="#000000" font-family="sans-serif" font-size="13" lengthAdjust="spacing" textLength="82" x="73" y="1813.0356">Exibe tabela:</text><text fill="#000000" font-family="sans-serif" font-size="13" lengthAdjust="spacing" textLength="107" x="73" y="1828.1685">- Nome do aluno</text><text fill="#000000" font-family="sans-serif" font-size="13" lengthAdjust="spacing" textLength="67" x="73" y="1843.3013">- Matr&#237;cula</text><text fill="#000000" font-family="sans-serif" font-size="13" lengthAdjust="spacing" textLength="51" x="73" y="1858.4341">- Status</text><text fill="#000000" font-family="sans-serif" font-size="13" lengthAdjust="spacing" textLength="140" x="73" y="1873.5669">- Data de candidatura</text><rect fill="#EEEEEE" height="3" style="stroke:#EEEEEE;stroke-width:1.0;" width="878" x="0" y="1907.1992"/><line style="stroke:#000000;stroke-width:1.0;" x1="0" x2="878" y1="1907.1992" y2="1907.1992"/><line style="stroke:#000000;stroke-width:1.0;" x1="0" x2="878" y1="1910.1992" y2="1910.1992"/><rect fill="#EEEEEE" height="23.1328" style="stroke:#000000;stroke-width:2.0;" width="219" x="329.5" y="1896.6328"/><text fill="#000000" font-family="sans-serif" font-size="13" font-weight="bold" lengthAdjust="spacing" textLength="200" x="335.5" y="1912.6997">Professor Marca Entrevista</text><polygon fill="#181818" points="255,1962.0313,265,1966.0313,255,1970.0313,259,1966.0313" style="stroke:#181818;stroke-width:1.0;"/><line style="stroke:#181818;stroke-width:1.0;" x1="56" x2="261" y1="1966.0313" y2="1966.0313"/><text fill="#000000" font-family="sans-serif" font-size="13" lengthAdjust="spacing" textLength="129" x="63" y="1945.8325">Seleciona candidato</text><text fill="#000000" font-family="sans-serif" font-size="13" lengthAdjust="spacing" textLength="166" x="63" y="1960.9653">e clica "Marcar Entrevista"</text><polygon fill="#181818" points="67,1991.1641,57,1995.1641,67,1999.1641,63,1995.1641" style="stroke:#181818;stroke-width:1.0;"/><line style="stroke:#181818;stroke-width:1.0;" x1="61" x2="266" y1="1995.1641" y2="1995.1641"/><text fill="#000000" font-family="sans-serif" font-size="13" lengthAdjust="spacing" textLength="144" x="73" y="1990.0981">Exibe modal para data</text><polygon fill="#181818" points="255,2020.2969,265,2024.2969,255,2028.2969,259,2024.2969" style="stroke:#181818;stroke-width:1.0;"/><line style="stroke:#181818;stroke-width:1.0;" x1="56" x2="261" y1="2024.2969" y2="2024.2969"/><text fill="#000000" font-family="sans-serif" font-size="13" lengthAdjust="spacing" textLength="170" x="63" y="2019.231">Informa data da entrevista</text><polygon fill="#181818" points="530,2079.6953,540,2083.6953,530,2087.6953,534,2083.6953" style="stroke:#181818;stroke-width:1.0;"/><line style="stroke:#181818;stroke-width:1.0;" x1="267" x2="536" y1="2083.6953" y2="2083.6953"/><text fill="#000000" font-family="sans-serif" font-size="13" lengthAdjust="spacing" textLength="183" x="274" y="2048.3638">POST /api/candidaturas/{id}/</text><text fill="#000000" font-family="sans-serif" font-size="13" lengthAdjust="spacing" textLength="121" x="274" y="2063.4966">marcar_entrevista/</text><text fill="#000000" font-family="sans-serif" font-size="13" lengthAdjust="spacing" textLength="251" x="274" y="2078.6294">{data_entrevista: "2025-11-05T14:00"}</text><polygon fill="#181818" points="748,2123.9609,758,2127.9609,748,2131.9609,752,2127.9609" style="stroke:#181818;stroke-width:1.0;"/><line style="stroke:#181818;stroke-width:1.0;" x1="542" x2="754" y1="2127.9609" y2="2127.9609"/><text fill="#000000" font-family="sans-serif" font-size="13" lengthAdjust="spacing" textLength="130" x="549" y="2107.7622">Verifica se professor</text><text fill="#000000" font-family="sans-serif" font-size="13" lengthAdjust="spacing" textLength="99" x="549" y="2122.895">&#233; dono da vaga</text><path d="M10,2142.9609 L74,2142.9609 L74,2150.0938 L64,2160.0938 L10,2160.0938 L10,2142.9609 " fill="#EEEEEE" style="stroke:#000000;stroke-width:1.5;"/><rect fill="none" height="237" style="stroke:#000000;stroke-width:1.5;" width="820.5" x="10" y="2142.9609"/><text fill="#000000" font-family="sans-serif" font-size="13" font-weight="bold" lengthAdjust="spacing" textLength="19" x="25" y="2156.0278">alt</text><text fill="#000000" font-family="sans-serif" font-size="11" font-weight="bold" lengthAdjust="spacing" textLength="165" x="89" y="2155.1714">[Professor &#233; respons&#225;vel]</text><polygon fill="#181818" points="748,2192.3594,758,2196.3594,748,2200.3594,752,2196.3594" style="stroke:#181818;stroke-width:1.0;"/><line style="stroke:#181818;stroke-width:1.0;" x1="542" x2="754" y1="2196.3594" y2="2196.3594"/><text fill="#000000" font-family="sans-serif" font-size="13" lengthAdjust="spacing" textLength="132" x="549" y="2176.1606">UPDATE candidatura</text><text fill="#000000" font-family="sans-serif" font-size="13" lengthAdjust="spacing" textLength="180" x="549" y="2191.2935">status='Entrevista Marcada'</text><polygon fill="#181818" points="553,2221.4922,543,2225.4922,553,2229.4922,549,2225.4922" style="stroke:#181818;stroke-width:1.0;"/><line style="stroke:#181818;stroke-width:1.0;stroke-dasharray:2.0,2.0;" x1="547" x2="759" y1="2225.4922" y2="2225.4922"/><text fill="#000000" font-family="sans-serif" font-size="13" lengthAdjust="spacing" textLength="148" x="559" y="2220.4263">Candidatura atualizada</text><polygon fill="#181818" points="278,2265.7578,268,2269.7578,278,2273.7578,274,2269.7578" style="stroke:#181818;stroke-width:1.0;"/><line style="stroke:#181818;stroke-width:1.0;stroke-dasharray:2.0,2.0;" x1="272" x2="541" y1="2269.7578" y2="2269.7578"/><text fill="#000000" font-family="sans-serif" font-size="13" lengthAdjust="spacing" textLength="46" x="284" y="2249.5591">200 OK</text><text fill="#000000" font-family="sans-serif" font-size="13" lengthAdjust="spacing" textLength="92" x="284" y="2264.6919">{candidatura}</text><polygon fill="#181818" points="67,2294.8906,57,2298.8906,67,2302.8906,63,2298.8906" style="stroke:#181818;stroke-width:1.0;"/><line style="stroke:#181818;stroke-width:1.0;" x1="61" x2="266" y1="2298.8906" y2="2298.8906"/><text fill="#000000" font-family="sans-serif" font-size="13" lengthAdjust="spacing" textLength="117" x="73" y="2293.8247">Exibe confirma&#231;&#227;o</text><line style="stroke:#000000;stroke-width:1.0;stroke-dasharray:2.0,2.0;" x1="10" x2="830.5" y1="2307.8906" y2="2307.8906"/><text fill="#000000" font-family="sans-serif" font-size="11" font-weight="bold" lengthAdjust="spacing" textLength="193" x="15" y="2318.1011">[Professor n&#227;o &#233; respons&#225;vel]</text><polygon fill="#181818" points="278,2338.8281,268,2342.8281,278,2346.8281,274,2342.8281" style="stroke:#181818;stroke-width:1.0;"/><line style="stroke:#181818;stroke-width:1.0;stroke-dasharray:2.0,2.0;" x1="272" x2="541" y1="2342.8281" y2="2342.8281"/><text fill="#000000" font-family="sans-serif" font-size="13" lengthAdjust="spacing" textLength="91" x="284" y="2337.7622">403 Forbidden</text><polygon fill="#181818" points="67,2367.9609,57,2371.9609,67,2375.9609,63,2371.9609" style="stroke:#181818;stroke-width:1.0;"/><line style="stroke:#181818;stroke-width:1.0;" x1="61" x2="266" y1="2371.9609" y2="2371.9609"/><text fill="#000000" font-family="sans-serif" font-size="13" lengthAdjust="spacing" textLength="64" x="73" y="2366.895">Exibe erro</text><rect fill="#EEEEEE" height="3" style="stroke:#EEEEEE;stroke-width:1.0;" width="878" x="0" y="2407.5273"/><line style="stroke:#000000;stroke-width:1.0;" x1="0" x2="878" y1="2407.5273" y2="2407.5273"/><line style="stroke:#000000;stroke-width:1.0;" x1="0" x2="878" y1="2410.5273" y2="2410.5273"/><rect fill="#EEEEEE" height="23.1328" style="stroke:#000000;stroke-width:2.0;" width="180" x="349" y="2396.9609"/><text fill="#000000" font-family="sans-serif" font-size="13" font-weight="bold" lengthAdjust="spacing" textLength="161" x="355" y="2413.0278">Professor Exclui Vaga</text><polygon fill="#181818" points="255,2447.2266,265,2451.2266,255,2455.2266,259,2451.2266" style="stroke:#181818;stroke-width:1.0;"/><line style="stroke:#181818;stroke-width:1.0;" x1="56" x2="261" y1="2451.2266" y2="2451.2266"/><text fill="#000000" font-family="sans-serif" font-size="13" lengthAdjust="spacing" textLength="147" x="63" y="2446.1606">Clica em "Excluir Vaga"</text><polygon fill="#181818" points="67,2476.3594,57,2480.3594,67,2484.3594,63,2480.3594" style="stroke:#181818;stroke-width:1.0;"/><line style="stroke:#181818;stroke-width:1.0;" x1="61" x2="266" y1="2480.3594" y2="2480.3594"/><text fill="#000000" font-family="sans-serif" font-size="13" lengthAdjust="spacing" textLength="93" x="73" y="2475.2935">Confirma a&#231;&#227;o</text><polygon fill="#181818" points="255,2505.4922,265,2509.4922,255,2513.4922,259,2509.4922" style="stroke:#181818;stroke-width:1.0;"/><line style="stroke:#181818;stroke-width:1.0;" x1="56" x2="261" y1="2509.4922" y2="2509.4922"/><text fill="#000000" font-family="sans-serif" font-size="13" lengthAdjust="spacing" textLength="118" x="63" y="2504.4263">Confirma exclus&#227;o</text><polygon fill="#181818" points="530,2534.625,540,2538.625,530,2542.625,534,2538.625" style="stroke:#181818;stroke-width:1.0;"/><line style="stroke:#181818;stroke-width:1.0;" x1="267" x2="536" y1="2538.625" y2="2538.625"/><text fill="#000000" font-family="sans-serif" font-size="13" lengthAdjust="spacing" textLength="152" x="274" y="2533.5591">DELETE /api/vagas/{id}/</text><polygon fill="#181818" points="748,2578.8906,758,2582.8906,748,2586.8906,752,2582.8906" style="stroke:#181818;stroke-width:1.0;"/><line style="stroke:#181818;stroke-width:1.0;" x1="542" x2="754" y1="2582.8906" y2="2582.8906"/><text fill="#000000" font-family="sans-serif" font-size="13" lengthAdjust="spacing" textLength="101" x="549" y="2562.6919">Verifica se vaga</text><text fill="#000000" font-family="sans-serif" font-size="13" lengthAdjust="spacing" textLength="141" x="549" y="2577.8247">pertence ao professor</text><path d="M10,2597.8906 L74,2597.8906 L74,2605.0234 L64,2615.0234 L10,2615.0234 L10,2597.8906 " fill="#EEEEEE" style="stroke:#000000;stroke-width:1.5;"/><rect fill="none" height="206.7344" style="stroke:#000000;stroke-width:1.5;" width="820.5" x="10" y="2597.8906"/><text fill="#000000" font-family="sans-serif" font-size="13" font-weight="bold" lengthAdjust="spacing" textLength="19" x="25" y="2610.9575">alt</text><text fill="#000000" font-family="sans-serif" font-size="11" font-weight="bold" lengthAdjust="spacing" textLength="119" x="89" y="2610.1011">[Professor &#233; dono]</text><polygon fill="#181818" points="748,2632.1563,758,2636.1563,748,2640.1563,752,2636.1563" style="stroke:#181818;stroke-width:1.0;"/><line style="stroke:#181818;stroke-width:1.0;" x1="542" x2="754" y1="2636.1563" y2="2636.1563"/><text fill="#000000" font-family="sans-serif" font-size="13" lengthAdjust="spacing" textLength="83" x="549" y="2631.0903">DELETE vaga</text><polygon fill="#181818" points="553,2661.2891,543,2665.2891,553,2669.2891,549,2665.2891" style="stroke:#181818;stroke-width:1.0;"/><line style="stroke:#181818;stroke-width:1.0;stroke-dasharray:2.0,2.0;" x1="547" x2="759" y1="2665.2891" y2="2665.2891"/><text fill="#000000" font-family="sans-serif" font-size="13" lengthAdjust="spacing" textLength="89" x="559" y="2660.2231">Vaga exclu&#237;da</text><polygon fill="#181818" points="278,2690.4219,268,2694.4219,278,2698.4219,274,2694.4219" style="stroke:#181818;stroke-width:1.0;"/><line style="stroke:#181818;stroke-width:1.0;stroke-dasharray:2.0,2.0;" x1="272" x2="541" y1="2694.4219" y2="2694.4219"/><text fill="#000000" font-family="sans-serif" font-size="13" lengthAdjust="spacing" textLength="101" x="284" y="2689.356">204 No Content</text><polygon fill="#181818" points="67,2719.5547,57,2723.5547,67,2727.5547,63,2723.5547" style="stroke:#181818;stroke-width:1.0;"/><line style="stroke:#181818;stroke-width:1.0;" x1="61" x2="266" y1="2723.5547" y2="2723.5547"/><text fill="#000000" font-family="sans-serif" font-size="13" lengthAdjust="spacing" textLength="137" x="73" y="2718.4888">Remove vaga da lista</text><line style="stroke:#000000;stroke-width:1.0;stroke-dasharray:2.0,2.0;" x1="10" x2="830.5" y1="2732.5547" y2="2732.5547"/><text fill="#000000" font-family="sans-serif" font-size="11" font-weight="bold" lengthAdjust="spacing" textLength="147" x="15" y="2742.7651">[Professor n&#227;o &#233; dono]</text><polygon fill="#181818" points="278,2763.4922,268,2767.4922,278,2771.4922,274,2767.4922" style="stroke:#181818;stroke-width:1.0;"/><line style="stroke:#181818;stroke-width:1.0;stroke-dasharray:2.0,2.0;" x1="272" x2="541" y1="2767.4922" y2="2767.4922"/><text fill="#000000" font-family="sans-serif" font-size="13" lengthAdjust="spacing" textLength="91" x="284" y="2762.4263">403 Forbidden</text><polygon fill="#181818" points="67,2792.625,57,2796.625,67,2800.625,63,2796.625" style="stroke:#181818;stroke-width:1.0;"/><line style="stroke:#181818;stroke-width:1.0;" x1="61" x2="266" y1="2796.625" y2="2796.625"/><text fill="#000000" font-family="sans-serif" font-size="13" lengthAdjust="spacing" textLength="64" x="73" y="2791.5591">Exibe erro</text><!--SRC=[lPRDRY974CVlynGbBhjMm83ZlI2H5SPulShQQndMEOG85TEDtSbCDzizWwmW7iRA8SfAVWfUB5KzV0nu02UASfkPhgwkZr__QnALH1BE5TvRZ164XAxyciw_wL0XLE36cf5qpbZu8Atq7-_m7bqGO9ZGrzBAe0JeO4nlmHXjea8rHfr0wS8QdKWj-lhjhQGzHzvkjFYwQNk6uM-PwVclgEyDj6u-PlR3R2KGcE0GdMHR7HeEzno5STv838E00u3A3wi3e06jaE93g8wNaGR1QfKi5wx9y4Ed1rKSgogcoKCrbjLWkKPcOaWMPwaB4LANpf-iCa1sKbFu5450wvKDRrzSYcpq7Oob7QbeNSgrsyr0Jser-FnZNqyJDJQ3DDlVWD8gy5AvhpDd3PWAoRN3c28mizd1d2RSjMgWJIB1glk7901Or1l8OMAHqp4nSZxiL3R8mky2ewdEgoYWkNuUv4l0hjX_yA9ktSwdJhktyFRJPUUsGuciV2YHTtcinCjYUkP06CWryK0LVvxoSVLP6Vp32JqS7n__ib4dJqi3EezgA87gxR8GWw3Pp97VjaJzjPbaw4EpMKHPEw8YW8oXnERMcvPs7pOoDauZZr4Xj3TMqcrxa8s-hj3jT7H58gMHttf41xozCbhH1LHOxRMEl95qeLNpF-T_67vjtq8yVzOgzc-NngBZXriPfrfQz7QxeBdvtDsWXf0Kgn2eNMN8Du-WP63BT1avWX3fCRI3MF7XjFZ0PvV1Baxswox197MpbwJSOQG4RcKDyb6vHBxdh-ksy06EkLt7zfvaAKeoIO39_8by6KSORv_oyRhRkSrufDL2sYW5XGBpcxSvgnCP4XCfCi9cPBkpttIZ7DuJ7e91OqMYlaYWAb32loD4b0e6CY9fwrZhXMtYIv4rQcSKfqJx6GhgwzTKkWIcadRlZOGD-AfkGTuHAdabuDwKz9uQuolu6iXfmGDD3IaMwIYHt4hk7Ec_V3nkB21PSkKBSRIBs5QlVPb7Tgh4ZBdDV928NiZmWVfPoc5ANqaHIaKKIgj6dAwJFaMMS3eqb7sDUGrYsDObdFz52gMfTxWaQzllbvlpLg-pdxib4llPOutRYrshWAnrg9fgkOnt7rpVmuMnGoM4rF-2gRlvDsYZ5eHnaf8872IBwhwneVIwgUQR7URsLNUEeBnLN_jHvDkH3I5sz7BuVE8AyerSRYPDEJnzSYVLISy0fXYbsWoqYMKPQCuIWsc4PLvQakurnmnaF5jEgzsNYtw4P9GfvJMvvE7e3-0FL-Hz_ipk-QthlNj9nSr4ABQjbbsXfLvqT6BbnATTtBAkZ6Ie32d0gYOiPw7lPCaxiJalUmPXR0H6GByoVFa9rABJFcfMaio0RvTSEJuum3QeM8X2xCCRhBtu0KU-Svz86qvg9-ygzNgbzgvNFstKQeU4OYKBVRsj12-5maetDjhDdoOosYqKkUZxEeEa-IRN75zeWM-An2HtZ_w1fb0bSeVk7IIXqID5RSacr0w1sPNdVoiqdSSmIjKhfvUttVE3rbxa1SkVf29tInl9tXoR5PDuJh93ZTmMgyCZn__f-va36oEdUEOK8BGuUU-iyT7Fd_TZSKhwmWdpZtvnR-YdqamMarBypnFdRm00]--></g></svg>