<?xml version="1.0" encoding="us-ascii" standalone="no"?><svg xmlns="http://www.w3.org/2000/svg" xmlns:xlink="http://www.w3.org/1999/xlink" contentStyleType="text/css" height="1003px" preserveAspectRatio="none" style="width:738px;height:1003px;background:#FFFFFF;" version="1.1" viewBox="0 0 738 1003" width="738px" zoomAndPan="magnify"><defs/><g><text fill="#000000" font-family="sans-serif" font-size="14" font-weight="bold" lengthAdjust="spacing" textLength="455" x="134.965" y="22.9951">Diagrama de Classes Conceitual - Plataforma de Monitoria</text><!--class Usuario--><g id="elem_Usuario"><rect codeLine="9" fill="#F1F1F1" height="97.1563" id="Usuario" rx="2.5" ry="2.5" style="stroke:#181818;stroke-width:0.5;" width="72" x="204.43" y="44.2969"/><text fill="#000000" font-family="sans-serif" font-size="12" font-style="italic" lengthAdjust="spacing" textLength="70" x="205.43" y="60.4355">&#171;entidade&#187;</text><text fill="#000000" font-family="sans-serif" font-size="14" lengthAdjust="spacing" textLength="52" x="214.43" y="76.2607">Usuario</text><line style="stroke:#181818;stroke-width:0.5;" x1="205.43" x2="275.43" y1="84.5625" y2="84.5625"/><text fill="#000000" font-family="sans-serif" font-size="14" lengthAdjust="spacing" textLength="24" x="210.43" y="101.5576">+id</text><text fill="#000000" font-family="sans-serif" font-size="14" lengthAdjust="spacing" textLength="52" x="210.43" y="117.8545">+nome</text><text fill="#000000" font-family="sans-serif" font-size="14" lengthAdjust="spacing" textLength="48" x="210.43" y="134.1514">+email</text></g><!--class Aluno--><g id="elem_Aluno"><rect codeLine="15" fill="#F1F1F1" height="80.8594" id="Aluno" rx="2.5" ry="2.5" style="stroke:#181818;stroke-width:0.5;" width="86" x="578.43" y="526.2969"/><text fill="#000000" font-family="sans-serif" font-size="12" font-style="italic" lengthAdjust="spacing" textLength="49" x="596.93" y="542.4355">&#171;papel&#187;</text><text fill="#000000" font-family="sans-serif" font-size="14" lengthAdjust="spacing" textLength="39" x="601.93" y="558.2607">Aluno</text><line style="stroke:#181818;stroke-width:0.5;" x1="579.43" x2="663.43" y1="566.5625" y2="566.5625"/><text fill="#000000" font-family="sans-serif" font-size="14" lengthAdjust="spacing" textLength="74" x="584.43" y="583.5576">+matricula</text><text fill="#000000" font-family="sans-serif" font-size="14" lengthAdjust="spacing" textLength="51" x="584.43" y="599.8545">+curso</text></g><!--class Professor--><g id="elem_Professor"><rect codeLine="20" fill="#F1F1F1" height="64.5625" id="Professor" rx="2.5" ry="2.5" style="stroke:#181818;stroke-width:0.5;" width="122" x="37.43" y="360.2969"/><text fill="#000000" font-family="sans-serif" font-size="12" font-style="italic" lengthAdjust="spacing" textLength="49" x="73.93" y="376.4355">&#171;papel&#187;</text><text fill="#000000" font-family="sans-serif" font-size="14" lengthAdjust="spacing" textLength="66" x="65.43" y="392.2607">Professor</text><line style="stroke:#181818;stroke-width:0.5;" x1="38.43" x2="158.43" y1="400.5625" y2="400.5625"/><text fill="#000000" font-family="sans-serif" font-size="14" lengthAdjust="spacing" textLength="110" x="43.43" y="417.5576">+departamento</text></g><!--class Coordenador--><g id="elem_Coordenador"><rect codeLine="24" fill="#F1F1F1" height="64.5625" id="Coordenador" rx="2.5" ry="2.5" style="stroke:#181818;stroke-width:0.5;" width="122" x="179.43" y="202.2969"/><text fill="#000000" font-family="sans-serif" font-size="12" font-style="italic" lengthAdjust="spacing" textLength="49" x="215.93" y="218.4355">&#171;papel&#187;</text><text fill="#000000" font-family="sans-serif" font-size="14" lengthAdjust="spacing" textLength="91" x="194.93" y="234.2607">Coordenador</text><line style="stroke:#181818;stroke-width:0.5;" x1="180.43" x2="300.43" y1="242.5625" y2="242.5625"/><text fill="#000000" font-family="sans-serif" font-size="14" lengthAdjust="spacing" textLength="110" x="185.43" y="259.5576">+departamento</text></g><!--class Curso--><g id="elem_Curso"><rect codeLine="28" fill="#F1F1F1" height="97.1563" id="Curso" rx="2.5" ry="2.5" style="stroke:#181818;stroke-width:0.5;" width="91" x="194.93" y="344.2969"/><text fill="#000000" font-family="sans-serif" font-size="12" font-style="italic" lengthAdjust="spacing" textLength="70" x="205.43" y="360.4355">&#171;entidade&#187;</text><text fill="#000000" font-family="sans-serif" font-size="14" lengthAdjust="spacing" textLength="41" x="219.93" y="376.2607">Curso</text><line style="stroke:#181818;stroke-width:0.5;" x1="195.93" x2="284.93" y1="384.5625" y2="384.5625"/><text fill="#000000" font-family="sans-serif" font-size="14" lengthAdjust="spacing" textLength="59" x="200.93" y="401.5576">+codigo</text><text fill="#000000" font-family="sans-serif" font-size="14" lengthAdjust="spacing" textLength="52" x="200.93" y="417.8545">+nome</text><text fill="#000000" font-family="sans-serif" font-size="14" lengthAdjust="spacing" textLength="79" x="200.93" y="434.1514">+descricao</text></g><!--class Disciplina--><g id="elem_Disciplina"><rect codeLine="34" fill="#F1F1F1" height="97.1563" id="Disciplina" rx="2.5" ry="2.5" style="stroke:#181818;stroke-width:0.5;" width="77" x="131.93" y="518.2969"/><text fill="#000000" font-family="sans-serif" font-size="12" font-style="italic" lengthAdjust="spacing" textLength="70" x="135.43" y="534.4355">&#171;entidade&#187;</text><text fill="#000000" font-family="sans-serif" font-size="14" lengthAdjust="spacing" textLength="65" x="137.93" y="550.2607">Disciplina</text><line style="stroke:#181818;stroke-width:0.5;" x1="132.93" x2="207.93" y1="558.5625" y2="558.5625"/><text fill="#000000" font-family="sans-serif" font-size="14" lengthAdjust="spacing" textLength="59" x="137.93" y="575.5576">+codigo</text><text fill="#000000" font-family="sans-serif" font-size="14" lengthAdjust="spacing" textLength="52" x="137.93" y="591.8545">+nome</text><text fill="#000000" font-family="sans-serif" font-size="14" lengthAdjust="spacing" textLength="65" x="137.93" y="608.1514">+periodo</text></g><!--class VagaMonitoria--><g id="elem_VagaMonitoria"><rect codeLine="40" fill="#F1F1F1" height="146.0469" id="VagaMonitoria" rx="2.5" ry="2.5" style="stroke:#181818;stroke-width:0.5;" width="116" x="112.43" y="692.2969"/><text fill="#000000" font-family="sans-serif" font-size="12" font-style="italic" lengthAdjust="spacing" textLength="70" x="135.43" y="708.4355">&#171;entidade&#187;</text><text fill="#000000" font-family="sans-serif" font-size="14" lengthAdjust="spacing" textLength="97" x="121.93" y="724.2607">VagaMonitoria</text><line style="stroke:#181818;stroke-width:0.5;" x1="113.43" x2="227.43" y1="732.5625" y2="732.5625"/><text fill="#000000" font-family="sans-serif" font-size="14" lengthAdjust="spacing" textLength="38" x="118.43" y="749.5576">+tipo</text><text fill="#000000" font-family="sans-serif" font-size="14" lengthAdjust="spacing" textLength="79" x="118.43" y="765.8545">+descricao</text><text fill="#000000" font-family="sans-serif" font-size="14" lengthAdjust="spacing" textLength="82" x="118.43" y="782.1514">+cr_minimo</text><text fill="#000000" font-family="sans-serif" font-size="14" lengthAdjust="spacing" textLength="51" x="118.43" y="798.4482">+horas</text><text fill="#000000" font-family="sans-serif" font-size="14" lengthAdjust="spacing" textLength="104" x="118.43" y="814.7451">+remuneracao</text><text fill="#000000" font-family="sans-serif" font-size="14" lengthAdjust="spacing" textLength="55" x="118.43" y="831.042">+status</text></g><!--class Candidatura--><g id="elem_Candidatura"><rect codeLine="49" fill="#F1F1F1" height="80.8594" id="Candidatura" rx="2.5" ry="2.5" style="stroke:#181818;stroke-width:0.5;" width="95" x="279.93" y="915.2969"/><text fill="#000000" font-family="sans-serif" font-size="12" font-style="italic" lengthAdjust="spacing" textLength="70" x="292.43" y="931.4355">&#171;entidade&#187;</text><text fill="#000000" font-family="sans-serif" font-size="14" lengthAdjust="spacing" textLength="83" x="285.93" y="947.2607">Candidatura</text><line style="stroke:#181818;stroke-width:0.5;" x1="280.93" x2="373.93" y1="955.5625" y2="955.5625"/><text fill="#000000" font-family="sans-serif" font-size="14" lengthAdjust="spacing" textLength="55" x="285.93" y="972.5576">+status</text><text fill="#000000" font-family="sans-serif" font-size="14" lengthAdjust="spacing" textLength="83" x="285.93" y="988.8545">+criado_em</text></g><!--class HistoricoAlunoDisciplina--><g id="elem_HistoricoAlunoDisciplina"><rect codeLine="54" fill="#F1F1F1" height="64.5625" id="HistoricoAlunoDisciplina" rx="2.5" ry="2.5" style="stroke:#181818;stroke-width:0.5;" width="170" x="503.43" y="732.7969"/><text fill="#000000" font-family="sans-serif" font-size="12" font-style="italic" lengthAdjust="spacing" textLength="83" x="546.93" y="748.9355">&#171;associa&#231;&#227;o&#187;</text><text fill="#000000" font-family="sans-serif" font-size="14" lengthAdjust="spacing" textLength="164" x="506.43" y="764.7607">HistoricoAlunoDisciplina</text><line style="stroke:#181818;stroke-width:0.5;" x1="504.43" x2="672.43" y1="773.0625" y2="773.0625"/><text fill="#000000" font-family="sans-serif" font-size="14" lengthAdjust="spacing" textLength="25" x="509.43" y="790.0576">+cr</text></g><g id="elem_GMN23"><path d="M243.93,546.7969 L243.93,587.0625 L542.93,587.0625 L542.93,556.7969 L532.93,546.7969 L243.93,546.7969 " fill="#FEFFDD" style="stroke:#181818;stroke-width:0.5;"/><path d="M532.93,546.7969 L532.93,556.7969 L542.93,556.7969 L532.93,546.7969 " fill="#FEFFDD" style="stroke:#181818;stroke-width:1.0;"/><text fill="#000000" font-family="sans-serif" font-size="13" lengthAdjust="spacing" textLength="278" x="249.93" y="563.8638">Mesmo nome pode existir para professores</text><text fill="#000000" font-family="sans-serif" font-size="13" lengthAdjust="spacing" textLength="134" x="249.93" y="578.9966">ou cursos diferentes.</text></g><g id="elem_GMN26"><path d="M444.93,935.7969 L444.93,976.0625 L731.93,976.0625 L731.93,945.7969 L721.93,935.7969 L444.93,935.7969 " fill="#FEFFDD" style="stroke:#181818;stroke-width:0.5;"/><path d="M721.93,935.7969 L721.93,945.7969 L731.93,945.7969 L721.93,935.7969 " fill="#FEFFDD" style="stroke:#181818;stroke-width:1.0;"/><text fill="#000000" font-family="sans-serif" font-size="13" lengthAdjust="spacing" textLength="266" x="450.93" y="952.8638">Um aluno possui no m&#225;ximo um hist&#243;rico</text><text fill="#000000" font-family="sans-serif" font-size="13" lengthAdjust="spacing" textLength="87" x="450.93" y="967.9966">por disciplina.</text></g><!--reverse link Usuario to Aluno--><g id="link_Usuario_Aluno"><path codeLine="59" d="M287.9262,152.633 C362.0462,244.453 518.74,438.5769 589.29,525.9769 " fill="none" id="Usuario-backto-Aluno" style="stroke:#181818;stroke-width:1.0;"/><polygon fill="none" points="276.62,138.6269,283.2575,156.4017,292.5949,148.8642,276.62,138.6269" style="stroke:#181818;stroke-width:1.0;"/></g><!--reverse link Usuario to Professor--><g id="link_Usuario_Professor"><path codeLine="60" d="M193.3713,152.1351 C178.9713,171.1451 173.99,179.8069 162.43,202.2969 C135.38,254.9669 115.98,321.5369 106.03,360.1269 " fill="none" id="Usuario-backto-Professor" style="stroke:#181818;stroke-width:1.0;"/><polygon fill="none" points="204.24,137.7869,188.5886,148.5122,198.154,155.758,204.24,137.7869" style="stroke:#181818;stroke-width:1.0;"/></g><!--reverse link Usuario to Coordenador--><g id="link_Usuario_Coordenador"><path codeLine="61" d="M240.43,159.5869 C240.43,179.5469 240.43,184.1969 240.43,202.0569 " fill="none" id="Usuario-backto-Coordenador" style="stroke:#181818;stroke-width:1.0;"/><polygon fill="none" points="240.43,141.5869,234.43,159.5869,246.43,159.5869,240.43,141.5869" style="stroke:#181818;stroke-width:1.0;"/></g><!--link Curso to Disciplina--><g id="link_Curso_Disciplina"><path codeLine="64" d="M220.94,441.7069 C211.23,465.5669 199.52,494.3169 189.83,518.1469 " fill="none" id="Curso-Disciplina" style="stroke:#181818;stroke-width:1.0;"/><polygon fill="#000000" points="210.5452,484.4944,216.677,477.2245,211.2327,475.0087,210.5452,484.4944" style="stroke:#000000;stroke-width:1.0;"/><text fill="#000000" font-family="sans-serif" font-size="13" lengthAdjust="spacing" textLength="48" x="221.43" y="484.3638">oferece</text><text fill="#000000" font-family="sans-serif" font-size="13" lengthAdjust="spacing" textLength="8" x="209.7835" y="461.3523">1</text><text fill="#000000" font-family="sans-serif" font-size="13" lengthAdjust="spacing" textLength="7" x="185.0659" y="507.316">*</text></g><!--link Professor to Disciplina--><g id="link_Professor_Disciplina"><path codeLine="65" d="M106.37,425.4569 C111.47,444.0869 118.77,467.9269 127.43,488.2969 C131.65,498.2069 136.78,508.4969 142,518.2069 " fill="none" id="Professor-Disciplina" style="stroke:#181818;stroke-width:1.0;"/><polygon fill="#000000" points="134.223,484.5307,133.7229,475.0333,128.236,477.1411,134.223,484.5307" style="stroke:#000000;stroke-width:1.0;"/><text fill="#000000" font-family="sans-serif" font-size="13" lengthAdjust="spacing" textLength="52" x="141.43" y="484.3638">ministra</text><text fill="#000000" font-family="sans-serif" font-size="13" lengthAdjust="spacing" textLength="8" x="99.0964" y="444.9808">1</text><text fill="#000000" font-family="sans-serif" font-size="13" lengthAdjust="spacing" textLength="7" x="130.5098" y="507.3845">*</text></g><!--link Coordenador to Curso--><g id="link_Coordenador_Curso"><path codeLine="66" d="M240.43,267.3669 C240.43,289.4469 240.43,319.3269 240.43,344.2769 " fill="none" id="Coordenador-Curso" style="stroke:#181818;stroke-width:1.0;"/><polygon fill="#000000" points="245.43,310.8633,248.3689,301.8182,242.4911,301.8182,245.43,310.8633" style="stroke:#000000;stroke-width:1.0;"/><text fill="#000000" font-family="sans-serif" font-size="13" lengthAdjust="spacing" textLength="60" x="254.43" y="310.3638">coordena</text><text fill="#000000" font-family="sans-serif" font-size="13" lengthAdjust="spacing" textLength="7" x="232.7847" y="286.8743">*</text><text fill="#000000" font-family="sans-serif" font-size="13" lengthAdjust="spacing" textLength="7" x="232.9159" y="333.1141">*</text></g><!--link Aluno to Candidatura--><g id="link_Aluno_Candidatura"><path codeLine="68" d="M578.13,602.9969 C572.3,607.2969 566.3,611.5069 560.43,615.2969 C498.81,655.0969 461.85,636.3169 414.43,692.2969 C359.05,757.6869 338.6,859.5169 331.3,915.1669 " fill="none" id="Aluno-Candidatura" style="stroke:#181818;stroke-width:1.0;"/><polygon fill="#000000" points="416.3288,769.2854,424.2442,764.0131,419.6335,760.3674,416.3288,769.2854" style="stroke:#000000;stroke-width:1.0;"/><text fill="#000000" font-family="sans-serif" font-size="13" lengthAdjust="spacing" textLength="57" x="428.43" y="769.8638">submete</text><text fill="#000000" font-family="sans-serif" font-size="13" lengthAdjust="spacing" textLength="8" x="562.2959" y="604.8399">1</text><text fill="#000000" font-family="sans-serif" font-size="13" lengthAdjust="spacing" textLength="7" x="324.3613" y="904.2849">*</text></g><!--link VagaMonitoria to Candidatura--><g id="link_VagaMonitoria_Candidatura"><path codeLine="69" d="M228.45,835.9469 C250.72,862.6969 275.36,892.2769 294.49,915.2369 " fill="none" id="VagaMonitoria-Candidatura" style="stroke:#181818;stroke-width:1.0;"/><polygon fill="#000000" points="269.2301,873.0213,272.7606,881.8523,277.277,878.0906,269.2301,873.0213" style="stroke:#000000;stroke-width:1.0;"/><text fill="#000000" font-family="sans-serif" font-size="13" lengthAdjust="spacing" textLength="44" x="281.43" y="881.3638">recebe</text><text fill="#000000" font-family="sans-serif" font-size="13" lengthAdjust="spacing" textLength="8" x="236.3963" y="841.1104">1</text><text fill="#000000" font-family="sans-serif" font-size="13" lengthAdjust="spacing" textLength="7" x="281.4546" y="904.3665">*</text></g><!--link Disciplina to VagaMonitoria--><g id="link_Disciplina_VagaMonitoria"><path codeLine="71" d="M170.43,615.3669 C170.43,638.4169 170.43,666.6069 170.43,692.2269 " fill="none" id="Disciplina-VagaMonitoria" style="stroke:#181818;stroke-width:1.0;"/><polygon fill="#000000" points="175.43,658.8633,178.3689,649.8182,172.4911,649.8182,175.43,658.8633" style="stroke:#000000;stroke-width:1.0;"/><text fill="#000000" font-family="sans-serif" font-size="13" lengthAdjust="spacing" textLength="29" x="184.43" y="658.3638">abre</text><text fill="#000000" font-family="sans-serif" font-size="13" lengthAdjust="spacing" textLength="8" x="161.8425" y="635.6673">1</text><text fill="#000000" font-family="sans-serif" font-size="13" lengthAdjust="spacing" textLength="7" x="163.0691" y="680.9894">*</text></g><!--link Professor to VagaMonitoria--><g id="link_Professor_VagaMonitoria"><path codeLine="72" d="M72.24,425.5369 C54.33,449.4069 32.13,483.7969 22.43,518.2969 C10.77,559.7969 6,575.4369 22.43,615.2969 C40.64,659.4569 78.97,697.4369 112.06,723.9969 " fill="none" id="Professor-VagaMonitoria" style="stroke:#181818;stroke-width:1.0;"/><polygon fill="#000000" points="28.0912,571.8194,29.8082,562.4651,23.9819,563.2424,28.0912,571.8194" style="stroke:#000000;stroke-width:1.0;"/><text fill="#000000" font-family="sans-serif" font-size="13" lengthAdjust="spacing" textLength="77" x="36.43" y="571.3638">respons&#225;vel</text><text fill="#000000" font-family="sans-serif" font-size="13" lengthAdjust="spacing" textLength="8" x="58.8624" y="444.8223">1</text><text fill="#000000" font-family="sans-serif" font-size="13" lengthAdjust="spacing" textLength="7" x="97.5196" y="715.1215">*</text></g><!--link Aluno to HistoricoAlunoDisciplina--><g id="link_Aluno_HistoricoAlunoDisciplina"><path codeLine="74" d="M614.76,607.5569 C608.56,644.4569 599.46,698.6569 593.74,732.6769 " fill="none" id="Aluno-HistoricoAlunoDisciplina" style="stroke:#181818;stroke-width:1.0;"/><text fill="#000000" font-family="sans-serif" font-size="13" lengthAdjust="spacing" textLength="8" x="605.0595" y="627.337">1</text><text fill="#000000" font-family="sans-serif" font-size="13" lengthAdjust="spacing" textLength="7" x="587.1133" y="721.5278">*</text></g><!--link Disciplina to HistoricoAlunoDisciplina--><g id="link_Disciplina_HistoricoAlunoDisciplina"><path codeLine="75" d="M209.18,603.6769 C214.75,607.9169 220.58,611.9269 226.43,615.2969 C315.13,666.3469 349.21,652.3569 443.43,692.2969 C472.03,704.4169 502.95,719.4869 528.87,732.7069 " fill="none" id="Disciplina-HistoricoAlunoDisciplina" style="stroke:#181818;stroke-width:1.0;"/><text fill="#000000" font-family="sans-serif" font-size="13" lengthAdjust="spacing" textLength="8" x="217.062" y="606.1585">1</text><text fill="#000000" font-family="sans-serif" font-size="13" lengthAdjust="spacing" textLength="7" x="508.8639" y="721.564">*</text></g><!--link Disciplina to GMN23--><g id="link_Disciplina_GMN23"><path d="M209.2,566.7969 C220.71,566.7969 232.23,566.7969 243.74,566.7969 " fill="none" id="Disciplina-GMN23" style="stroke:#181818;stroke-width:1.0;stroke-dasharray:7.0,7.0;"/></g><!--link HistoricoAlunoDisciplina to GMN26--><g id="link_HistoricoAlunoDisciplina_GMN26"><path d="M588.43,797.8469 C588.43,837.1469 588.43,903.0769 588.43,935.5369 " fill="none" id="HistoricoAlunoDisciplina-GMN26" style="stroke:#181818;stroke-width:1.0;stroke-dasharray:7.0,7.0;"/></g><!--SRC=[ZLJ1QXin4BthAmPV0crJsgi9WP9GqaCWjAJNCDPEx6bNcaMZBKdQVape8UJGKpzXVwmZhsFBmOQ0MUzAxxsPDpEIVkVOOS80laNL3paddlMPFdc9N_YEu9tJDKJpRKlsJEnp7rgtu8Q0GfTl8L2OKLBdCcV3d3BEZO5WW9CYJ0ed4Zrnxh65GxXeCUErf15oBf6p94Rd3k2ZU37Lab2YEziN-uNXRsHvOt6Yg54ojWlJpCEZZ-pBai3fDunpSMxf12wrnyG2HqSKCpVOqF4n_7G0hxafpoY1oZy5vDRzVg9zQFjOI1rsr3un0XRFVOlbm_T9PKEuI79DgfAUangogcMqZ7C5Fn593KLiNameuNQuyDAmkQsSDAJUqiIAVChgkMivueiKEhAADHN_AyvntPmT4faxsGvTTDDLuCXX-R6GX5fU4eK-Ki8LI3FcNYkR61kJpdtQ5MU5NegprUwAmePwnbhoyxBitPPbsnRFE3mCVsHjEnNg0PnPCd5uGF2RmRHPj9OCZwnkFJ-_3W_7gTXUMlTzUxdgRmdocLhqB77igaANE5fwQ076naxUJy1earUJkbbJCF54dk3ORGPi7xPKsqub6hWUhu9RmSTOKxCwRXlIZPDUQTOjc8Bsiq2v9B0z17i99TqPmP5pLN8LUbjc2ZXBU-qznoRIJg8Ezp-etPdxlXdOayjUk8jYdXFF5zbQK9NPdPC6WN9Ie9DoxzsO1YSeLwErTMM2r4aFool2xYGkJOoPzAsZs43HNaMOISuIIeYzgLm6mANDJbHxDZQ4uVx6pXNq0HP66_uLdkkiTisQLuNw3m00]--></g></svg>